<?xml version="1.0" standalone="no"?>
<!DOCTYPE svg PUBLIC "-//W3C//DTD SVG 20010904//EN"
 "http://www.w3.org/TR/2001/REC-SVG-20010904/DTD/svg10.dtd">
<svg version="1.0" xmlns="http://www.w3.org/2000/svg"
 width="278.000000pt" height="82.000000pt" viewBox="0 0 278.000000 82.000000"
 preserveAspectRatio="xMidYMid meet">

<g transform="translate(0.000000,82.000000) scale(0.100000,-0.100000)"
fill="#000000" stroke="none">
<path d="M1032 810 c-106 -22 -136 -68 -130 -200 5 -149 28 -161 319 -169 219
-6 239 -11 239 -56 0 -42 -18 -46 -196 -43 l-169 3 -10 33 -9 32 -87 0 -87 0
-7 -28 c-8 -40 9 -110 36 -138 41 -44 77 -49 339 -49 267 0 297 5 344 54 47
49 53 201 10 266 -33 51 -70 59 -295 65 -220 5 -239 10 -239 56 0 13 9 28 19
34 11 5 84 10 166 10 l146 0 17 -30 c17 -30 18 -30 106 -30 l89 0 -6 54 c-7
66 -27 98 -75 123 -32 16 -66 18 -257 20 -121 1 -239 -2 -263 -7z"/>
<path d="M0 505 l0 -306 338 3 c379 3 390 5 434 77 21 33 23 50 26 195 4 177
-5 230 -47 270 -61 58 -77 61 -428 64 l-323 3 0 -306z m560 136 c14 -8 30 -21
37 -30 16 -21 17 -181 2 -215 -18 -38 -58 -46 -240 -46 l-169 0 0 156 0 156
173 -4 c122 -2 179 -7 197 -17z"/>
<path d="M1760 505 l0 -305 90 0 90 0 2 210 3 210 120 -210 120 -210 64 2 64
3 123 213 124 213 0 90 0 90 -47 -3 -48 -3 -105 -182 c-58 -100 -107 -182
-110 -183 -3 0 -52 83 -110 185 l-105 185 -137 0 -138 0 0 -305z"/>
<path d="M2600 720 l0 -80 85 0 85 0 0 80 0 80 -85 0 -85 0 0 -80z"/>
<path d="M0 65 l0 -66 48 3 47 3 0 60 0 60 -47 3 -48 3 0 -66z m90 1 c0 -37
-4 -45 -22 -50 -44 -11 -48 -8 -48 44 l0 50 35 0 c35 0 35 0 35 -44z"/>
<path d="M153 65 c0 -38 2 -53 4 -32 2 20 2 52 0 70 -2 17 -4 1 -4 -38z"/>
<path d="M210 111 c-26 -50 -4 -111 40 -111 44 0 60 10 60 36 0 20 -5 24 -27
23 -27 -1 -27 -1 -4 -8 23 -6 23 -7 7 -24 -19 -19 -26 -20 -50 -11 -11 4 -16
19 -16 49 0 35 4 45 20 50 13 4 31 0 45 -9 21 -14 25 -14 25 -2 0 31 -83 37
-100 7z"/>
<path d="M350 65 c0 -37 4 -65 10 -65 6 0 10 28 10 65 0 37 -4 65 -10 65 -6 0
-10 -28 -10 -65z"/>
<path d="M400 120 c0 -5 9 -10 20 -10 16 0 20 -8 23 -57 l3 -58 2 58 c2 50 5
57 22 57 11 0 20 5 20 10 0 6 -20 10 -45 10 -25 0 -45 -4 -45 -10z"/>
<path d="M529 103 c-29 -74 -37 -103 -30 -103 5 0 11 7 15 15 7 20 65 20 72 0
4 -8 10 -15 15 -15 13 0 -34 123 -48 128 -7 2 -18 -9 -24 -25z m35 -19 c10
-26 7 -34 -15 -34 -15 0 -19 4 -15 16 3 9 6 20 6 25 0 15 17 10 24 -7z"/>
<path d="M640 65 l0 -65 45 0 c25 0 45 5 45 10 0 6 -16 10 -35 10 l-35 0 0 55
c0 30 -4 55 -10 55 -6 0 -10 -28 -10 -65z"/>
<path d="M835 110 c-9 -28 11 -50 46 -50 33 0 45 -15 29 -35 -16 -19 -35 -19
-55 1 -19 19 -28 14 -19 -10 5 -13 16 -16 48 -14 36 3 41 6 44 31 3 28 0 30
-50 41 -33 7 -37 32 -7 41 13 4 28 0 41 -12 20 -18 20 -17 17 2 -3 16 -13 21
-46 23 -35 3 -42 0 -48 -18z"/>
<path d="M982 118 c-16 -16 -16 -90 0 -106 16 -16 70 -16 86 0 16 16 16 90 0
106 -7 7 -26 12 -43 12 -17 0 -36 -5 -43 -12z m62 -4 c23 -9 22 -89 0 -98 -36
-14 -54 3 -54 49 0 49 16 63 54 49z"/>
<path d="M1122 63 c0 -38 3 -53 5 -35 4 29 7 32 41 33 l37 2 -35 6 c-22 4 -36
12 -38 24 -3 14 5 17 52 17 l56 0 0 -55 c0 -30 5 -55 10 -55 6 0 10 25 10 55
0 48 2 55 20 55 11 0 20 5 20 10 0 6 -37 10 -90 10 l-90 0 2 -67z"/>
<path d="M1320 120 c0 -26 32 -120 41 -120 5 0 14 21 20 46 13 49 23 48 36 -5
14 -53 28 -47 46 19 20 69 20 73 8 66 -5 -3 -14 -27 -21 -53 l-13 -48 -12 48
c-8 27 -16 51 -19 54 -11 11 -25 -9 -31 -47 -9 -51 -21 -51 -30 0 -6 37 -25
66 -25 40z"/>
<path d="M1521 69 c-13 -33 -20 -63 -17 -66 3 -3 8 2 12 11 8 22 70 22 78 0 4
-9 9 -14 13 -11 9 10 -38 127 -52 127 -7 0 -22 -27 -34 -61z m48 11 c9 -28 8
-30 -14 -30 -22 0 -23 2 -14 30 6 17 12 30 14 30 2 0 8 -13 14 -30z"/>
<path d="M1651 63 c1 -37 4 -56 6 -40 4 22 9 27 33 27 22 0 31 -6 38 -27 8
-23 10 -17 9 37 l-2 65 -42 3 -43 3 1 -68z m74 37 c10 -17 -16 -41 -39 -38
-13 2 -22 12 -24 26 -3 19 1 22 27 22 16 0 33 -5 36 -10z"/>
<path d="M1780 65 l0 -65 45 0 c25 0 45 5 45 10 0 6 -16 10 -35 10 -28 0 -35
4 -35 19 0 15 8 21 38 24 l37 4 -37 1 c-31 2 -38 6 -38 22 0 16 7 20 35 20 19
0 35 5 35 10 0 6 -20 10 -45 10 l-45 0 0 -65z"/>
<path d="M1992 63 l1 -68 6 54 6 55 19 -53 c10 -28 23 -50 29 -48 5 1 18 23
28 47 l18 45 0 -47 c1 -27 6 -48 11 -48 6 0 10 28 10 65 0 82 -19 87 -48 13
l-20 -53 -15 35 c-8 19 -17 43 -20 53 -14 39 -27 14 -25 -50z"/>
<path d="M2197 123 c-5 -8 -47 -116 -47 -120 0 -2 5 -3 10 -3 6 0 10 7 10 15
0 11 11 15 35 15 22 0 38 -6 41 -15 4 -8 10 -15 15 -15 11 0 -36 123 -49 128
-6 2 -12 -1 -15 -5z m28 -50 c5 -19 2 -23 -14 -23 -23 0 -24 3 -15 38 7 26 18
20 29 -15z"/>
<path d="M2301 63 c1 -37 4 -55 6 -40 4 25 8 28 36 25 23 -2 33 -9 38 -28 5
-15 7 0 6 40 l-2 65 -42 3 -43 3 1 -68z m79 27 c0 -12 -9 -22 -24 -26 -31 -7
-46 1 -46 27 0 15 7 19 35 19 28 0 35 -4 35 -20z"/>
<path d="M2443 65 c0 -47 2 -59 6 -37 l6 34 29 -31 c17 -17 37 -31 45 -31 10
0 3 12 -19 35 l-34 35 29 30 c16 16 24 30 19 30 -6 0 -21 -11 -34 -25 -30 -32
-38 -31 -43 3 -2 15 -4 -4 -4 -43z"/>
<path d="M2570 65 l0 -65 45 0 c25 0 45 5 45 10 0 6 -18 10 -40 10 -33 0 -40
3 -40 20 0 16 7 20 38 21 l37 2 -35 6 c-22 4 -36 12 -38 24 -3 14 4 17 37 17
23 0 41 5 41 10 0 6 -20 10 -45 10 l-45 0 0 -65z"/>
<path d="M2680 120 c0 -5 9 -10 20 -10 16 0 20 -8 23 -57 l3 -58 2 58 c2 50 5
57 22 57 11 0 20 5 20 10 0 6 -20 10 -45 10 -25 0 -45 -4 -45 -10z"/>
</g>
</svg>
