<svg width="45" height="45" viewBox="0 0 45 45" fill="none" xmlns="http://www.w3.org/2000/svg">
<g clip-path="url(#clip0)">
<path d="M42.1363 27.0959L36.9994 16.8219C36.8294 7.51746 29.2077 0 19.8633 0C10.4134 0 2.72461 7.68867 2.72461 17.1387C2.72461 21.7877 4.64036 26.2513 7.99805 29.4803V43.6816C7.99805 44.4103 8.58771 45 9.31641 45H25.1367C25.8654 45 26.4551 44.4103 26.4551 43.6816V39.5508H35.6836C36.4123 39.5508 37.002 38.9611 37.002 38.2324V29.0039H40.957C41.4128 29.0039 41.8377 28.767 42.0797 28.3782C42.3192 27.9894 42.3398 27.5041 42.1363 27.0959Z" fill="#FCC669"/>
<path d="M27.7734 15.8203H26.3232C26.1387 14.9766 25.8223 14.2119 25.3477 13.5L26.3759 12.4717C26.9032 11.9707 26.9032 11.127 26.3759 10.626C25.8751 10.0986 25.0313 10.0986 24.5303 10.626L23.502 11.6543C22.79 11.1797 22.0254 10.8633 21.1816 10.6787V9.22852C21.1816 8.49015 20.6017 7.91016 19.8633 7.91016C19.1249 7.91016 18.5449 8.49015 18.5449 9.22852V10.6787C17.7012 10.8633 16.9365 11.1797 16.2246 11.6543L15.1963 10.626C14.6953 10.0986 13.8516 10.0986 13.3507 10.626C12.8233 11.127 12.8233 11.9707 13.3507 12.4717L14.3789 13.5C13.9043 14.212 13.5879 14.9766 13.4033 15.8203H11.9531C11.2148 15.8203 10.6348 16.4003 10.6348 17.1387C10.6348 17.8769 11.2148 18.457 11.9531 18.457H13.4033C13.5879 19.3008 13.9043 20.0654 14.3789 20.7773L13.3507 21.8056C12.8233 22.3066 12.8233 23.1503 13.3507 23.6513C13.7805 24.1292 14.6216 24.2263 15.1963 23.6513L16.2246 22.623C16.9366 23.0977 17.7012 23.4141 18.5449 23.5987V25.0488C18.5449 25.787 19.1249 26.3672 19.8633 26.3672C20.6017 26.3672 21.1816 25.787 21.1816 25.0488V23.5986C22.0254 23.4141 22.79 23.0977 23.502 22.6229L24.5303 23.6512C25.1002 24.2215 25.9416 24.134 26.3759 23.6512C26.9032 23.1502 26.9032 22.3065 26.3759 21.8055L25.3477 20.7773C25.8224 20.0653 26.1388 19.3008 26.3233 18.457H27.7734C28.5118 18.457 29.0918 17.8769 29.0918 17.1387C29.0918 16.4003 28.5118 15.8203 27.7734 15.8203ZM19.8633 18.457C19.1249 18.457 18.5449 17.8769 18.5449 17.1387C18.5449 16.4003 19.1249 15.8203 19.8633 15.8203C20.6017 15.8203 21.1816 16.4003 21.1816 17.1387C21.1816 17.8769 20.6017 18.457 19.8633 18.457Z" fill="#FEF4E2"/>
</g>
<defs>
<clipPath id="clip0">
<rect width="45" height="45" fill="white"/>
</clipPath>
</defs>
</svg>
