<svg fill="none" height="41" viewBox="0 0 42 41" width="42" xmlns="http://www.w3.org/2000/svg" xmlns:xlink="http://www.w3.org/1999/xlink"><clipPath id="a"><path d="m6.44482 10.1497h24.5559v24.2125h-24.5559z"/></clipPath><ellipse cx="20.7694" cy="20.2384" fill="#fa848f" rx="20.4632" ry="20.1771"/><g clip-path="url(#a)" stroke="#fff" stroke-linecap="round" stroke-linejoin="round" stroke-width="2"><path d="m29.9773 11.1584-6.1389 6.0532"/><path d="m23.8384 11.1584 6.1389 6.0532"/><path d="m28.9542 27.2195v3.0265c.0012.281-.0572.5591-.1713.8165-.1142.2575-.2816.4886-.4916.6785-.21.19-.4579.3346-.7278.4246s-.556.1234-.8398.0981c-3.1484-.3373-6.1727-1.3981-8.8298-3.0971-2.4722-1.549-4.5681-3.6156-6.139-6.0532-1.7292-2.6319-2.80528-5.6284-3.14113-8.7468-.02556-.2789.00806-.5601.09874-.8256.09068-.2654.23642-.5094.42795-.7163s.42465-.3722.68452-.4853c.25992-.1132.54082-.1718.82492-.1721h3.0695c.4965-.0048.9779.1686 1.3544.4878.3765.3193.6224.7627.6919 1.2475.1295.9685.3698 1.9195.7162 2.8349.1376.361.1674.7535.0858 1.1308-.0816.3772-.2711.7235-.5462.9978l-1.2994 1.2813c1.4565 2.5257 3.5774 4.617 6.1389 6.0531l1.2994-1.2812c.2782-.2713.6294-.4582 1.0121-.5387.3826-.0804.7806-.051 1.1468.0847.9283.3415 1.8928.5784 2.8751.7062.497.0691.9509.316 1.2754.6936s.4969.8596.4844 1.3544z"/></g></svg>