<svg width="42" height="41" viewBox="0 0 42 41" fill="none" xmlns="http://www.w3.org/2000/svg">
<ellipse cx="20.8075" cy="20.2562" rx="20.4632" ry="20.1771" fill="#61D3C6"/>
<g clip-path="url(#clip0)">
<path d="M22.9043 14.2029C23.9036 14.3952 24.8221 14.8771 25.5421 15.587C26.262 16.2969 26.7508 17.2025 26.9458 18.1879M22.9043 10.1675C24.9806 10.3949 26.9167 11.3117 28.3948 12.7673C29.8729 14.2229 30.8052 16.1308 31.0384 18.1778M30.0153 26.2285V29.255C30.0164 29.536 29.9581 29.8141 29.8439 30.0715C29.7297 30.329 29.5623 30.5601 29.3523 30.75C29.1424 30.94 28.8945 31.0846 28.6245 31.1746C28.3546 31.2646 28.0686 31.298 27.7848 31.2727C24.6363 30.9354 21.612 29.8746 18.9549 28.1756C16.4828 26.6266 14.3868 24.56 12.8159 22.1224C11.0867 19.4905 10.0107 16.494 9.67481 13.3756C9.64924 13.0967 9.68287 12.8155 9.77354 12.55C9.86422 12.2846 10.01 12.0406 10.2015 11.8337C10.393 11.6268 10.6261 11.4615 10.886 11.3484C11.1459 11.2352 11.4268 11.1766 11.7109 11.1763H14.7804C15.2769 11.1715 15.7583 11.3449 16.1348 11.6642C16.5113 11.9834 16.7572 12.4268 16.8267 12.9116C16.9563 13.8801 17.1965 14.8311 17.5429 15.7465C17.6806 16.1075 17.7104 16.5 17.6288 16.8773C17.5472 17.2545 17.3576 17.6008 17.0825 17.8751L15.7831 19.1564C17.2396 21.6821 19.3605 23.7734 21.9221 25.2095L23.2215 23.9283C23.4997 23.657 23.8509 23.4701 24.2335 23.3896C24.6161 23.3092 25.0141 23.3386 25.3803 23.4743C26.3086 23.8158 27.2731 24.0527 28.2554 24.1805C28.7524 24.2496 29.2064 24.4965 29.5308 24.8741C29.8553 25.2517 30.0277 25.7337 30.0153 26.2285Z" stroke="white" stroke-width="2" stroke-linecap="round" stroke-linejoin="round"/>
</g>
<defs>
<clipPath id="clip0">
<rect width="24.5559" height="24.2125" fill="white" transform="translate(7.50586 9.15869)"/>
</clipPath>
</defs>
</svg>
