<svg width="52" height="52" viewBox="0 0 52 52" fill="none" xmlns="http://www.w3.org/2000/svg">
<path d="M46.5414 10.1034C46.2736 9.75973 45.869 9.54553 45.4346 9.51872C44.9972 9.49191 44.5717 9.65116 44.2623 9.96204L37.9633 16.2596C37.6627 16.4441 37.4307 16.7313 37.3146 17.0735C37.1628 17.5228 37.2283 18.0182 37.4961 18.4125C40.5519 22.9426 40.5519 29.0275 37.4961 33.556C37.2669 33.8937 37.1866 34.3178 37.2669 34.7165C37.3473 35.1152 37.5853 35.4753 37.9246 35.6999L44.2623 42.0376C44.548 42.3247 44.9377 42.484 45.3393 42.484C45.8153 42.484 46.257 42.2616 46.5414 41.8948C53.8194 32.5355 53.8194 19.4628 46.5414 10.1034ZM35.7356 37.9602C35.5512 37.6552 35.2625 37.4231 34.9173 37.3101C34.468 37.1628 33.986 37.2298 33.5962 37.4871C28.9901 40.5488 23.0393 40.5488 18.4332 37.4871C17.7399 37.0244 16.7699 37.2342 16.2998 37.923L9.96217 44.2592C9.65271 44.5687 9.49204 44.9941 9.51885 45.4315C9.54566 45.8674 9.75986 46.2706 10.105 46.5384C14.7824 50.1789 20.3911 51.9999 25.9999 51.9999C31.6087 51.9999 37.2174 50.1789 41.8948 46.5385C42.24 46.2707 42.4543 45.8675 42.481 45.4316C42.5078 44.9942 42.3471 44.5688 42.0376 44.2593L35.7356 37.9602ZM14.7061 34.7418C14.7865 34.3461 14.7061 33.934 14.48 33.5963C11.4599 29.0528 11.4599 22.947 14.48 18.4035C14.7061 18.0658 14.7984 17.6597 14.718 17.2625C14.6377 16.8668 14.4115 16.5231 14.0753 16.2999L7.73765 9.96214C7.42819 9.65116 6.99969 9.49495 6.56531 9.51882C6.13093 9.54563 5.7262 9.75983 5.45848 10.1035C-1.81949 19.4628 -1.81949 32.5355 5.45848 41.8948C5.7263 42.2399 6.13093 42.4542 6.56531 42.4809C7.0459 42.5028 7.44931 42.3274 7.73765 42.0376L14.0962 35.682C14.4086 35.4574 14.6288 35.1226 14.7061 34.7418ZM16.3356 14.1073C16.6301 14.5358 17.1092 14.7664 17.5912 14.7664C17.8828 14.7664 18.1744 14.6845 18.4333 14.512C23.0394 11.4503 28.9902 11.4503 33.5963 14.512C33.9861 14.7693 34.4681 14.8362 34.9174 14.689C35.2625 14.5759 35.5512 14.3439 35.7386 14.0389L42.0376 7.73985C42.3471 7.43039 42.5078 7.00494 42.481 6.56752C42.4542 6.13161 42.24 5.72841 41.8948 5.46069C32.54 -1.82023 19.4599 -1.82023 10.105 5.46069C9.75986 5.72851 9.54556 6.13161 9.51885 6.56752C9.49204 7.00494 9.65271 7.43039 9.96217 7.73985L16.3356 14.1073ZM27.5233 26.7081C27.5233 26.1666 27.8149 25.6593 28.2851 25.387C29.6955 24.5731 30.5702 23.0557 30.5702 21.4296C30.5702 18.9094 28.5201 16.8593 25.9999 16.8593C23.4797 16.8593 21.4296 18.9094 21.4296 21.4296C21.4296 22.2716 22.111 22.953 22.953 22.953C23.7951 22.953 24.4765 22.2716 24.4765 21.4296C24.4765 20.589 25.1608 19.9061 25.9999 19.9061C26.839 19.9061 27.5233 20.589 27.5233 21.4296C27.5233 21.9726 27.2318 22.4784 26.7587 22.7507C25.3512 23.5659 24.4765 25.082 24.4765 26.7081V27.5233C24.4765 28.3654 25.1578 29.0468 25.9999 29.0468C26.842 29.0468 27.5233 28.3654 27.5233 27.5233V26.7081ZM25.9999 32.0936C25.1586 32.0936 24.4765 32.7757 24.4765 33.6171C24.4765 34.4584 25.1586 35.1405 25.9999 35.1405C26.8412 35.1405 27.5233 34.4584 27.5233 33.6171C27.5233 32.7757 26.8412 32.0936 25.9999 32.0936Z" fill="#FCC669"/>
<path d="M9.39375 5.09853C8.3509 3.99739 6.2382 3.95748 5.09715 5.09853C3.91597 6.27666 3.9112 8.21071 5.09715 9.39361L14.574 18.8735C16.1506 20.2194 17.8121 19.9857 18.9004 18.9003C19.9934 17.8058 20.2171 16.1598 18.9004 14.6037L9.39375 5.09853ZM37.1518 32.8834C35.9545 31.9564 34.1142 32.0842 33.0993 33.0991C32.0097 34.1902 31.8158 35.7212 33.0993 37.3958L42.6089 46.9024C43.8558 48.1558 45.876 48.0316 46.9322 46.8697C48.1045 45.6631 48.0421 43.744 46.7806 42.4839C46.2169 41.922 37.439 33.1698 37.1518 32.8834ZM46.7804 42.4838C46.7805 42.4838 46.7805 42.4838 46.7804 42.4838C46.8176 42.5209 46.8195 42.5226 46.7804 42.4838ZM14.6038 33.0991L5.09715 42.6072C3.98432 43.6675 3.85179 45.6489 5.09715 46.9008C6.23272 48.0364 8.11193 48.1826 9.51572 46.7788L18.9002 37.3956C20.2363 35.8651 19.9359 34.1361 18.9002 33.0976C17.774 31.9741 16.0515 31.7872 14.6038 33.0991ZM37.3095 18.9509L46.9023 9.39361C48.0765 8.22249 48.0942 6.29037 46.9023 5.09853C45.7347 3.93401 43.817 3.87805 42.4838 5.22051L33.1111 14.5903C31.8099 16.2704 32.0488 17.8527 33.0992 18.9003C34.1604 19.9614 35.807 20.1913 37.3095 18.9509Z" fill="#FEF4E2"/>
</svg>
