<svg width="44" height="43" viewBox="0 0 44 43" fill="none" xmlns="http://www.w3.org/2000/svg">
<path d="M39.3812 8.35473C39.1546 8.07055 38.8122 7.89342 38.4447 7.87125C38.0746 7.84908 37.7145 7.98077 37.4527 8.23784L32.1228 13.4454C31.8684 13.598 31.6721 13.8355 31.5739 14.1185C31.4454 14.49 31.5009 14.8997 31.7275 15.2257C34.3131 18.9718 34.3131 24.0035 31.7275 27.7482C31.5335 28.0275 31.4656 28.3782 31.5335 28.7079C31.6016 29.0376 31.8029 29.3353 32.09 29.5211L37.4527 34.7619C37.6945 34.9993 38.0242 35.131 38.364 35.131C38.7668 35.131 39.1405 34.9471 39.3812 34.6438C45.5395 26.9044 45.5395 16.0942 39.3812 8.35473ZM30.2378 31.3902C30.0818 31.138 29.8375 30.946 29.5454 30.8526C29.1652 30.7308 28.7574 30.7862 28.4276 30.9989C24.5301 33.5307 19.4948 33.5307 15.5973 30.9989C15.0107 30.6163 14.1899 30.7898 13.7921 31.3594L8.42953 36.599C8.16768 36.8549 8.03172 37.2067 8.05441 37.5684C8.07709 37.9288 8.25834 38.2622 8.55038 38.4837C12.5082 41.4941 17.254 42.9999 21.9999 42.9999C26.7458 42.9999 31.4916 41.4941 35.4494 38.4838C35.7415 38.2623 35.9229 37.9289 35.9455 37.5684C35.9681 37.2067 35.8322 36.855 35.5703 36.599L30.2378 31.3902ZM12.4436 28.7288C12.5117 28.4016 12.4436 28.0608 12.2523 27.7816C9.69684 24.0244 9.69684 18.9754 12.2523 15.2183C12.4436 14.939 12.5217 14.6032 12.4537 14.2748C12.3857 13.9475 12.1943 13.6633 11.9099 13.4788L6.54724 8.23792C6.28539 7.98077 5.92281 7.85159 5.55526 7.87133C5.18771 7.8935 4.84524 8.07063 4.61871 8.35482C-1.53957 16.0942 -1.53957 26.9044 4.61871 34.6438C4.84533 34.9291 5.18771 35.1064 5.55526 35.1284C5.96191 35.1465 6.30326 35.0015 6.54724 34.7619L11.9276 29.5063C12.1919 29.3205 12.3782 29.0437 12.4436 28.7288ZM13.8224 11.6657C14.0716 12.02 14.477 12.2107 14.8849 12.2107C15.1316 12.2107 15.3783 12.143 15.5974 12.0003C19.4949 9.46852 24.5302 9.46852 28.4276 12.0003C28.7575 12.2131 29.1653 12.2684 29.5455 12.1467C29.8375 12.0531 30.0818 11.8613 30.2404 11.6091L35.5703 6.40026C35.8322 6.14436 35.9681 5.79255 35.9455 5.43083C35.9228 5.07037 35.7415 4.73695 35.4494 4.51557C27.5338 -1.50519 16.4661 -1.50519 8.55038 4.51557C8.25834 4.73704 8.07701 5.07037 8.05441 5.43083C8.03172 5.79255 8.16768 6.14436 8.42953 6.40026L13.8224 11.6657ZM23.2889 22.0855C23.2889 21.6378 23.5357 21.2183 23.9335 20.9931C25.127 20.3201 25.8671 19.0653 25.8671 17.7206C25.8671 15.6366 24.1324 13.9413 21.9999 13.9413C19.8674 13.9413 18.1327 15.6366 18.1327 17.7206C18.1327 18.4169 18.7093 18.9804 19.4218 18.9804C20.1343 18.9804 20.7109 18.4169 20.7109 17.7206C20.7109 17.0255 21.2899 16.4608 21.9999 16.4608C22.7099 16.4608 23.2889 17.0255 23.2889 17.7206C23.2889 18.1696 23.0423 18.5879 22.642 18.8131C21.451 19.4872 20.7109 20.7409 20.7109 22.0855V22.7597C20.7109 23.456 21.2874 24.0195 21.9999 24.0195C22.7125 24.0195 23.2889 23.456 23.2889 22.7597V22.0855ZM21.9999 26.5389C21.288 26.5389 20.7109 27.103 20.7109 27.7988C20.7109 28.4944 21.288 29.0585 21.9999 29.0585C22.7118 29.0585 23.2889 28.4944 23.2889 27.7988C23.2889 27.103 22.7118 26.5389 21.9999 26.5389Z" fill="#FCC669"/>
<path d="M7.94846 4.21612C7.06605 3.30556 5.27838 3.27256 4.31288 4.21612C3.31342 5.19034 3.30938 6.78965 4.31288 7.76782L12.3318 15.607C13.6658 16.7199 15.0717 16.5267 15.9926 15.6291C16.9174 14.7241 17.1067 13.3629 15.9926 12.0762L7.94846 4.21612ZM31.436 27.1921C30.4229 26.4255 28.8658 26.5312 28.007 27.3704C27.085 28.2727 26.921 29.5387 28.007 30.9235L36.0536 38.7847C37.1087 39.8212 38.8181 39.7185 39.7118 38.7577C40.7037 37.7599 40.6509 36.1729 39.5835 35.1309C39.1065 34.6663 31.6791 27.4289 31.436 27.1921ZM39.5833 35.1309C39.5834 35.1309 39.5834 35.1309 39.5833 35.1309C39.6148 35.1615 39.6164 35.1629 39.5833 35.1309ZM12.357 27.3704L4.31288 35.2329C3.37125 36.1097 3.25911 37.7482 4.31288 38.7834C5.27374 39.7224 6.86385 39.8433 8.05167 38.6825L15.9924 30.9233C17.1229 29.6577 16.8687 28.228 15.9924 27.3692C15.0394 26.4401 13.5819 26.2856 12.357 27.3704ZM31.5695 15.671L39.6865 7.76782C40.68 6.79939 40.695 5.20168 39.6865 4.21612C38.6985 3.25315 37.0758 3.20688 35.9477 4.31699L28.017 12.0651C26.916 13.4544 27.1181 14.7628 28.0069 15.6291C28.9049 16.5066 30.2981 16.6967 31.5695 15.671Z" fill="#FEF4E2"/>
</svg>
