<svg xmlns="http://www.w3.org/2000/svg" xmlns:xlink="http://www.w3.org/1999/xlink" version="1.1" id="layer" x="0px" y="0px" style="enable-background:new 0 0 652 652;" xml:space="preserve" viewBox="20.4 249.1 600.1 143.8">
<style type="text/css">
	.st0{fill:#0082D7;}
	.st1{fill:#FFFFFF;}
</style>
<g id="Symbols">
	<g id="bittrex-logo-mark">
		<path id="Logo-Mark" class="st0" d="M49.5,249.1v22.3h14v-8.3h84.1v84.2H63.6v-45.2h-14v59.3h112.2V249.1H49.5z M20.4,280.7v112.2    h112.2v-23.2h-14v9.2H34.4v-84.2h84.1V339h14v-58.4H20.4z"/>
	</g>
</g>
<path d="M234,322.5h-17.5V295h18.2c9.6,0,15.7,5.6,15.7,14.1C250.3,317.4,244.3,322.5,234,322.5z M216.5,261.7h15.3  c9.6,0,15,4.7,15,12.3c0,8.8-5.6,14.3-14.1,14.3h-16.3L216.5,261.7C216.4,261.7,216.5,261.7,216.5,261.7z M243.2,290.9  c8-2.4,12.3-8.7,12.3-17.6c0-11.8-8.8-18.8-23.7-18.8h-23.7v74.9H234c15.7,0,25-7.6,25-20.5C259,300.1,253.1,293.3,243.2,290.9  L243.2,290.9z"/>
<path d="M466.6,299.5c10-2.3,16.3-9.9,16.3-22c0-14.4-9.7-22.9-26.3-22.9h-21.6v74.9h8.4v-29h16.2l16.3,29h10l-17.1-27.8  L466.6,299.5L466.6,299.5z"/>
<path d="M544.2,295.3h-31.5v27.2h35.1v7.1h-43.5v-75h43.2v7.1h-34.8v26.8h31.5V295.3z M277.8,329.5h8.4v-75h-8.4V329.5z   M325.4,261.7h-21.1v-7.1h50.5v7.1h-21v67.8h-8.4L325.4,261.7L325.4,261.7z M366.9,261.7h21.2v67.8h8.4v-67.8h21v-7.1H367  L366.9,261.7C367,261.7,366.9,261.7,366.9,261.7z M597.4,291.3l22.3-36.6h-10.2l-16.7,29.7l-0.7,2.9l-0.7-2.9l-16.7-29.7h-10.1  l22.3,36.6L564,329.6h10.3l17.2-30.8l0.7-2.9l0.7,2.9l17.3,30.8h10.3L597.4,291.3L597.4,291.3z"/>
<path class="st1" d="M443.4,293.9h14.3c10,0,16.7-5.4,16.7-16.3c0-10-6-15.8-16.2-15.8h-14.9L443.4,293.9L443.4,293.9z"/>
<path d="M233.9,364.7h12.1v16.6c-3.8,1.2-7.7,1.8-11.6,1.8c-5,0-8.8-1.5-11.6-4.4c-2.7-3-4.1-7.1-4.1-12.5c0-5.3,1.5-9.5,4.6-12.5  c3.1-3,7.3-4.5,12.6-4.5c3.4,0,6.7,0.7,9.8,2l-1.9,4.5c-2.5-1.2-5.3-1.8-8-1.8c-3.5,0-6.3,1.1-8.4,3.3c-2,2.2-3.1,5.2-3.1,9.1  c0,4,0.9,7.1,2.8,9.2c1.8,2.1,4.5,3.1,8,3.1c1.7,0,3.6-0.2,5.6-0.7v-8.5h-6.8V364.7L233.9,364.7z M295.6,382.6v-33h5.4V378h14v4.6  C315,382.6,295.6,382.6,295.6,382.6z M391.6,366.1c0,5.4-1.3,9.5-4,12.5c-2.7,3-6.5,4.5-11.4,4.5c-5,0-8.8-1.5-11.5-4.4  c-2.7-3-4-7.2-4-12.6c0-5.4,1.3-9.6,4-12.5c2.7-2.9,6.5-4.4,11.5-4.4c4.9,0,8.7,1.5,11.4,4.4C390.3,356.5,391.6,360.7,391.6,366.1z   M366.4,366.1c0,4.1,0.8,7.1,2.5,9.3c1.6,2.1,4.1,3.1,7.3,3.1c3.2,0,5.6-1,7.2-3.1c1.6-2.1,2.5-5.2,2.5-9.3c0-4-0.8-7.1-2.4-9.2  c-1.6-2.1-4-3.1-7.2-3.1c-3.2,0-5.7,1-7.3,3.1C367.2,359,366.4,362,366.4,366.1L366.4,366.1z M440.3,349.6h9.8c4.5,0,7.8,0.7,9.8,2  c2,1.3,3,3.4,3,6.3c0,1.9-0.5,3.5-1.5,4.8c-1,1.3-2.4,2.1-4.3,2.4v0.2c2.3,0.4,4,1.3,5.1,2.6c1.1,1.3,1.6,3,1.6,5.2c0,3-1,5.3-3.1,7  c-2.1,1.7-4.9,2.5-8.6,2.5h-11.9C440.3,382.6,440.3,349.6,440.3,349.6z M445.7,363.3h5.2c2.3,0,3.9-0.3,4.9-1.1  c1-0.7,1.6-1.9,1.6-3.7c0-1.6-0.6-2.7-1.7-3.4c-1.1-0.7-2.9-1-5.3-1h-4.7V363.3L445.7,363.3z M445.7,367.6v10.5h5.7  c2.3,0,4-0.4,5.1-1.3c1.2-0.9,1.7-2.2,1.7-4.1c0-1.7-0.6-3-1.8-3.8c-1.2-0.8-3-1.2-5.3-1.2C451.1,367.6,445.7,367.6,445.7,367.6z   M532.9,382.6l-3.3-9.2H517l-3.2,9.2H508l12.3-33.1h5.9l12.3,33.1C538.6,382.6,532.9,382.6,532.9,382.6z M528.2,368.8l-3.1-9  c-0.7-1.9-1.3-3.8-1.8-5.7c-0.5,2.1-1.1,4.1-1.8,6.1l-3,8.6H528.2L528.2,368.8z M584.6,382.6v-33h5.4V378h14v4.6  C603.9,382.6,584.6,382.6,584.6,382.6z"/>
</svg>