<svg width="30" height="30" viewBox="0 0 30 30" fill="none" xmlns="http://www.w3.org/2000/svg">
<path d="M30 2.63672C30 1.18049 28.8195 0 27.3633 0H2.63672C1.18049 0 0 1.18049 0 2.63672V7.91016C0 8.39555 0.393516 8.78906 0.878906 8.78906H29.1211C29.6065 8.78906 30 8.39555 30 7.91016V2.63672Z" fill="#4B4B4B"/>
<path d="M10.8984 4.83398H9.72656C9.24117 4.83398 8.84766 4.44047 8.84766 3.95508C8.84766 3.46969 9.24117 3.07617 9.72656 3.07617H10.8984C11.3838 3.07617 11.7773 3.46969 11.7773 3.95508C11.7773 4.44047 11.3838 4.83398 10.8984 4.83398Z" fill="#FFC862"/>
<path d="M15.5859 4.83398H14.4141C13.9287 4.83398 13.5352 4.44047 13.5352 3.95508C13.5352 3.46969 13.9287 3.07617 14.4141 3.07617H15.5859C16.0713 3.07617 16.4648 3.46969 16.4648 3.95508C16.4648 4.44047 16.0713 4.83398 15.5859 4.83398Z" fill="#4EBBB2"/>
<path d="M20.2734 4.83398H19.1016C18.6162 4.83398 18.2227 4.44047 18.2227 3.95508C18.2227 3.46969 18.6162 3.07617 19.1016 3.07617H20.2734C20.7588 3.07617 21.1523 3.46969 21.1523 3.95508C21.1523 4.44047 20.7588 4.83398 20.2734 4.83398Z" fill="#FF95A0"/>
<path d="M0 7.91016V27.3633C0 28.8172 1.18283 30 2.63672 30H27.3633C28.8172 30 30 28.8172 30 27.3633V7.91016H0Z" fill="#4EBBB2"/>
<path d="M10.1416 22.0901C9.4983 22.0901 9.46039 22.0836 9.41861 22.0765C9.1373 22.0283 8.93164 21.7844 8.93164 21.499V15.6445C8.93164 15.3209 9.19402 15.0586 9.51758 15.0586C9.84113 15.0586 10.1035 15.3209 10.1035 15.6445V20.918C10.5004 20.9179 11.0531 20.9159 11.5661 20.913H11.5695C11.8916 20.913 12.1535 21.1732 12.1554 21.4957C12.1571 21.8193 11.8963 22.083 11.5727 22.0849C10.9073 22.0886 10.4533 22.0901 10.1416 22.0901Z" fill="#E8F0FF"/>
<path d="M6.84486 18.1546C7.08891 17.8309 7.23381 17.4285 7.23381 16.9928C7.23381 15.9263 6.36609 15.0586 5.29963 15.0586H3.59766C3.2741 15.0586 3.01172 15.3209 3.01172 15.6445V21.5039C3.01172 21.6598 3.07383 21.8092 3.18422 21.9192C3.29408 22.0285 3.44273 22.0898 3.59766 22.0898H3.60023C3.61594 22.0898 5.17119 22.0829 5.59688 22.0829C6.78961 22.0829 7.75998 21.1125 7.75998 19.9198C7.75998 19.1916 7.39793 18.5469 6.84486 18.1546ZM5.29963 16.2305C5.71998 16.2305 6.06193 16.5724 6.06193 16.9928C6.06193 17.4131 5.71998 17.7551 5.29963 17.7551C5.1743 17.7551 4.18354 17.7567 4.18354 17.7567V16.2305H5.29963ZM5.59688 20.911C5.33994 20.911 4.67672 20.9135 4.18359 20.9154V18.9305C4.34227 18.9298 5.59688 18.9286 5.59688 18.9286C6.14344 18.9286 6.58811 19.3733 6.58811 19.9198C6.58811 20.4664 6.14344 20.911 5.59688 20.911Z" fill="#E8F0FF"/>
<path d="M23.874 22.0898C21.9355 22.0898 20.3584 20.5127 20.3584 18.5742C20.3584 16.6357 21.9355 15.0586 23.874 15.0586C24.5784 15.0586 25.2582 15.2663 25.84 15.6593C26.1081 15.8405 26.1787 16.2047 25.9975 16.4728C25.8164 16.741 25.452 16.8114 25.184 16.6304C24.7967 16.3688 24.3437 16.2304 23.874 16.2304C22.5817 16.2304 21.5303 17.2818 21.5303 18.5742C21.5303 19.8665 22.5817 20.9179 23.874 20.9179C25.0532 20.9179 25.6068 20.0645 25.7665 19.1601H24.6502C24.3267 19.1601 24.0643 18.8978 24.0643 18.5742C24.0643 18.2505 24.3267 17.9882 24.6502 17.9882H26.403C26.7266 17.9882 26.989 18.2505 26.989 18.5742C26.989 20.6442 25.7081 22.0898 23.874 22.0898Z" fill="#E8F0FF"/>
<path d="M15.6709 22.0898C13.7324 22.0898 12.1553 20.5127 12.1553 18.5742C12.1553 16.6357 13.7324 15.0586 15.6709 15.0586C17.6094 15.0586 19.1865 16.6357 19.1865 18.5742C19.1865 20.5127 17.6094 22.0898 15.6709 22.0898ZM15.6709 16.2305C14.3786 16.2305 13.3271 17.2819 13.3271 18.5742C13.3271 19.8666 14.3786 20.918 15.6709 20.918C16.9632 20.918 18.0146 19.8666 18.0146 18.5742C18.0146 17.2819 16.9632 16.2305 15.6709 16.2305Z" fill="#E8F0FF"/>
</svg>
