<svg width="38" height="39" viewBox="0 0 38 39" fill="none" xmlns="http://www.w3.org/2000/svg">
<path d="M30.7143 6.45703H7.28569C6.63872 6.45703 6.11426 6.98789 6.11426 7.64275V31.357C6.11426 32.0119 6.63872 32.5427 7.28569 32.5427H30.7143C31.3612 32.5427 31.8857 32.0119 31.8857 31.357V7.64275C31.8857 6.98789 31.3612 6.45703 30.7143 6.45703Z" stroke="#B5A9EF" stroke-width="2" stroke-linecap="round" stroke-linejoin="round"/>
<path d="M26.0288 4.08569V8.82855" stroke="#B5A9EF" stroke-width="2" stroke-linecap="round" stroke-linejoin="round"/>
<path d="M11.9717 4.08569V8.82855" stroke="#B5A9EF" stroke-width="2" stroke-linecap="round" stroke-linejoin="round"/>
<path d="M6.11426 13.5715H31.8857" stroke="#B5A9EF" stroke-width="2" stroke-linecap="round" stroke-linejoin="round"/>
<path d="M13.7285 19.4995H17.8285L15.4857 22.4638C15.8709 22.4638 16.2502 22.5599 16.5899 22.7437C16.9297 22.9275 17.2194 23.1933 17.4335 23.5174C17.6475 23.8416 17.7793 24.2142 17.8172 24.6022C17.855 24.9903 17.7978 25.3818 17.6505 25.7421C17.5031 26.1024 17.2703 26.4203 16.9726 26.6678C16.675 26.9153 16.3216 27.0846 15.9438 27.1609C15.566 27.2371 15.1755 27.2179 14.8068 27.1049C14.4381 26.9919 14.1026 26.7887 13.83 26.5131" stroke="#B5A9EF" stroke-width="2" stroke-linecap="round" stroke-linejoin="round"/>
<path d="M21.3433 21.2781L23.6861 19.4995V27.2067" stroke="#B5A9EF" stroke-width="2" stroke-linecap="round" stroke-linejoin="round"/>
</svg>
