<svg width="30" height="31" viewBox="0 0 30 31" fill="none" xmlns="http://www.w3.org/2000/svg">
<path d="M15.3933 9.97826C16.9047 9.97826 18.1299 8.75164 18.1299 7.23854C18.1299 5.72543 16.9047 4.49881 15.3933 4.49881C13.882 4.49881 12.6567 5.72543 12.6567 7.23854C12.6567 8.75164 13.882 9.97826 15.3933 9.97826Z" fill="#4EBBB2"/>
<path d="M13.2042 16.5879L11.0149 19.8755L8.92828 22.1358L7.6626 23.5399H10.4676L13.2042 20.9714L15.9408 17.1358L13.2042 16.5879Z" fill="#4EBBB2"/>
<path d="M22.5087 12.1701V9.97827H13.7516L8.82568 14.3618L9.92032 16.0057L12.0549 14.3947C11.6206 15.5244 12.1834 16.7927 13.3119 17.2274C13.5004 17.3001 13.6981 17.3462 13.8993 17.3646L17.0355 17.6495V22.855L19.7721 19.807V16.3838C19.7795 15.8427 19.3912 15.3771 18.8581 15.2879L16.4882 14.9098L17.0355 12.1701H22.5087Z" fill="#4EBBB2"/>
<path d="M22.5083 0.115234V5.59469H24.5546C26.0677 5.59469 27.2943 4.36807 27.2943 2.85496C27.2943 1.34185 26.0677 0.115234 24.5546 0.115234H22.5083Z" fill="#FFC862"/>
<path d="M21.9614 0.115234H23.0561V16.0056H21.9614V0.115234Z" fill="#FFC862"/>
<path d="M0 30.1152V29.5673L7.66249 27.9234V23.5399H16.4196L21.3455 18.0604H30V30.1152H0Z" fill="#5A82CA"/>
</svg>
