<svg xmlns="http://www.w3.org/2000/svg" fill="none" viewBox="5.4 60.24 151.03 43.23">
<path d="M44.6719 60.2373H51.6195V103.468H44.6719V60.2373Z" fill="#17313B"/>
<path d="M75.7847 89.7684C75.7847 96.4661 70.3475 97.075 68.5351 97.075C64.3061 97.075 63.702 93.1172 63.702 90.9861V74.2417H56.7544V90.6817C56.7544 94.6395 57.9627 98.2928 60.3792 100.424C62.4937 102.555 65.2123 103.468 68.5351 103.468C70.9516 103.468 73.9723 102.859 75.7847 101.033V103.468H82.7323V74.2417H75.7847V89.7684Z" fill="#17313B"/>
<path d="M96.3254 63.5862H89.3778V74.2417H84.2427V80.9395H89.3778V103.468H96.3254V80.9395H101.461V74.2417H96.3254V63.5862Z" fill="#17313B"/>
<path d="M123.21 94.6395C121.699 95.8572 119.585 96.7706 117.47 96.7706C112.637 96.7706 109.314 93.1172 109.314 88.2461C109.314 83.375 112.637 80.0261 117.47 80.0261C119.585 80.0261 121.699 80.635 123.21 82.1572L124.116 83.0706L128.949 78.5039L127.741 77.5906C125.022 75.155 121.397 73.6328 117.47 73.6328C109.012 73.6328 102.669 80.0261 102.669 88.5506C102.669 97.075 109.012 103.468 117.47 103.468C121.397 103.468 125.022 101.946 127.741 99.5106L128.949 98.5972L124.116 93.7261L123.21 94.6395Z" fill="#17313B"/>
<path d="M153.416 76.6773C151.302 74.5462 149.187 73.6329 145.865 73.6329C143.448 73.6329 141.031 74.2417 139.219 76.0684V60.2373H132.271V103.468H139.219V87.3329C139.219 80.6351 143.75 80.0262 145.563 80.0262C149.791 80.0262 149.489 83.984 149.489 86.1151V103.164H156.437V86.4195C156.437 82.4617 155.531 78.8084 153.416 76.6773Z" fill="#17313B"/>
<path d="M117.168 93.4219C119.837 93.4219 122.001 91.241 122.001 88.5508C122.001 85.8606 119.837 83.6797 117.168 83.6797C114.499 83.6797 112.335 85.8606 112.335 88.5508C112.335 91.241 114.499 93.4219 117.168 93.4219Z" fill="#EF4335"/>
<path d="M35.0056 92.8129C32.589 95.2484 28.9642 96.7707 25.0373 96.7707C17.4856 96.7707 12.0483 90.6818 12.0483 82.4618C12.0483 74.2418 17.4856 68.1529 25.3394 68.1529C28.9642 68.1529 32.589 69.6751 35.3076 72.4151L36.2138 73.3285L40.7449 68.7618L39.8387 67.8485C35.9118 63.8907 30.7766 61.7596 25.3394 61.7596C13.8608 61.4551 5.40283 70.5885 5.40283 82.4618C5.40283 94.3351 13.8608 103.468 25.0373 103.468C30.4745 103.468 35.9118 101.337 39.5366 97.3796L40.4428 96.4662L35.9118 91.8996L35.0056 92.8129Z" fill="#17313B"/>
</svg>