<svg width="45" height="47" viewBox="0 0 45 47" fill="none" xmlns="http://www.w3.org/2000/svg">
<path d="M13.2714 3.11792H6.59179C5.86309 3.11792 5.27343 3.72216 5.27343 4.46889C5.27343 5.21562 5.86309 5.81986 6.59179 5.81986H13.2714C14.0002 5.81986 14.5899 5.21562 14.5899 4.46889C14.5899 3.72216 14.0002 3.11792 13.2714 3.11792ZM26.4551 3.11792H18.5449C17.8162 3.11792 17.2265 3.72216 17.2265 4.46889C17.2265 5.21562 17.8162 5.81986 18.5449 5.81986H26.4551C27.1838 5.81986 27.7735 5.21562 27.7735 4.46889C27.7735 3.72216 27.1838 3.11792 26.4551 3.11792ZM31.7285 5.81986H38.4082C39.1369 5.81986 39.7265 5.21562 39.7265 4.46889C39.7265 3.72216 39.1369 3.11792 38.4082 3.11792H31.7285C30.9998 3.11792 30.4101 3.72216 30.4101 4.46889C30.4101 5.21562 30.9998 5.81986 31.7285 5.81986ZM13.2714 41.1252H6.59179C5.86309 41.1252 5.27343 41.7295 5.27343 42.4763C5.27343 43.223 5.86309 43.8272 6.59179 43.8272H13.2714C14.0002 43.8272 14.5899 43.223 14.5899 42.4763C14.5899 41.7295 14.0002 41.1252 13.2714 41.1252ZM26.4551 41.1252H18.5449C17.8162 41.1252 17.2265 41.7295 17.2265 42.4763C17.2265 43.223 17.8162 43.8272 18.5449 43.8272H26.4551C27.1838 43.8272 27.7735 43.223 27.7735 42.4763C27.7735 41.7295 27.1838 41.1252 26.4551 41.1252ZM38.4082 41.1252H31.7285C30.9998 41.1252 30.4101 41.7295 30.4101 42.4763C30.4101 43.223 30.9998 43.8272 31.7285 43.8272H38.4082C39.1369 43.8272 39.7265 43.223 39.7265 42.4763C39.7265 41.7295 39.1369 41.1252 38.4082 41.1252ZM5.27343 32.9294C5.27343 32.1827 4.68378 31.5784 3.95507 31.5784C3.22637 31.5784 2.63672 32.1827 2.63672 32.9294V39.7743C2.63672 40.5211 3.22637 41.1252 3.95507 41.1252C4.68378 41.1252 5.27343 40.5211 5.27343 39.7743V32.9294ZM3.95507 28.8764C4.68378 28.8764 5.27343 28.2723 5.27343 27.5255V19.4197C5.27343 18.6729 4.68378 18.0686 3.95507 18.0686C3.22637 18.0686 2.63672 18.6729 2.63672 19.4197V27.5255C2.63672 28.2723 3.22637 28.8764 3.95507 28.8764ZM3.95507 15.3668C4.68378 15.3668 5.27343 14.7625 5.27343 14.0157V7.17084C5.27343 6.42411 4.68378 5.81986 3.95507 5.81986C3.22637 5.81986 2.63672 6.42411 2.63672 7.17084V14.0157C2.63672 14.7625 3.22637 15.3668 3.95507 15.3668ZM41.0449 31.5784C40.3162 31.5784 39.7265 32.1827 39.7265 32.9294V39.7743C39.7265 40.5211 40.3162 41.1252 41.0449 41.1252C41.7736 41.1252 42.3633 40.5211 42.3633 39.7743V32.9294C42.3633 32.1827 41.7736 31.5784 41.0449 31.5784ZM41.0449 18.0686C40.3162 18.0686 39.7265 18.6729 39.7265 19.4197V27.5255C39.7265 28.2723 40.3162 28.8764 41.0449 28.8764C41.7736 28.8764 42.3633 28.2723 42.3633 27.5255V19.4197C42.3633 18.6729 41.7736 18.0686 41.0449 18.0686ZM41.0449 5.81986C40.3162 5.81986 39.7265 6.42411 39.7265 7.17084V14.0157C39.7265 14.7625 40.3162 15.3668 41.0449 15.3668C41.7736 15.3668 42.3633 14.7625 42.3633 14.0157V7.17084C42.3633 6.42411 41.7736 5.81986 41.0449 5.81986Z" fill="#9A87E9"/>
<path d="M3.95508 0.416016C1.77416 0.416016 0 2.23406 0 4.46894C0 6.70381 1.77416 8.52185 3.95508 8.52185C6.13599 8.52185 7.91015 6.70381 7.91015 4.46894C7.91015 2.23406 6.13599 0.416016 3.95508 0.416016ZM41.0449 8.52185C43.2259 8.52185 45 6.70381 45 4.46894C45 2.23406 43.2259 0.416016 41.0449 0.416016C38.864 0.416016 37.0899 2.23406 37.0899 4.46894C37.0899 6.70381 38.864 8.52185 41.0449 8.52185ZM41.0449 38.4234C38.864 38.4234 37.0899 40.2414 37.0899 42.4763C37.0899 44.7112 38.864 46.5292 41.0449 46.5292C43.2259 46.5292 45 44.7112 45 42.4763C45 40.2414 43.2259 38.4234 41.0449 38.4234ZM3.95508 38.4234C1.77416 38.4234 0 40.2414 0 42.4763C0 44.7112 1.77416 46.5292 3.95508 46.5292C6.13599 46.5292 7.91015 44.7112 7.91015 42.4763C7.91015 40.2414 6.13599 38.4234 3.95508 38.4234Z" fill="#735DCC"/>
<path d="M35.7717 33.0196C35.4287 33.0196 35.0914 32.8823 34.8393 32.6239L27.8613 25.4733L20.8834 32.624C20.3686 33.1516 19.5338 33.1516 19.0189 32.624L14.6777 28.1753L10.1607 32.8041C9.78361 33.1905 9.21644 33.306 8.72395 33.0969C8.23131 32.8877 7.91016 32.3952 7.91016 31.8488V9.87298C7.91016 9.12684 8.50043 8.52197 9.22855 8.52197H35.7715C36.4996 8.52197 37.0899 9.12684 37.0899 9.87298V31.6687C37.0899 32.2151 36.7687 32.7076 36.276 32.9167C36.1129 32.986 35.9417 33.0196 35.7717 33.0196Z" fill="#735DCC"/>
<path d="M36.7036 30.7131L28.7935 22.6073C28.2787 22.0796 27.4439 22.0796 26.929 22.6073L19.9512 29.7579L15.6099 25.3092C15.0952 24.7816 14.2603 24.7816 13.7455 25.3092L8.29626 30.8933C8.04902 31.1466 7.91016 31.4903 7.91016 31.8485V37.0723C7.91016 37.8184 8.50043 38.4233 9.22855 38.4233H35.7715C36.4996 38.4233 37.0899 37.8184 37.0899 37.0723V31.6684C37.0899 31.3102 36.951 30.9665 36.7036 30.7131ZM19.9515 24.9132C22.1324 24.9132 23.9066 23.0951 23.9066 20.8603C23.9066 18.6255 22.1324 16.8074 19.9515 16.8074C17.7707 16.8074 15.9965 18.6255 15.9965 20.8603C15.9965 23.0951 17.7706 24.9132 19.9515 24.9132Z" fill="#9A87E9"/>
</svg>
