<svg width="37" height="43" viewBox="0 0 37 43" fill="none" xmlns="http://www.w3.org/2000/svg">
<g clip-path="url(#clip0)">
<path d="M11.4356 15.0679H11.4913L13.8765 7.57088L11.4913 0.15625H10.2033C6.10069 0.15625 2.64213 3.17153 1.97427 7.34844C1.42567 10.7839 0.757812 16.0318 0.757812 21.2468C0.757812 26.4617 1.42567 31.7096 1.97427 35.1451C2.64213 39.322 6.10069 42.3373 10.2033 42.3373H11.4913L13.8765 34.9226L11.4913 27.4256C10.9904 27.4256 10.569 27.0302 10.5292 26.5111C10.3702 24.6657 10.3066 22.9027 10.3066 21.2468C10.3066 19.5908 10.3782 17.8113 10.5372 15.9247C10.569 15.4386 10.9665 15.0679 11.4356 15.0679ZM31.2965 6.90356C30.8274 6.41749 30.0721 6.41749 29.6109 6.90356C29.1498 7.38963 29.1419 8.17229 29.6109 8.65012C35.6535 14.9114 35.6535 25.1024 29.6109 31.3718C29.1419 31.8579 29.1419 32.6406 29.6109 33.1184C30.08 33.6045 30.8354 33.6045 31.2965 33.1184C38.2693 25.8933 38.2693 14.1287 31.2965 6.90356ZM27.9254 10.3967C27.4563 9.91061 26.701 9.91061 26.2398 10.3967C25.7708 10.8827 25.7708 11.6654 26.2398 12.1432C28.2673 14.244 29.3804 17.0369 29.3804 20.011C29.3804 22.9851 28.2673 25.7779 26.2398 27.8787C25.7708 28.3648 25.7708 29.1475 26.2398 29.6253C26.7089 30.1114 27.4643 30.1114 27.9254 29.6253C30.3981 27.0631 31.7656 23.6442 31.7656 20.011C31.7656 16.3778 30.3981 12.9588 27.9254 10.3967ZM24.5463 13.898C24.0773 13.412 23.3219 13.412 22.8608 13.898C22.3997 14.3841 22.3917 15.1668 22.8608 15.6446C23.9818 16.8062 24.602 18.3633 24.602 20.011C24.602 21.6587 23.9818 23.2158 22.8608 24.3774C22.3917 24.8634 22.3917 25.6461 22.8608 26.1239C23.3299 26.61 24.0852 26.61 24.5463 26.1239C26.1206 24.4927 26.9872 22.3178 26.9872 20.011C26.9872 17.7042 26.1206 15.5293 24.5463 13.898Z" fill="#4EBBB2"/>
<path d="M16.2616 27.4256H11.4912V42.3373H16.2616C16.9295 42.3373 17.4542 41.7935 17.4542 41.1015V28.6614C17.4542 27.9694 16.9295 27.4256 16.2616 27.4256ZM16.2616 0.15625H11.4912V15.0679H16.2616C16.9295 15.0679 17.4542 14.5242 17.4542 13.8321V1.39202C17.4542 0.69999 16.9295 0.15625 16.2616 0.15625Z" fill="#DCF1F0"/>
</g>
<defs>
<clipPath id="clip0">
<rect width="35.7703" height="42.181" fill="white" transform="translate(0.757812 0.15625)"/>
</clipPath>
</defs>
</svg>
