<svg width="24" height="24" viewBox="0 0 24 24" fill="none" xmlns="http://www.w3.org/2000/svg">
<path d="M17.3729 6.94403L16.6529 6.60003L16.9969 5.88001L17.7169 6.22402L17.3729 6.94403ZM15.9288 6.25602L15.2008 5.91201L15.5448 5.192L16.2649 5.536L15.9288 6.25602ZM14.4848 5.56801L13.7608 5.224L14.1048 4.50398L14.8288 4.84799L14.4848 5.56801ZM13.0408 4.87999L12.3168 4.53598L12.6608 3.81597L13.3848 4.15998L13.0408 4.87999ZM11.6008 4.19198L10.8767 3.84797L11.2007 3.12796L11.9248 3.47196L11.6008 4.19198ZM10.1567 3.50396L9.42871 3.15996L9.77272 2.43994L10.4967 2.79995L10.1567 3.50396Z" fill="#4B4B4B"/>
<path d="M9.79307 21.5524L9.39307 20.8484L10.0931 20.4484L10.4931 21.1484L9.79307 21.5524ZM11.2011 20.8004L10.8011 20.0804L11.5051 19.6804L11.9051 20.3804L11.2011 20.8004ZM12.5971 20.0004L12.1971 19.3004L12.8971 18.9003L13.2971 19.6044L12.5971 20.0004ZM14.0012 19.2364L13.6012 18.5363L14.3052 18.1363L14.7052 18.8363L14.0012 19.2364ZM15.4012 18.4683L15.0012 17.7643L15.7012 17.3643L16.1012 18.0643L15.4012 18.4683ZM16.8012 17.6963L16.4012 16.9963L17.1012 16.5963L17.5012 17.2963L16.8012 17.6963Z" fill="#4B4B4B"/>
<path d="M12.0054 13.1123L12.3493 12.39L13.0716 12.7339L12.7277 13.4562L12.0054 13.1123Z" fill="#4B4B4B"/>
<path d="M6.22803 10.36L6.57193 9.63766L7.29425 9.98157L6.95034 10.7039L6.22803 10.36Z" fill="#4B4B4B"/>
<path d="M7.67383 11.0482L8.01773 10.3259L8.74005 10.6698L8.39614 11.3921L7.67383 11.0482Z" fill="#4B4B4B"/>
<path d="M13.4517 13.8006L13.7956 13.0782L14.5179 13.4222L14.174 14.1445L13.4517 13.8006Z" fill="#4B4B4B"/>
<path d="M13.5054 10.0352L14.2063 9.64958L14.5919 10.3505L13.891 10.7362L13.5054 10.0352Z" fill="#4B4B4B"/>
<path d="M6.49609 13.8882L7.19701 13.5026L7.58267 14.2035L6.88175 14.5891L6.49609 13.8882Z" fill="#4B4B4B"/>
<path d="M9.86071 12.0403L10.1847 11.3602L9.46071 11.0162L9.1167 11.7362L9.81271 12.0683L9.3007 12.3483L9.68471 13.0483L10.3887 12.6643L10.0007 11.9643L9.86071 12.0403Z" fill="#4B4B4B"/>
<path d="M12.1069 10.8065L12.8078 10.4208L13.1935 11.1217L12.4926 11.5074L12.1069 10.8065Z" fill="#4B4B4B"/>
<path d="M7.896 13.1219L8.59706 12.7365L8.98247 13.4375L8.2814 13.823L7.896 13.1219Z" fill="#4B4B4B"/>
<path d="M11.4051 11.1922L10.705 11.5762L10.845 11.8322L10.561 12.4243L11.2851 12.7683L11.6291 12.0482L11.5651 12.0162L11.7891 11.8922L11.4051 11.1922Z" fill="#4B4B4B"/>
<path d="M9.5642 4.23209L9.5282 3.93608L8.22417 3.69608C8.16542 3.51117 8.09047 3.33182 8.00017 3.16007L8.75218 2.06804L8.57218 1.83604C8.33782 1.53893 8.06927 1.27038 7.77216 1.03602L7.54016 0.856018L6.44013 1.60003C6.26838 1.50973 6.08903 1.43478 5.90412 1.37603L5.66412 0.0720015L5.36811 0.0360008C4.99095 -0.0120003 4.60925 -0.0120003 4.23209 0.0360008L3.93608 0.0720015L3.69608 1.37603C3.51117 1.43478 3.33182 1.50973 3.16007 1.60003L2.06804 0.848018L1.83604 1.02802C1.53893 1.26238 1.27038 1.53093 1.03602 1.82804L0.856018 2.06004L1.60003 3.16007C1.50973 3.33182 1.43478 3.51117 1.37603 3.69608L0.0720015 3.93608L0.0360008 4.23209C-0.0120003 4.60925 -0.0120003 4.99095 0.0360008 5.36811L0.0720015 5.66412L1.37603 5.90412C1.43478 6.08903 1.50973 6.26838 1.60003 6.44013L0.848018 7.53216L1.02802 7.76416C1.26238 8.06127 1.53093 8.32982 1.82804 8.56418L2.06004 8.74418L3.16007 8.00017C3.33182 8.09047 3.51117 8.16542 3.69608 8.22417L3.93608 9.5282L4.23209 9.5642C4.60925 9.6122 4.99095 9.6122 5.36811 9.5642L5.66412 9.5282L5.90412 8.22417C6.08903 8.16542 6.26838 8.09047 6.44013 8.00017L7.53216 8.75218L7.76416 8.57218C8.06127 8.33782 8.32982 8.06927 8.56418 7.77216L8.74418 7.54016L8.00017 6.44013C8.09047 6.26838 8.16542 6.08903 8.22417 5.90412L9.5282 5.66412L9.5642 5.36811C9.6122 4.99095 9.6122 4.60925 9.5642 4.23209ZM6.00013 4.8001C6.00013 5.46286 5.46286 6.00013 4.8001 6.00013C4.13734 6.00013 3.60008 5.46286 3.60008 4.8001C3.60008 4.13734 4.13734 3.60008 4.8001 3.60008C5.46286 3.60008 6.00013 4.13734 6.00013 4.8001Z" fill="#FF95A0"/>
<path d="M23.9641 11.4324L23.9281 11.1364L22.6241 10.8964C22.5653 10.7115 22.4904 10.5322 22.4001 10.3604L23.1521 9.26838L22.9721 9.03637C22.7377 8.73926 22.4692 8.47071 22.1721 8.23635L21.9401 8.05635L20.84 8.80037C20.6683 8.71006 20.4889 8.63511 20.304 8.57636L20.064 7.27233L19.768 7.23633C19.3909 7.18833 19.0091 7.18833 18.632 7.23633L18.336 7.27233L18.096 8.57636C17.9111 8.63511 17.7317 8.71006 17.56 8.80037L16.4679 8.04835L16.2359 8.22835C15.9388 8.46271 15.6703 8.73126 15.4359 9.02837L15.2559 9.26038L15.9999 10.3604C15.9096 10.5322 15.8347 10.7115 15.7759 10.8964L14.4719 11.1364L14.4359 11.4324C14.3879 11.8096 14.3879 12.1913 14.4359 12.5684L14.4719 12.8645L15.7759 13.1045C15.8347 13.2894 15.9096 13.4687 15.9999 13.6405L15.2479 14.7325L15.4279 14.9645C15.6623 15.2616 15.9308 15.5302 16.2279 15.7645L16.4599 15.9445L17.56 15.2005C17.7317 15.2908 17.9111 15.3658 18.096 15.4245L18.336 16.7285L18.632 16.7645C19.0091 16.8125 19.3909 16.8125 19.768 16.7645L20.064 16.7285L20.304 15.4245C20.4889 15.3658 20.6683 15.2908 20.84 15.2005L21.9321 15.9525L22.1641 15.7725C22.4612 15.5382 22.7297 15.2696 22.9641 14.9725L23.1441 14.7405L22.4001 13.6405C22.4904 13.4687 22.5653 13.2894 22.6241 13.1045L23.9281 12.8645L23.9641 12.5684C24.0121 12.1913 24.0121 11.8096 23.9641 11.4324ZM20.4 12.0004C20.4 12.6632 19.8628 13.2005 19.2 13.2005C18.5372 13.2005 18 12.6632 18 12.0004C18 11.3377 18.5372 10.8004 19.2 10.8004C19.8628 10.8004 20.4 11.3377 20.4 12.0004Z" fill="#FFC862"/>
<path d="M9.5642 18.6324L9.5282 18.3364L8.22417 18.0963C8.16542 17.9114 8.09047 17.7321 8.00017 17.5603L8.75218 16.4683L8.57218 16.2363C8.33782 15.9392 8.06927 15.6706 7.77216 15.4363L7.54016 15.2563L6.44013 16.0003C6.26838 15.91 6.08903 15.835 5.90412 15.7763L5.66412 14.4723L5.36811 14.4363C4.99095 14.3883 4.60925 14.3883 4.23209 14.4363L3.93608 14.4723L3.69608 15.7763C3.51117 15.835 3.33182 15.91 3.16007 16.0003L2.06804 15.2483L1.83604 15.4283C1.53893 15.6626 1.27038 15.9312 1.03602 16.2283L0.856018 16.4603L1.60003 17.5603C1.50973 17.7321 1.43478 17.9114 1.37603 18.0963L0.0720015 18.3364L0.0360008 18.6324C-0.0120003 19.0095 -0.0120003 19.3912 0.0360008 19.7684L0.0720015 20.0644L1.37603 20.3044C1.43478 20.4893 1.50973 20.6686 1.60003 20.8404L0.848018 21.9324L1.02802 22.1644C1.26238 22.4615 1.53093 22.7301 1.82804 22.9644L2.06004 23.1445L3.16007 22.4004C3.33182 22.4907 3.51117 22.5657 3.69608 22.6244L3.93608 23.9285L4.23209 23.9645C4.60925 24.0125 4.99095 24.0125 5.36811 23.9645L5.66412 23.9285L5.90412 22.6244C6.08903 22.5657 6.26838 22.4907 6.44013 22.4004L7.53216 23.1525L7.76416 22.9724C8.06127 22.7381 8.32982 22.4695 8.56418 22.1724L8.74418 21.9404L8.00017 20.8404C8.09047 20.6686 8.16542 20.4893 8.22417 20.3044L9.5282 20.0644L9.5642 19.7684C9.6122 19.3912 9.6122 19.0095 9.5642 18.6324ZM6.00013 19.2004C6.00013 19.8631 5.46286 20.4004 4.8001 20.4004C4.13734 20.4004 3.60008 19.8631 3.60008 19.2004C3.60008 18.5376 4.13734 18.0003 4.8001 18.0003C5.46286 18.0003 6.00013 18.5376 6.00013 19.2004Z" fill="#4EBBB2"/>
</svg>
