<?xml version="1.0" encoding="UTF-8"?> <svg xmlns="http://www.w3.org/2000/svg" width="90" height="30" viewBox="0 0 90 30" fill="none"><g clip-path="url(#clip0)"><path d="M38.3434 15.3847C38.3434 19.5488 35.0594 22.6173 31.0293 22.6173C26.9992 22.6173 23.7153 19.5488 23.7153 15.3847C23.7153 11.1912 26.9992 8.1521 31.0293 8.1521C35.0594 8.1521 38.3434 11.1912 38.3434 15.3847ZM35.1416 15.3847C35.1416 12.7825 33.2383 11.0021 31.0293 11.0021C28.8203 11.0021 26.9171 12.7825 26.9171 15.3847C26.9171 17.9608 28.8203 19.7673 31.0293 19.7673C33.2383 19.7673 35.1416 17.9575 35.1416 15.3847Z" fill="#EA4335"></path><path d="M54.1219 15.3847C54.1219 19.5488 50.838 22.6173 46.8079 22.6173C42.7778 22.6173 39.4939 19.5488 39.4939 15.3847C39.4939 11.1945 42.7778 8.1521 46.8079 8.1521C50.838 8.1521 54.1219 11.1912 54.1219 15.3847ZM50.9202 15.3847C50.9202 12.7825 49.0169 11.0021 46.8079 11.0021C44.5989 11.0021 42.6956 12.7825 42.6956 15.3847C42.6956 17.9608 44.5989 19.7673 46.8079 19.7673C49.0169 19.7673 50.9202 17.9575 50.9202 15.3847Z" fill="#FBBC05"></path><path d="M69.243 8.58906V21.5738C69.243 26.9151 66.0676 29.0967 62.3136 29.0967C58.7799 29.0967 56.6531 26.7521 55.851 24.8347L58.6385 23.6836C59.1349 24.8608 60.3512 26.2499 62.3103 26.2499C64.7133 26.2499 66.2024 24.7793 66.2024 22.0108V20.9706H66.0906C65.374 21.8478 63.9934 22.6141 62.2512 22.6141C58.6057 22.6141 55.2659 19.4641 55.2659 15.4108C55.2659 11.3282 58.6057 8.1521 62.2512 8.1521C63.9901 8.1521 65.3707 8.9184 66.0906 9.76949H66.2024V8.59232H69.243V8.58906ZM66.4292 15.4108C66.4292 12.8641 64.7166 11.0021 62.5372 11.0021C60.3282 11.0021 58.4775 12.8641 58.4775 15.4108C58.4775 17.9314 60.3282 19.7673 62.5372 19.7673C64.7166 19.7673 66.4292 17.9314 66.4292 15.4108Z" fill="#4285F4"></path><path d="M74.2561 0.978271V22.1739H71.1333V0.978271H74.2561Z" fill="#34A853"></path><path d="M86.4253 17.7652L88.9104 19.4087C88.1084 20.5859 86.1755 22.6141 82.8357 22.6141C78.6938 22.6141 75.6006 19.4381 75.6006 15.3815C75.6006 11.0804 78.7201 8.14893 82.4774 8.14893C86.261 8.14893 88.1117 11.1359 88.7165 12.75L89.0485 13.5718L79.302 17.5761C80.0482 19.0272 81.2085 19.7674 82.8357 19.7674C84.4662 19.7674 85.597 18.9718 86.4253 17.7652ZM78.776 15.1631L85.2913 12.4794C84.9329 11.5761 83.8547 10.9468 82.5859 10.9468C80.9587 10.9468 78.6938 12.3718 78.776 15.1631Z" fill="#EA4335"></path><path d="M11.8948 13.5033V10.4348H22.3185C22.4204 10.9696 22.473 11.6022 22.473 12.287C22.473 14.5892 21.8386 17.4359 19.7939 19.4642C17.8052 21.5185 15.2642 22.6142 11.8981 22.6142C5.65896 22.6142 0.412598 17.5729 0.412598 11.3838C0.412598 5.19462 5.65896 0.15332 11.8981 0.15332C15.3496 0.15332 17.8084 1.4968 19.6559 3.24789L17.4732 5.4131C16.1484 4.18049 14.3536 3.2218 11.8948 3.2218C7.33872 3.2218 3.7754 6.86419 3.7754 11.3838C3.7754 15.9033 7.33872 19.5457 11.8948 19.5457C14.85 19.5457 16.533 18.3685 17.6112 17.299C18.4856 16.4316 19.0609 15.1925 19.2877 13.5001L11.8948 13.5033Z" fill="#4285F4"></path></g><defs><clipPath id="clip0"><rect width="89.4118" height="30" fill="white" transform="translate(0.294189)"></rect></clipPath></defs></svg> 