<svg width="35" height="35" viewBox="0 0 35 35" fill="none" xmlns="http://www.w3.org/2000/svg">
<path d="M30.2039 17.5001H26.0325C25.4793 17.5001 24.9488 17.7199 24.5577 18.111C24.1665 18.5022 23.9468 19.0327 23.9468 19.5858V24.8001C23.9468 25.3533 24.1665 25.8838 24.5577 26.275C24.9488 26.6661 25.4793 26.8858 26.0325 26.8858H28.1182C28.6714 26.8858 29.2019 26.6661 29.593 26.275C29.9842 25.8838 30.2039 25.3533 30.2039 24.8001V17.5001ZM30.2039 17.5001C30.2039 15.8487 29.8771 14.2137 29.2422 12.6892C28.6074 11.1647 27.6771 9.78098 26.505 8.61771C25.3329 7.45444 23.9421 6.53466 22.4128 5.91139C20.8836 5.28812 19.2461 4.97368 17.5948 4.9862C15.9434 4.97368 14.3059 5.28812 12.7767 5.91139C11.2474 6.53466 9.85668 7.45444 8.68456 8.61771C7.51243 9.78098 6.58214 11.1647 5.94729 12.6892C5.31244 14.2137 4.9856 15.8487 4.9856 17.5001V24.8001C4.9856 25.3533 5.20534 25.8838 5.59649 26.275C5.98763 26.6661 6.51814 26.8858 7.07131 26.8858H9.15702C9.71019 26.8858 10.2407 26.6661 10.6318 26.275C11.023 25.8838 11.2427 25.3533 11.2427 24.8001V19.5858C11.2427 19.0327 11.023 18.5022 10.6318 18.111C10.2407 17.7199 9.71019 17.5001 9.15702 17.5001H4.9856" stroke="#FCC669" stroke-width="2" stroke-linecap="round" stroke-linejoin="round"/>
<path d="M30.2039 24.8V27.9286C30.2039 29.035 29.7644 30.096 28.9821 30.8783C28.1998 31.6606 27.1388 32.1 26.0325 32.1H18.5427" stroke="#FCC669" stroke-width="2" stroke-linecap="round" stroke-linejoin="round"/>
</svg>
