<svg xmlns="http://www.w3.org/2000/svg" xmlns:xlink="http://www.w3.org/1999/xlink" version="1.1" id="layer" x="0px" y="0px" style="enable-background:new 0 0 652 652;" xml:space="preserve" viewBox="21 258.36 600 127.5">
<style type="text/css">
	.st0{fill:#413D45;}
	.st1{fill:#F47D31;}
</style>
<path class="st0" d="M181.4,283h10.2v28.3c4.2-6.2,9.8-9.2,16.6-9.2c9.3,0,14.6,5.1,14.6,15.3v34.7h-10.2v-32c0-7-2.6-9-7.7-9  c-3.1,0-6.2,1.9-9,5.6c-2.8,3.7-4.3,8.6-4.3,14.7v20.8h-10.2V283z"/>
<path class="st0" d="M274.3,330.4h-34.9c0,7.7,4.5,13.6,12.2,13.6c5.5,0,10.5-3.1,12.9-8.3l8.7,3.4c-5,9.7-10.7,13.9-21.6,13.9  c-16.2,0-23-13.7-23-25.4c0-11.7,6.7-25.4,23-25.4c15.7,0,22.7,12.8,22.7,23.8V330.4z M239.6,321.9h23.9c-0.9-6.2-5-10.7-11.9-10.7  C245.1,311.1,240.8,315.5,239.6,321.9z"/>
<path class="st0" d="M354,302.1c2.4,0,4.9,0.7,7.5,2s4.5,2.6,5.7,4.3V283h10.2v69.2h-10.2v-5.7c-1.9,3.2-7.4,6.5-13.4,6.5  c-14.4,0-22-9.4-22-25.4C331.9,311.9,339.6,302.1,354,302.1z M342.6,327.5c0,5,1.2,9,3.5,12c2.3,2.9,5.4,4.4,9.1,4.4  c3.7,0,6.7-1.5,9.1-4.4c2.3-3,3.5-7,3.5-12c0-5-1.2-9-3.5-11.9c-2.3-3-5.4-4.5-9.1-4.5c-3.7,0-6.7,1.5-9.1,4.5  C343.8,318.5,342.6,322.6,342.6,327.5L342.6,327.5z"/>
<path class="st0" d="M416.3,309.9l-6.4,5.7c-2.3-3-5.2-4.5-8.6-4.5c-2.7,0-4.9,1.8-4.9,4.9c0,1.1,0.5,2.2,1.3,3  c1.7,1.7,3.3,2.4,7.5,4c3.4,1.3,4.9,1.8,7.6,3.6c3.9,2.3,5.8,5.3,6.2,10.6c0.1,4.2-1.6,8.3-4.7,11.1c-3.1,3-7.2,4.5-12.4,4.5  c-9.4,0-16-6.1-19.1-13.2l8.6-4.7c2.6,6,6.2,8.9,10.8,8.9c4.4,0,6.6-2.1,6.6-6.4c0-1.7-0.7-2.8-2.5-3.9c-0.8-0.5-1.6-1-2.5-1.4  c-1.5-0.7-5.1-2-6.6-2.6c-7-2.9-10.6-7.4-10.6-13.5c-0.1-3.8,1.5-7.4,4.3-9.9c2.8-2.7,6.4-4.1,10.8-4.1  C407.7,302.1,413.1,305.1,416.3,309.9z"/>
<path class="st0" d="M448.9,352.9c-5.8,0-10.7-2.7-13.2-6.2v25.4h-10.2v-69.2h10.2v5.6c1.9-3.2,7.4-6.4,13.4-6.4  c14.4,0,22,9.4,22,25.4C471.1,343.2,463.4,352.9,448.9,352.9z M460.3,327.6c0-5-1.2-9-3.5-11.9c-2.3-3-5.4-4.5-9.1-4.5  s-6.7,1.5-9.1,4.5c-2.3,2.9-3.5,6.9-3.5,11.9s1.2,9,3.5,12c2.3,2.9,5.4,4.4,9.1,4.4c3.7,0,6.7-1.5,9.1-4.4  C459.2,336.5,460.3,332.5,460.3,327.6L460.3,327.6z"/>
<path class="st0" d="M571.8,339.4c-4,9.1-11.1,13.6-21.3,13.6c-7.4,0-13.2-2.4-17.2-7.2c-4-4.9-6-10.9-6-18.2s2-13.3,6-18.1  c4-4.9,9.8-7.3,17.2-7.3c10.3,0,17.3,4.5,21.3,13.6l-9.1,3.9c-2.5-5.7-6.6-8.5-12.2-8.5c-8.3,0-12.4,6.5-12.4,16.4  c0,9.9,4.1,16.4,12.4,16.4c5.6,0,9.7-2.8,12.2-8.5L571.8,339.4z"/>
<path class="st0" d="M621,330.4h-34.9c0,7.7,4.5,13.6,12.2,13.6c5.6,0,10.6-3.3,12.9-8.3l8.7,3.4c-5,9.7-10.7,13.9-21.6,13.9  c-16.2,0-23-13.7-23-25.4c0-11.7,6.7-25.4,23-25.4c15.7,0,22.7,12.8,22.7,23.8V330.4z M586.3,321.9h23.9c-0.9-6.2-5-10.7-11.9-10.7  C591.8,311.1,587.5,315.5,586.3,321.9z"/>
<path class="st0" d="M302.2,302.2c2.4,0,4.9,0.7,7.5,2s4.5,2.6,5.7,4.3v-5.5h10.2v49.3h-8.5l-1.7-5.7c-1.9,3.2-7.4,6.5-13.4,6.5  c-14.4,0-22-9.4-22-25.4C280,312,287.7,302.2,302.2,302.2z M290.7,327.6c0,5,1.2,9,3.5,12c2.3,2.9,5.4,4.4,9.1,4.4  c3.7,0,6.7-1.5,9.1-4.4c2.3-3,3.5-7,3.5-12c0-5-1.2-9-3.5-11.9c-2.3-3-5.4-4.5-9.1-4.5s-6.7,1.5-9.1,4.5  C291.9,318.6,290.7,322.6,290.7,327.6L290.7,327.6z"/>
<path class="st0" d="M498.1,302.2c2.4,0,4.9,0.7,7.5,2c2.6,1.3,4.5,2.6,5.7,4.3v-5.5h10.2v49.3H513l-1.7-5.7  c-1.9,3.2-7.4,6.5-13.4,6.5c-14.4,0-22-9.4-22-25.4C475.9,312,483.6,302.2,498.1,302.2z M486.6,327.6c0,5,1.2,9,3.5,12  c2.3,2.9,5.4,4.4,9.1,4.4c3.7,0,6.7-1.5,9.1-4.4c2.3-3,3.5-7,3.5-12c0-5-1.2-9-3.5-11.9c-2.3-3-5.4-4.5-9.1-4.5  c-3.7,0-6.7,1.5-9.1,4.5C487.8,318.6,486.6,322.6,486.6,327.6L486.6,327.6z"/>
<path class="st1" d="M149.9,321.3c1.5,20.9-8.2,32.8-14.1,41.1c-9.1,9.6-20.6,22.7-50,23.4c-24.9,1-37.1-10-47.3-19.4  c-13.4-14.7-16.9-23.4-17.5-45c-0.1-13.3,5.1-26.5,14-38.1c12.5-17.7,32.5-23.6,50.9-24.9c19.3-0.7,34.7,9,45.2,19.5  C144.4,291.9,148.6,304,149.9,321.3"/>
</svg>