<svg xmlns:inkscape="http://www.inkscape.org/namespaces/inkscape" xmlns:sodipodi="http://sodipodi.sourceforge.net/DTD/sodipodi-0.dtd" xmlns="http://www.w3.org/2000/svg" xmlns:svg="http://www.w3.org/2000/svg" id="svg2" xml:space="preserve" width="573.04266" height="93.029732" viewBox="0 0 573.04267 93.029732" sodipodi:docname="7e2732ec5de3567a57cf70593aa532c1.eps"><defs id="defs6"></defs><g id="g8" inkscape:groupmode="layer" inkscape:label="ink_ext_XXXXXX" transform="matrix(1.3333333,0,0,-1.3333333,0,93.029731)"><g id="g10" transform="scale(0.1)"><path d="m 1179.8,610.289 v -452.57 h -66.5 V 387.434 H 884.266 V 157.719 H 817.75 v 452.57 h 66.516 V 418.293 H 1113.3 v 191.996 h 66.5" style="fill:#231f20;fill-opacity:1;fill-rule:nonzero;stroke:none" id="path12"></path><path d="m 1387.56,461.488 c -54.18,0 -91.2,-50.742 -91.2,-115.883 h 175.54 c 1.37,72.688 -33.61,115.883 -84.34,115.883 z m 142.62,-117.254 c 0,-9.601 -0.68,-19.203 -2.06,-26.058 h -232.45 c 0.69,-82.977 42.52,-138.516 106.29,-138.516 45.94,0 87.77,26.742 109.03,72.684 v -70.625 c -34.29,-21.946 -72.7,-30.86 -113.14,-30.86 -102.18,0 -168.01,69.254 -168.01,170.059 0,99.43 65.83,169.375 157.72,169.375 87.77,0 142.62,-61.719 142.62,-146.059" style="fill:#231f20;fill-opacity:1;fill-rule:nonzero;stroke:none" id="path14"></path><path d="m 1628.9,320.918 c 0,-77.488 34.29,-131.66 96,-131.66 62.39,0 104.22,54.172 104.22,132.347 0,77.485 -42.5,130.969 -104.22,130.969 -61.71,0 -96,-54.168 -96,-131.656 z m 81.6,-170.059 c -70.63,0 -144,54.86 -144,170.059 0,100.113 60.34,169.375 143.31,169.375 52.81,0 97.37,-28.805 116.58,-72.691 h 0.68 l -7.54,65.832 h 67.88 V 253.719 c 0,-37.715 2.06,-69.946 6.17,-96 h -66.51 v 65.828 h -0.68 c -21.27,-48 -67.89,-72.688 -115.89,-72.688" style="fill:#231f20;fill-opacity:1;fill-rule:nonzero;stroke:none" id="path16"></path><path d="m 1958.02,157.719 v 373.715 c 0,34.289 -2.05,72 -6.17,126.859 h 66.52 V 253.719 c 0,-22.633 2.74,-66.52 6.17,-96 h -66.52" style="fill:#231f20;fill-opacity:1;fill-rule:nonzero;stroke:none" id="path18"></path><path d="m 2265.83,172.117 c -13.02,-13.027 -34.97,-21.258 -63.77,-21.258 -39.08,0 -91.2,12.34 -91.2,100.114 v 205.031 h -53.48 v 18.516 c 61.02,-3.426 80.91,27.429 86.39,103.546 h 27.44 v -94.632 h 88.45 v -27.43 h -88.45 V 233.145 c 0,-36.34 18.5,-53.485 46.62,-53.485 18.52,0 37.04,9.598 48,26.059 v -33.602" style="fill:#231f20;fill-opacity:1;fill-rule:nonzero;stroke:none" id="path20"></path><path d="M 2361.46,658.293 V 421.031 h 0.69 c 19.89,44.574 63.77,69.262 109.72,69.262 67.19,0 115.89,-40.461 115.89,-139.887 v -96.687 c 0,-26.059 2.74,-72 6.17,-96 h -66.52 v 185.832 c 0,82.281 -30.85,109.023 -76.12,109.023 -52.79,0 -89.83,-37.023 -89.83,-106.285 v -188.57 h -60.33 v 373.715 c 0,35.66 -2.75,83.656 -6.86,126.859 h 67.19" style="fill:#231f20;fill-opacity:1;fill-rule:nonzero;stroke:none" id="path22"></path><path d="m 3017.67,263.316 v -70.628 c -38.4,-26.743 -89.14,-41.829 -144.69,-41.829 -140.57,0 -237.26,96.688 -237.26,234.52 0,135.082 97.37,231.769 235.21,231.769 55.54,0 106.29,-14.398 146.74,-41.828 v -70.629 c -41.14,58.973 -91.89,82.973 -150.17,82.973 -96.69,0 -162.52,-76.117 -162.52,-201.601 0,-126.86 71.31,-203.661 170.06,-203.661 58.97,0 107.66,24 142.63,80.914" style="fill:#231f20;fill-opacity:1;fill-rule:nonzero;stroke:none" id="path24"></path><path d="m 3116.39,320.23 c 0,-90.511 43.89,-142.628 101.49,-142.628 57.6,0 101.48,52.117 101.48,142.628 0,91.204 -43.88,143.317 -101.48,143.317 -57.6,0 -101.49,-52.113 -101.49,-143.317 z m 267.44,0 c 0,-100.8 -65.16,-169.371 -165.95,-169.371 -100.81,0 -165.95,69.254 -165.95,169.371 0,101.489 65.14,170.063 165.95,170.063 100.79,0 165.95,-69.262 165.95,-170.063" style="fill:#231f20;fill-opacity:1;fill-rule:nonzero;stroke:none" id="path26"></path><path d="m 3852.83,157.719 v 200.226 c 0,71.317 -27.44,93.946 -69.27,93.946 -44.56,0 -80.91,-26.059 -80.91,-99.426 V 157.719 h -60.34 v 198.168 c 0,72.004 -28.8,96.004 -69.95,96.004 -48.68,0 -80.23,-32.914 -80.23,-113.832 v -180.34 h -61.02 v 229.715 c 0,33.597 -2.06,66.515 -6.18,96 h 67.2 v -63.086 h 0.69 c 16.46,43.199 52.8,69.945 96.69,69.945 45.94,0 83.66,-25.375 101.49,-68.574 h 1.36 c 21.26,43.886 61.72,68.574 111.78,68.574 68.57,0 109.02,-41.145 109.02,-126.176 V 253.719 c 0,-34.289 2.06,-68.574 6.18,-96 h -66.51" style="fill:#231f20;fill-opacity:1;fill-rule:nonzero;stroke:none" id="path28"></path><path d="m 4035.19,320.23 c 0,-77.484 42.51,-130.972 104.23,-130.972 61.72,0 96,54.172 96,131.66 0,77.488 -34.28,131.656 -96,131.656 -62.4,0 -104.23,-54.168 -104.23,-132.344 z m 2.74,97.372 c 24.69,45.261 67.88,72.691 116.58,72.691 83.65,0 143.31,-69.945 143.31,-170.063 0,-102.855 -63.08,-169.371 -145.37,-169.371 -50.75,0 -93.95,28.118 -114.52,72.688 h -0.68 V 102.859 c 0,-34.2887 0.68,-45.2613 6.85,-102.859 h -67.2 v 387.434 c 0,25.371 -3.42,69.254 -6.86,96 h 67.21 v -65.832 h 0.68" style="fill:#231f20;fill-opacity:1;fill-rule:nonzero;stroke:none" id="path30"></path><path d="m 302.281,93.1563 c 166.946,0 302.282,135.3357 302.282,302.2847 -166.946,0 -302.282,-135.336 -302.282,-302.2847" style="fill:#231f20;fill-opacity:1;fill-rule:nonzero;stroke:none" id="path32"></path><path d="M 0.0117188,395.441 C 166.949,395.445 302.281,530.781 302.281,697.723 135.336,697.723 0,562.387 0,395.441 v 0 0 0 0 C 0,228.492 135.336,93.1563 302.281,93.1563 302.281,260.098 166.949,395.434 0.0117188,395.441" style="fill:#231f20;fill-opacity:1;fill-rule:nonzero;stroke:none" id="path34"></path><path d="m 453.422,471.012 c 41.734,0 75.57,33.832 75.57,75.57 0,41.734 -33.836,75.57 -75.57,75.57 -41.734,0 -75.57,-33.836 -75.57,-75.57 0,-41.738 33.836,-75.57 75.57,-75.57" style="fill:#231f20;fill-opacity:1;fill-rule:nonzero;stroke:none" id="path36"></path></g></g></svg>