<svg width="46" height="47" viewBox="0 0 46 47" fill="none" xmlns="http://www.w3.org/2000/svg">
<path d="M37.3538 32.9444L36.3802 33.8843V39.0347L33.374 36.0255L31.3968 36.875C28.7178 38.0188 25.834 38.604 22.9215 38.5949C12.0527 38.5949 3.19587 30.6551 3.19587 20.8958C3.19587 11.1366 12.0435 3.19676 22.9215 3.19676C33.7995 3.19676 42.6494 11.1366 42.6494 20.8958C42.6494 25.375 40.7693 29.6551 37.3561 32.9329L37.3538 32.9444ZM22.9169 0C10.2605 0 0 9.35416 0 20.8889C0 32.4236 10.2605 41.7778 22.9169 41.7778C26.2591 41.7899 29.569 41.1221 32.6455 39.8148L39.5622 46.7431V35.2431C43.4449 31.5 45.8314 26.4468 45.8314 20.8912C45.8314 9.35648 35.5709 0.00231708 22.9145 0.00231708" fill="#47C2B4"/>
</svg>
