<svg width="512" height="512" viewBox="0 0 512 512" fill="none" xmlns="http://www.w3.org/2000/svg">
<g clip-path="url(#clip0_302_14)">
<path d="M195 272H45C20.186 272 0 292.186 0 317V467C0 491.814 20.186 512 45 512H195C219.814 512 240 491.814 240 467V317C240 292.186 219.814 272 195 272Z" fill="#47C2B4"/>
<path d="M392 272C325.818 272 272 325.833 272 392C272 458.167 325.818 512 392 512C458.182 512 512 458.167 512 392C512 325.833 458.182 272 392 272Z" fill="#FCC669"/>
<path d="M384.613 171.885C384.613 171.87 384.613 171.87 384.613 171.87L294.613 21.87C286.527 8.379 271.732 0 256 0C240.268 0 225.473 8.379 217.387 21.87L127.387 171.885C109.628 201.378 130.783 240 166 240H346C381.232 240 402.362 201.363 384.613 171.885Z" fill="#9A87E9"/>
</g>
<defs>
<clipPath id="clip0_302_14">
<rect width="512" height="512" fill="white"/>
</clipPath>
</defs>
</svg>
