<?xml version="1.0" encoding="UTF-8"?> <svg xmlns="http://www.w3.org/2000/svg" viewBox="0 0 603.34 145.97"><defs><style>.cls-1{fill:#464442;}.cls-2{fill:#47c2b4;}</style></defs><g id="Слой_2" data-name="Слой 2"><g id="color"><path class="cls-1" d="M315.42,97.67A24.37,24.37,0,0,0,340.11,73a24.69,24.69,0,1,0-49.37,0,24.6,24.6,0,0,0,24.68,24.69m-24.68-2.61V146h-8.43V41.55m33.11,64.55a31.91,31.91,0,0,1-24.68-11V146h-8.43V41.55l9.19,8.59a33,33,0,0,1,57,22.84,32.09,32.09,0,0,1-9.66,23.31,31.69,31.69,0,0,1-23.46,9.81"></path><rect class="cls-1" x="264.28" y="1.72" width="8.43" height="104.26"></rect><path class="cls-1" d="M539.45,43.58l-3.83,7.52a14.13,14.13,0,0,0-4.45-.62,15.29,15.29,0,0,0-11.58,4.75,15.87,15.87,0,0,0-4.52,11.35v39.86h-8.43V43.74l7.05,5.67a23.22,23.22,0,0,1,17.48-7.36,21.43,21.43,0,0,1,8.28,1.53"></path><polygon class="cls-1" points="390.78 72.09 376.98 107.97 350.92 43.26 359.96 43.26 376.83 84.96 390.78 48.63 404.73 84.96 421.6 43.26 430.64 43.26 404.57 107.97 390.78 72.09"></polygon><path class="cls-1" d="M465.05,50.48a24.35,24.35,0,0,0-24.69,24.69,24.69,24.69,0,1,0,49.37,0,24.6,24.6,0,0,0-24.68-24.69M489,98a32.76,32.76,0,0,1-47.22.46,31.81,31.81,0,0,1-9.82-23.3,31.7,31.7,0,0,1,9.82-23.47,33,33,0,0,1,47.22.62l9.2-8.58v62.7Z"></path><path class="cls-1" d="M173.61,64.85A15.83,15.83,0,0,0,168.78,53a16.26,16.26,0,0,0-11.73-4.67A16.49,16.49,0,0,0,140.5,64.85v39.41h-8.44V0h8.44V46.15A24.85,24.85,0,0,1,182,64.85v39.41h-8.43Z"></path><path class="cls-2" d="M83.32,73.4l-2.17,2.09V87l-6.7-6.7L70,82.16A47.84,47.84,0,0,1,51.12,86c-24.27,0-44-17.7-44-39.44s19.73-39.44,44-39.44,44,17.69,44,39.44A37.2,37.2,0,0,1,83.32,73.4M51.12,0C22.89,0,0,20.84,0,46.55S22.89,93.1,51.12,93.1a54.91,54.91,0,0,0,21.7-4.41l15.43,15.44V78.52a44.3,44.3,0,0,0,14-32C102.24,20.84,79.35,0,51.12,0"></path><path class="cls-1" d="M223.46,49.62A24.66,24.66,0,0,1,247.9,71H199a24.66,24.66,0,0,1,24.45-21.37m33,24.66a33,33,0,1,0-2.91,13.52h-9.44a24.66,24.66,0,0,1-44.76-8.41H256a33,33,0,0,0,.43-5.11"></path><path class="cls-1" d="M570.36,49.62A24.66,24.66,0,0,1,594.8,71H545.92a24.65,24.65,0,0,1,24.44-21.37m33,24.66a33.05,33.05,0,1,0-2.92,13.52H591a24.66,24.66,0,0,1-44.76-8.41h56.68a33,33,0,0,0,.43-5.11"></path></g></g></svg> 