<svg width="65" height="65" viewBox="0 0 65 65" fill="none" xmlns="http://www.w3.org/2000/svg">
<path d="M26.7871 65V59.1602C22.5861 59.1602 19.1699 55.744 19.1699 51.543C19.1699 47.342 22.5861 43.9258 26.7871 43.9258V38.2129H16.1423L17.048 35.6689C17.1931 35.2653 17.2656 34.8395 17.2656 34.4043C17.2656 32.3047 15.5566 30.5957 13.457 30.5957C11.3575 30.5957 9.64844 32.3047 9.64844 34.4043C9.64844 34.8395 9.72093 35.2653 9.86603 35.6689L10.7717 38.2129H0C0.944912 52.4433 12.5567 64.0551 26.7871 65Z" fill="#735DCC"/>
<path d="M13.457 26.7871C17.658 26.7871 21.0742 30.2032 21.0742 34.4043H26.7871V23.7595L29.3311 24.6652C31.6762 25.5001 34.4024 23.607 34.4043 21.0742C34.4024 18.5394 31.678 16.6314 29.3311 17.4832L26.7871 18.3889V7.84058C12.5567 8.78549 0.944912 20.1738 0 34.4043H5.83984C5.83984 30.2032 9.25603 26.7871 13.457 26.7871Z" fill="#9A87E9"/>
<path d="M57.1594 38.2129H51.543C51.543 42.4139 48.1268 45.8301 43.9258 45.8301C39.7248 45.8301 36.3086 42.4139 36.3086 38.2129H30.5957V48.8577L28.0517 47.952C25.6973 47.1058 22.9766 49.0082 22.9785 51.543C22.9766 54.0777 25.6992 55.9801 28.0517 55.134L30.5957 54.2283V65C44.8261 64.0551 56.2145 52.4433 57.1594 38.2129Z" fill="#9A87E9"/>
<path d="M57.2559 15.3613V7.74414H49.6387C49.6387 3.54313 46.2225 0 42.0215 0C37.8205 0 34.4043 3.54313 34.4043 7.74414H30.5957V13.457C34.7967 13.457 38.2129 16.8732 38.2129 21.0742C38.2129 25.2752 34.7967 28.6914 30.5957 28.6914V34.4043H41.2405L40.3348 36.9483C40.1897 37.3519 40.1172 37.7777 40.1172 38.2129C40.1172 40.3124 41.8262 42.0215 43.9258 42.0215C46.0253 42.0215 47.7344 40.3124 47.7344 38.2129C47.7344 37.7777 47.6619 37.3519 47.5168 36.9483L46.6111 34.4043H57.2559V30.5957C61.4569 30.5957 65 27.1795 65 22.9785C65 18.7775 61.4569 15.3613 57.2559 15.3613Z" fill="#735DCC"/>
</svg>
