<svg width="25" height="22" viewBox="0 0 25 22" fill="none" xmlns="http://www.w3.org/2000/svg">
<path d="M21.9218 12.9211C20.8848 15.4242 16.2493 19.165 13.5638 20.8601C12.9636 21.2389 12.199 21.2389 11.5988 20.8601C8.91332 19.165 4.27779 15.4242 3.24084 12.9211C-0.166567 4.6961 8.44685 1.87016 12.5813 5.80817C16.7158 1.87016 25.3292 4.6961 21.9218 12.9211Z" fill="#FF95A0"/>
<path d="M9.09395 11.1789C9.09395 11.8845 8.52195 12.4565 7.81636 12.4565C7.11076 12.4565 6.53876 11.8845 6.53876 11.1789C6.53876 10.4733 7.11076 9.90128 7.81636 9.90128C8.52195 9.90128 9.09395 10.4733 9.09395 11.1789Z" fill="black" fill-opacity="0.14"/>
<path d="M21.975 13.504L23.6029 9.43432L24.5206 11.1666L24.5387 8.99005L23.9992 7.97009C23.9076 7.79205 23.7204 7.68478 23.5206 7.69331C23.3206 7.70277 23.1446 7.82813 23.0703 8.01399L21.5006 11.9382L20.953 10.5692C20.8481 10.3071 20.5506 10.1798 20.2887 10.2845C20.0266 10.3894 19.8992 10.6867 20.004 10.9488L21.026 13.504C21.1037 13.698 21.2916 13.8252 21.5005 13.8252C21.7095 13.8252 21.8974 13.698 21.975 13.504Z" fill="#FFC862"/>
<path d="M7.22805 10.9488C7.33291 11.2108 7.63029 11.3381 7.89235 11.2335C8.15441 11.1287 8.28186 10.8312 8.17705 10.5692L7.15497 8.01399C7.07734 7.81995 6.88943 7.69275 6.68047 7.69275C6.47151 7.69275 6.2836 7.81995 6.20597 8.01399L4.57811 12.0836L3.55766 10.0994C3.47007 9.92916 3.29468 9.8221 3.1032 9.8221H0.538757V10.8442H2.79136L3.4866 12.196L4.18185 13.5479C4.26969 13.7187 4.44549 13.8252 4.63621 13.8252C4.64429 13.8252 4.65236 13.825 4.66043 13.8247C4.86046 13.8152 5.03646 13.6898 5.11081 13.504L6.68047 9.57981L7.22805 10.9488Z" fill="#FFC862"/>
</svg>
