<svg width="28" height="31" viewBox="0 0 28 31" fill="none" xmlns="http://www.w3.org/2000/svg">
<path d="M19.9111 5.24709V27.2662C19.9111 28.2395 19.5178 29.173 18.8177 29.8612C18.1175 30.5494 17.1679 30.9361 16.1778 30.9361H3.73335C3.07777 30.9357 2.4338 30.766 1.86594 30.4439C1.29809 30.1219 0.826286 29.6588 0.497787 29.1012V29.095C0.170339 28.5394 -0.00142074 27.9084 8.85163e-06 27.2662V5.24709C8.85163e-06 4.27379 0.393342 3.34035 1.09348 2.65212C1.79362 1.96388 2.7432 1.57724 3.73335 1.57724H16.1778C17.1191 1.57772 18.0256 1.92774 18.7155 2.55721C19.4055 3.18668 19.8281 4.04913 19.8987 4.97186C19.9049 5.0636 19.9111 5.15535 19.9111 5.24709Z" fill="#4EC7B9"/>
<path d="M19.9111 6.62334V23.4374C18.9106 23.011 17.9944 22.4147 17.2044 21.6759L12.8302 22.4771L15.0951 18.7094C14.6035 17.605 14.3381 16.4163 14.3141 15.211C14.2901 14.0058 14.508 12.8078 14.9552 11.6853C15.4025 10.5629 16.0704 9.53813 16.9207 8.66957C17.7711 7.801 18.7872 7.10568 19.9111 6.62334Z" fill="#4EC7B9"/>
<path d="M11.2 26.043C11.5297 26.044 11.8457 26.1732 12.0788 26.4024C12.312 26.6316 12.4434 26.9422 12.4444 27.2663C12.442 27.59 12.3101 27.8998 12.0772 28.1287C11.8444 28.3575 11.5292 28.4872 11.2 28.4896H8.71106C8.38131 28.4886 8.06536 28.3594 7.83219 28.1302C7.59903 27.901 7.4676 27.5905 7.46661 27.2663C7.46906 26.9426 7.60095 26.6329 7.8338 26.404C8.06665 26.1751 8.38177 26.0454 8.71106 26.043H11.2Z" fill="#5A82CA"/>
<path d="M8.0266 26.4773C8.02662 26.7992 7.9408 27.1155 7.77771 27.3947L7.57238 27.7495C7.50228 27.5977 7.46621 27.4329 7.4666 27.2663C7.46573 27.1057 7.49779 26.9465 7.56086 26.7983C7.62394 26.6502 7.71673 26.516 7.83371 26.4039C7.88935 26.348 7.94971 26.2968 8.01416 26.2509C8.02038 26.3243 8.0266 26.4039 8.0266 26.4773Z" fill="#5A82CA"/>
<path d="M5.66979 15.6423C6.03035 16.0019 6.25505 16.4754 6.30557 16.9821C6.35609 17.4888 6.22931 17.9973 5.94684 18.421C5.66437 18.8447 5.2437 19.1573 4.75654 19.3055C4.26938 19.4538 3.74589 19.4285 3.27531 19.2339C2.80473 19.0394 2.41619 18.6876 2.17593 18.2386C1.93566 17.7897 1.85855 17.2713 1.95774 16.7718C2.05692 16.2724 2.32626 15.8228 2.71985 15.4997C3.11343 15.1766 3.60689 15 4.1161 15C4.6984 15.001 5.25675 15.2319 5.66979 15.6423Z" fill="#5A82CA"/>
<path d="M2.4657 4.87787H4.99618V6.0881H2.4657V4.87787Z" fill="white"/>
<path d="M7.52673 4.87787H17.5386V6.0881H7.52673V4.87787Z" fill="white"/>
<path d="M7.52673 18.9606H18.0887V20.1709H7.52673V18.9606Z" fill="white"/>
<path d="M7.52673 16.7863H18.0887V18.0096H7.52673V16.7863Z" fill="white"/>
<path d="M7.52676 21.4911H18.0888V22.7144H7.52676V21.4911Z" fill="white"/>
<path d="M24.3562 9.87665C23.9621 12.075 22.6959 14.0295 20.8362 15.3103C18.9764 16.5912 16.6752 17.0936 14.4387 16.707C14.1691 16.6617 13.9022 16.6018 13.6394 16.5274C12.2799 16.1609 11.0342 15.4686 10.0138 14.5125L6 15.2478L8.07827 11.7905C7.45717 10.3957 7.23267 8.8613 7.42868 7.35093C7.62468 5.84055 8.23386 4.41074 9.1913 3.21384C10.1487 2.01694 11.4186 1.0978 12.8655 0.554335C14.3124 0.0108741 15.8822 -0.136539 17.4077 0.127802C19.644 0.515219 21.6323 1.75984 22.9354 3.588C24.2384 5.41615 24.7495 7.67816 24.3562 9.87665Z" fill="#5A82CA"/>
<path d="M19.9199 11.2238V12.3462C19.919 12.6437 19.7984 12.9287 19.5844 13.139C19.3705 13.3493 19.0806 13.4679 18.778 13.4687H13.0684C12.7658 13.4679 12.4759 13.3493 12.262 13.139C12.048 12.9287 11.9274 12.6437 11.9265 12.3462V11.2238H19.9199Z" fill="#4EC7B9"/>
<path d="M11.9265 5.61125H19.9199V11.2237H11.9265V5.61125Z" fill="white"/>
<path d="M18.207 7.29497H17.0651V4.48874C17.0651 4.19104 16.9448 3.90553 16.7307 3.69502C16.5165 3.48451 16.2261 3.36625 15.9232 3.36625C15.6204 3.36625 15.3299 3.48451 15.1158 3.69502C14.9016 3.90553 14.7813 4.19104 14.7813 4.48874V7.29497H13.6394V4.48874C13.6394 3.89334 13.88 3.32232 14.3083 2.9013C14.7366 2.48028 15.3175 2.24376 15.9232 2.24376C16.5289 2.24376 17.1098 2.48028 17.5381 2.9013C17.9664 3.32232 18.207 3.89334 18.207 4.48874V7.29497Z" fill="#4EC7B9"/>
</svg>
