<svg width="31" height="21" viewBox="0 0 31 21" fill="none" xmlns="http://www.w3.org/2000/svg">
<path fill-rule="evenodd" clip-rule="evenodd" d="M15.1599 0.496936L8.75049 0.496936L6.78477 0.0996608C3.87122 -0.489228 1.09952 1.6048 0.869648 4.56837L0.0150073 15.5865C-0.178383 18.0796 1.51812 20.3254 3.96914 20.8208C6.42016 21.3161 8.85561 19.9055 9.64559 17.533L11.5095 11.9351L18.7896 11.9351L20.6535 17.533C21.4435 19.9055 23.879 21.3161 26.33 20.8208C28.7811 20.3254 30.4777 18.0796 30.2843 15.5865L29.4297 4.56837C29.3363 3.36435 28.8234 2.30387 28.0519 1.50851C27.9925 1.44733 27.9316 1.38772 27.8693 1.32973C26.7473 0.285935 25.1533 -0.231702 23.5145 0.0995001L21.5488 0.496775L15.1599 0.496775V0.496936Z" fill="#9A87E9"/>
<path d="M8.66299 8.02685C9.1411 8.02685 9.52868 7.63927 9.52868 7.16116V6.55906C9.52868 6.08095 9.1411 5.69337 8.66299 5.69337H8.50768C8.02957 5.69337 7.64199 5.30578 7.64199 4.82767V4.67236C7.64199 4.19426 7.2544 3.80667 6.77629 3.80667H6.1742C5.69609 3.80667 5.30851 4.19426 5.30851 4.67236V4.82767C5.30851 5.30578 4.92092 5.69337 4.44281 5.69337H4.28757C3.80946 5.69337 3.42188 6.08095 3.42188 6.55906V7.16122C3.42188 7.63933 3.80946 8.02692 4.28757 8.02692H4.44281C4.92092 8.02692 5.30851 8.4145 5.30851 8.89261V9.04785C5.30851 9.52596 5.69609 9.91355 6.1742 9.91355H6.77629C7.2544 9.91355 7.64199 9.52596 7.64199 9.04785V8.89254C7.64199 8.41443 8.02957 8.02685 8.50768 8.02685H8.66299Z" fill="#4B4B4B"/>
<path d="M23.8968 6.15302C24.5898 6.15302 25.1516 5.59123 25.1516 4.89823C25.1516 4.20522 24.5898 3.64343 23.8968 3.64343C23.2038 3.64343 22.642 4.20522 22.642 4.89823C22.642 5.59123 23.2038 6.15302 23.8968 6.15302Z" fill="#FFC862"/>
<path d="M23.8968 11.0902C24.5898 11.0902 25.1516 10.5284 25.1516 9.83542C25.1516 9.14242 24.5898 8.58063 23.8968 8.58063C23.2038 8.58063 22.642 9.14242 22.642 9.83542C22.642 10.5284 23.2038 11.0902 23.8968 11.0902Z" fill="#4EC7B9"/>
<path d="M26.3653 8.62156C27.0583 8.62156 27.6201 8.05977 27.6201 7.36676C27.6201 6.67376 27.0583 6.11197 26.3653 6.11197C25.6723 6.11197 25.1105 6.67376 25.1105 7.36676C25.1105 8.05977 25.6723 8.62156 26.3653 8.62156Z" fill="#FF95A0"/>
<path d="M21.4281 8.62156C22.1211 8.62156 22.6829 8.05977 22.6829 7.36676C22.6829 6.67376 22.1211 6.11197 21.4281 6.11197C20.7351 6.11197 20.1733 6.67376 20.1733 7.36676C20.1733 8.05977 20.7351 8.62156 21.4281 8.62156Z" fill="#88B3FF"/>
</svg>
