<svg width="22" height="26" viewBox="0 0 22 26" fill="none" xmlns="http://www.w3.org/2000/svg">
<path fill-rule="evenodd" clip-rule="evenodd" d="M6.13288 0.796005H19.7555C20.5286 0.796005 21.1551 1.40659 21.155 2.1596V6.80087L20.7958 6.93721H5.06761H0.682247L0.3479 6.80087V2.1596C0.3479 1.40646 0.974479 0.796005 1.74751 0.796005H6.13288Z" fill="#4B4B4B"/>
<path d="M20.4554 25.204H1.04777C0.661251 25.204 0.347961 24.8988 0.347961 24.5222V6.8009H21.1552V24.5222C21.1552 24.8988 20.8419 25.204 20.4554 25.204Z" fill="#9A87E9"/>
<path d="M17.6563 19.8612H3.847C3.28414 19.8612 2.82806 19.4167 2.82806 18.8684C2.82806 18.3202 3.28414 17.8757 3.847 17.8757H17.6563C18.2192 17.8757 18.6752 18.3202 18.6752 18.8684C18.6752 19.4167 18.219 19.8612 17.6563 19.8612Z" fill="white"/>
<path d="M13.5274 20.9862C14.7279 20.9862 15.7012 20.038 15.7012 18.8684C15.7012 17.6988 14.7279 16.7506 13.5274 16.7506C12.3269 16.7506 11.3537 17.6988 11.3537 18.8684C11.3537 20.038 12.3269 20.9862 13.5274 20.9862Z" fill="#4B4B4B"/>
<path d="M17.6563 13.9977H3.847C3.28414 13.9977 2.82806 13.5533 2.82806 13.005C2.82806 12.4568 3.28414 12.0123 3.847 12.0123H17.6563C18.2192 12.0123 18.6752 12.4568 18.6752 13.005C18.6752 13.5533 18.219 13.9977 17.6563 13.9977Z" fill="white"/>
<path d="M7.9291 15.1228C9.12962 15.1228 10.1028 14.1747 10.1028 13.005C10.1028 11.8354 9.12962 10.8873 7.9291 10.8873C6.72858 10.8873 5.75537 11.8354 5.75537 13.005C5.75537 14.1747 6.72858 15.1228 7.9291 15.1228Z" fill="#4B4B4B"/>
<path d="M17.7813 4.58923C18.344 4.58923 18.8002 4.14478 18.8002 3.59652C18.8002 3.04826 18.344 2.60381 17.7813 2.60381C17.2185 2.60381 16.7623 3.04826 16.7623 3.59652C16.7623 4.14478 17.2185 4.58923 17.7813 4.58923Z" fill="white"/>
<path d="M14.9735 4.58923C15.5363 4.58923 15.9925 4.14478 15.9925 3.59652C15.9925 3.04826 15.5363 2.60381 14.9735 2.60381C14.4108 2.60381 13.9546 3.04826 13.9546 3.59652C13.9546 4.14478 14.4108 4.58923 14.9735 4.58923Z" fill="white"/>
<path d="M12.1658 4.58923C12.7286 4.58923 13.1848 4.14478 13.1848 3.59652C13.1848 3.04826 12.7286 2.60381 12.1658 2.60381C11.6031 2.60381 11.1469 3.04826 11.1469 3.59652C11.1469 4.14478 11.6031 4.58923 12.1658 4.58923Z" fill="white"/>
</svg>
