<svg width="26" height="25" viewBox="0 0 26 25" fill="none" xmlns="http://www.w3.org/2000/svg">
<path fill-rule="evenodd" clip-rule="evenodd" d="M19.3995 10.8717H25.9999V13.1673C25.9999 13.7349 25.5373 14.1985 24.9708 14.1985H22.5966L21.1804 14.9146L19.3994 14.1985V10.8717H19.3995Z" fill="#FFC862"/>
<path fill-rule="evenodd" clip-rule="evenodd" d="M20.4287 7.54056H24.9709C25.5373 7.54056 26 8.00412 26 8.5717V10.2774H19.3996V8.5717C19.3996 8.00412 19.8622 7.54056 20.4287 7.54056Z" fill="#FFC862"/>
<path fill-rule="evenodd" clip-rule="evenodd" d="M19.3996 9.76334H26V11.3844H19.3996V9.76334Z" fill="#4B4B4B"/>
<path fill-rule="evenodd" clip-rule="evenodd" d="M19.3995 14.1985H22.5967V15.671C22.5967 16.0246 22.3075 16.3128 21.9561 16.3128H11.5464C11.5464 15.3872 11.5464 14.9161 12.2538 14.9161L13.6626 14.9147C14.5493 14.9132 15.1306 14.6858 15.4554 14.1985H19.3995V14.1985Z" fill="#4B4B4B"/>
<path fill-rule="evenodd" clip-rule="evenodd" d="M12.8021 16.3128H21.9561C22.4929 17.2489 22.9245 18.3737 22.5522 20.5251C21.9294 18.4034 15.6033 19.2503 14.9538 21.6989H7.97371C7.70975 21.1001 7.46062 20.5088 7.24261 19.9115H9.21044C13.1906 18.4078 11.9108 19.0779 12.8021 16.3128Z" fill="#FFC862"/>
<path fill-rule="evenodd" clip-rule="evenodd" d="M12.237 10.5612C12.3734 11.2803 12.5588 11.9891 12.7664 12.5923L14.7786 13.3816L17.0223 12.5923C16.9437 8.34136 15.357 6.30283 14.0075 5.64312C13.5211 5.27235 13.0229 5.13269 13.0229 5.13269C13.0229 5.13269 12.3674 6.18249 12.3333 6.18249C12.0812 6.78276 11.9863 7.56579 12.0026 8.41121L12.237 10.5612Z" fill="#FFC862"/>
<path fill-rule="evenodd" clip-rule="evenodd" d="M17.0224 12.5923H12.7664C11.7862 12.6993 10.5806 13.4467 10.5806 15.7616V18.188L11.5464 18.7639L12.8019 18.188V16.3128C12.8019 15.3872 12.8019 14.9161 13.5093 14.9161L14.918 14.9147C15.8048 14.9132 16.3861 14.6858 16.7109 14.1985C16.9615 13.8226 17.0579 13.2922 17.0224 12.5923Z" fill="#4B4B4B"/>
<path fill-rule="evenodd" clip-rule="evenodd" d="M14.9538 21.6989C14.9538 19.5014 16.6933 17.7511 18.839 17.7511C20.5844 17.7511 22.0614 18.91 22.5523 20.5251C22.6531 20.8565 22.7124 21.2086 22.7228 21.5741C22.7273 21.7168 22.6294 21.6989 22.4959 21.6989C19.9824 21.6989 17.4673 21.6975 14.9538 21.6989Z" fill="#4B4B4B"/>
<path fill-rule="evenodd" clip-rule="evenodd" d="M15.931 21.6989H21.8449C21.7604 23.2947 20.4688 24.5636 18.8879 24.5636C17.3071 24.5636 16.0155 23.2947 15.931 21.6989Z" fill="#4B4B4B"/>
<path fill-rule="evenodd" clip-rule="evenodd" d="M0.913446 21.0674L6.00132 22.2398C5.67804 23.6469 4.27669 24.5264 2.87238 24.2025C1.46661 23.8786 0.590173 22.4745 0.913446 21.0674Z" fill="#4B4B4B"/>
<path fill-rule="evenodd" clip-rule="evenodd" d="M0.53239 19.6395C1.2516 18.592 2.50021 17.9844 3.80519 18.1151C6.10669 18.6025 6.85556 19.9798 7.00532 21.6975C7.00237 21.9307 6.97713 22.1655 6.92671 22.4003C6.91188 22.4656 6.86887 22.4389 6.79767 22.4225L6.00132 22.2398L0.913452 21.0674L0.532339 20.9798L0 20.8565C0.102324 20.4077 0.286203 19.9977 0.53239 19.6395Z" fill="#FFC862"/>
<path fill-rule="evenodd" clip-rule="evenodd" d="M3.80078 18.1092L5.8561 10.9891L6.78143 10.5746L7.81651 10.9891C6.45669 14.7631 6.83628 17.3975 7.75425 19.9115C7.97373 20.5088 8.22286 21.1002 8.48535 21.6989H7.00685L3.80078 18.1092Z" fill="#4B4B4B"/>
<path fill-rule="evenodd" clip-rule="evenodd" d="M10.1654 3.00582L12.5766 2.49173C12.8213 2.514 13.5213 3.10242 13.5213 3.47091L13.0082 6.08297C12.7946 6.14687 12.5677 6.18251 12.3334 6.18251C11.0492 6.18251 10.0082 5.138 10.0082 3.85124C10.0082 3.55261 10.0631 3.26729 10.1654 3.00582Z" fill="#FFECE4"/>
<path fill-rule="evenodd" clip-rule="evenodd" d="M9.38684 3.00581C9.38684 1.34467 10.7007 0 12.323 0C13.9453 0 15.2592 1.34467 15.2592 3.00581C15.2592 4.10233 14.8143 5.07704 14.0076 5.64314C13.7199 5.8467 13.3847 5.99678 13.0081 6.08296V3.47085C13.0081 3.10236 12.8213 3.02808 12.5766 3.00576H10.1654H9.38684V3.00581Z" fill="#4B4B4B"/>
<path fill-rule="evenodd" clip-rule="evenodd" d="M10.5805 18.1879H12.8019V19.589C12.8019 19.8892 12.6388 19.9115 12.3986 19.9115H9.21034C9.1465 18.5059 9.99623 18.1879 10.5805 18.1879Z" fill="#4B4B4B"/>
<path fill-rule="evenodd" clip-rule="evenodd" d="M5.42752 8.74699L8.20205 9.66522C8.3385 9.78703 8.18428 11.0292 8.09231 10.9891H5.85606H4.86694V8.94461C4.86694 8.54196 5.07606 8.63108 5.42752 8.74699Z" fill="#FFC862"/>
<path fill-rule="evenodd" clip-rule="evenodd" d="M9.49512 10.9891H9.26229H8.09229C7.33895 10.9891 7.31671 9.73804 8.20203 9.66524L9.49512 9.56122L9.84211 10.2967L9.49512 10.9891Z" fill="#FFECE4"/>
<path fill-rule="evenodd" clip-rule="evenodd" d="M12.0027 8.41122L12.4668 8.01151C13.6294 7.00859 15.099 8.70096 13.5449 9.7113L12.237 10.5612L11.5786 10.9891H9.49506V9.56122L10.7896 9.45573L12.0027 8.41122Z" fill="#4B4B4B"/>
</svg>
