<svg width="30" height="31" viewBox="0 0 30 31" fill="none" xmlns="http://www.w3.org/2000/svg">
<path d="M28.3095 22.6677H23.6752V29.2368H28.3095V22.6677Z" fill="#FFE2AB"/>
<path d="M5.92473 22.6349H1.24426V29.2691H5.92473V22.6349Z" fill="#FFE2AB"/>
<path d="M20.5176 13.9147H9.03693V17.9818H20.5176V13.9147Z" fill="#FFD484"/>
<path d="M17.9637 2.03958H14.7771V5.01591H17.9637C18.3561 5.01591 18.6773 4.69482 18.6773 4.3023V2.75319C18.6772 2.36073 18.3561 2.03958 17.9637 2.03958Z" fill="#FFD484"/>
<path d="M14.7771 7.07525C14.5307 7.07525 14.3311 6.87562 14.3311 6.62924V1.33078C14.3311 1.08445 14.5307 0.884766 14.7771 0.884766C15.0234 0.884766 15.2231 1.08439 15.2231 1.33078V6.6293C15.2231 6.87562 15.0234 7.07525 14.7771 7.07525Z" fill="#FFC862"/>
<path d="M23.8317 19.374H5.72211V29.269H23.8317V19.374Z" fill="#FFD484"/>
<path d="M14.777 6.6293C11.6068 6.6293 9.0368 9.2587 9.0368 12.429H20.5172C20.5172 9.2587 17.9473 6.6293 14.777 6.6293Z" fill="#FFD484"/>
<path d="M28.6745 21.0196C28.1251 21.0196 24.4432 21.0196 23.8319 21.0196V22.7788C24.4265 22.7788 28.1322 22.7788 28.6745 22.7788C29.1602 22.7788 29.5541 22.385 29.5541 21.8992C29.5541 21.4134 29.1603 21.0196 28.6745 21.0196Z" fill="#FFC862"/>
<path d="M0.879612 21.0196C1.28584 21.0196 5.06063 21.0196 5.72221 21.0196V22.7788C5.01141 22.7788 1.06969 22.7788 0.879612 22.7788C0.39387 22.7788 6.10417e-05 22.385 6.10417e-05 21.8992C2.44795e-06 21.4134 0.393811 21.0196 0.879612 21.0196Z" fill="#FFC862"/>
<path d="M11.5658 16.8252C11.3195 16.8252 11.1198 16.6255 11.1198 16.3791V15.5606C11.1198 15.3143 11.3195 15.1146 11.5658 15.1146C11.8122 15.1146 12.0118 15.3143 12.0118 15.5606V16.3791C12.0119 16.6255 11.8122 16.8252 11.5658 16.8252Z" fill="white"/>
<path d="M13.7065 16.8252C13.4602 16.8252 13.2605 16.6255 13.2605 16.3791V15.5606C13.2605 15.3143 13.4602 15.1146 13.7065 15.1146C13.9528 15.1146 14.1525 15.3143 14.1525 15.5606V16.3791C14.1526 16.6255 13.9529 16.8252 13.7065 16.8252Z" fill="white"/>
<path d="M17.9883 16.8252C17.7419 16.8252 17.5422 16.6255 17.5422 16.3791V15.5606C17.5422 15.3143 17.7419 15.1146 17.9883 15.1146C18.2346 15.1146 18.4343 15.3143 18.4343 15.5606V16.3791C18.4343 16.6255 18.2346 16.8252 17.9883 16.8252Z" fill="white"/>
<path d="M15.8474 16.8252C15.6011 16.8252 15.4014 16.6255 15.4014 16.3791V15.5606C15.4014 15.3143 15.6011 15.1146 15.8474 15.1146C16.0938 15.1146 16.2935 15.3143 16.2935 15.5606V16.3791C16.2935 16.6255 16.0938 16.8252 15.8474 16.8252Z" fill="white"/>
<path d="M26.693 25.3278H25.5741C25.3278 25.3278 25.1281 25.1281 25.1281 24.8818C25.1281 24.6355 25.3278 24.4358 25.5741 24.4358H26.693C26.9393 24.4358 27.139 24.6354 27.139 24.8818C27.1391 25.1281 26.9393 25.3278 26.693 25.3278Z" fill="white"/>
<path d="M26.693 27.4686H25.5741C25.3278 27.4686 25.1281 27.269 25.1281 27.0226C25.1281 26.7762 25.3278 26.5766 25.5741 26.5766H26.693C26.9393 26.5766 27.139 26.7762 27.139 27.0226C27.1391 27.269 26.9393 27.4686 26.693 27.4686Z" fill="white"/>
<path d="M4.04265 25.3278H2.9238C2.67747 25.3278 2.47778 25.1281 2.47778 24.8818C2.47778 24.6355 2.67747 24.4358 2.9238 24.4358H4.04265C4.28898 24.4358 4.48866 24.6354 4.48866 24.8818C4.48866 25.1281 4.28892 25.3278 4.04265 25.3278Z" fill="white"/>
<path d="M4.04265 27.4686H2.9238C2.67747 27.4686 2.47778 27.269 2.47778 27.0226C2.47778 26.7762 2.67747 26.5766 2.9238 26.5766H4.04265C4.28898 26.5766 4.48866 26.7762 4.48866 27.0226C4.48866 27.269 4.28892 27.4686 4.04265 27.4686Z" fill="white"/>
<path d="M12.6363 27.9854C12.39 27.9854 12.1903 27.7858 12.1903 27.5394V21.3349C12.1903 21.0886 12.39 20.8889 12.6363 20.8889C12.8827 20.8889 13.0823 21.0885 13.0823 21.3349V27.5394C13.0823 27.7858 12.8827 27.9854 12.6363 27.9854Z" fill="white"/>
<path d="M10.4956 27.9854C10.2492 27.9854 10.0496 27.7858 10.0496 27.5394V21.3349C10.0496 21.0886 10.2492 20.8889 10.4956 20.8889C10.7419 20.8889 10.9416 21.0885 10.9416 21.3349V27.5394C10.9415 27.7858 10.7418 27.9854 10.4956 27.9854Z" fill="white"/>
<path d="M8.35477 27.9854C8.10844 27.9854 7.90875 27.7858 7.90875 27.5394V21.3349C7.90875 21.0886 8.10844 20.8889 8.35477 20.8889C8.6011 20.8889 8.80078 21.0885 8.80078 21.3349V27.5394C8.80078 27.7858 8.6011 27.9854 8.35477 27.9854Z" fill="white"/>
<path d="M21.1994 27.9854C20.953 27.9854 20.7534 27.7858 20.7534 27.5394V21.3349C20.7534 21.0886 20.953 20.8889 21.1994 20.8889C21.4457 20.8889 21.6454 21.0885 21.6454 21.3349V27.5394C21.6454 27.7858 21.4458 27.9854 21.1994 27.9854Z" fill="white"/>
<path d="M19.0586 27.9854C18.8123 27.9854 18.6126 27.7858 18.6126 27.5394V21.3349C18.6126 21.0886 18.8123 20.8889 19.0586 20.8889C19.305 20.8889 19.5046 21.0885 19.5046 21.3349V27.5394C19.5047 27.7858 19.305 27.9854 19.0586 27.9854Z" fill="white"/>
<path d="M16.9179 27.9854C16.6716 27.9854 16.4719 27.7858 16.4719 27.5394V21.3349C16.4719 21.0886 16.6716 20.8889 16.9179 20.8889C17.1642 20.8889 17.3639 21.0885 17.3639 21.3349V27.5394C17.3638 27.7858 17.1642 27.9854 16.9179 27.9854Z" fill="white"/>
<path d="M14.7771 27.9854C14.5307 27.9854 14.3311 27.7858 14.3311 27.5394V21.3349C14.3311 21.0886 14.5307 20.8889 14.7771 20.8889C15.0234 20.8889 15.2231 21.0885 15.2231 21.3349V27.5394C15.2231 27.7858 15.0234 27.9854 14.7771 27.9854Z" fill="white"/>
<path d="M21.625 13.2491C21.625 12.7633 21.2312 12.3695 20.7454 12.3695C16.7731 12.3695 12.8056 12.3695 8.80881 12.3695C8.32307 12.3695 7.92926 12.7633 7.92926 13.2491C7.92926 13.7348 8.32301 14.1286 8.80881 14.1286C10.8141 14.1286 19.3915 14.1286 20.7454 14.1286C21.2311 14.1286 21.625 13.7348 21.625 13.2491Z" fill="#FFC862"/>
<path d="M24.9898 18.6729C24.9898 18.1872 24.596 17.7934 24.1103 17.7934C21.9169 17.7934 7.52525 17.7934 5.44382 17.7934C4.95808 17.7934 4.56427 18.1872 4.56427 18.6729C4.56427 19.1587 4.95802 19.5525 5.44382 19.5525C9.68038 19.5525 19.6628 19.5525 24.1103 19.5525C24.596 19.5525 24.9898 19.1587 24.9898 18.6729Z" fill="#FFC862"/>
<path d="M28.6744 29.1256C23.3648 29.1256 6.17449 29.1256 0.879551 29.1256C0.393809 29.1256 0 29.5194 0 30.0052C0 30.4909 0.393809 30.8847 0.879551 30.8847C9.39117 30.8847 20.4295 30.8847 28.6744 30.8847C29.1602 30.8847 29.554 30.4909 29.554 30.0052C29.554 29.5194 29.1602 29.1256 28.6744 29.1256Z" fill="#FFC862"/>
</svg>
