<svg width="40" height="40" viewBox="0 0 40 40" fill="none" xmlns="http://www.w3.org/2000/svg">
<path d="M34.0625 6.37665C27.576 6.37665 20.8538 0.364073 20.7873 0.303839C20.3405 -0.101239 19.6595 -0.101239 19.2127 0.303839C19.1458 0.364542 12.4412 6.37665 5.9375 6.37665C5.29031 6.37665 4.76562 6.90134 4.76562 7.54853V21.5827C4.76562 32.9518 13.2216 37.4948 19.582 39.923C19.7166 39.9744 19.8583 40 20 40C20.1417 40 20.2834 39.9743 20.418 39.923C29.3363 36.5183 35.2344 31.2074 35.2344 21.5827V7.54853C35.2344 6.90134 34.7097 6.37665 34.0625 6.37665Z" fill="#4EBBB2"/>
<path d="M20 11.7969C15.4768 11.7969 11.7969 15.4768 11.7969 20C11.7969 24.5232 15.4768 28.2031 20 28.2031C24.5232 28.2031 28.2031 24.5232 28.2031 20C28.2031 15.4768 24.5232 11.7969 20 11.7969ZM23.1723 19.6567L19.6567 23.1723C19.428 23.4012 19.128 23.5156 18.8281 23.5156C18.5282 23.5156 18.2283 23.4012 17.9995 23.1723L16.8277 22.0005C16.37 21.5428 16.37 20.8009 16.8277 20.3432C17.2852 19.8855 18.0273 19.8855 18.4849 20.3432L18.8282 20.6864L21.5152 17.9995C21.9728 17.5418 22.7148 17.5418 23.1725 17.9995C23.6301 18.4571 23.6301 19.1991 23.1723 19.6567Z" fill="#DCF1F0"/>
</svg>
