<svg width="30" height="31" viewBox="0 0 30 31" fill="none" xmlns="http://www.w3.org/2000/svg">
<path d="M21.2822 9.2568L21.612 9.0359H27.95L28.2483 9.25686C29.323 8.29821 29.9998 6.90315 29.9998 5.34977C29.9998 2.45881 27.6563 0.115234 24.7653 0.115234C21.8743 0.115234 19.5308 2.45881 19.5308 5.34977C19.5308 6.90309 20.2076 8.29815 21.2822 9.2568Z" fill="#4EBBB2"/>
<path d="M21.5378 5.34977C21.5378 2.80211 23.358 0.679903 25.7688 0.211738C25.444 0.148691 25.1086 0.115234 24.7653 0.115234C21.8743 0.115234 19.5308 2.45881 19.5308 5.34977C19.5308 6.90315 20.2076 8.29821 21.2822 9.25686L21.612 9.03596H23.0568C22.1182 8.08985 21.5378 6.78778 21.5378 5.34977Z" fill="#4EBBB2"/>
<path d="M24.7654 5.34978C25.7378 5.34978 26.526 4.56155 26.526 3.58921C26.526 2.61688 25.7378 1.82864 24.7654 1.82864C23.7931 1.82864 23.0049 2.61688 23.0049 3.58921C23.0049 4.56155 23.7931 5.34978 24.7654 5.34978Z" fill="#E8F0FF"/>
<path d="M25.243 4.83414C24.5555 4.1466 24.5555 3.03185 25.243 2.34431C25.3599 2.22742 25.4893 2.13092 25.6267 2.05375C24.956 1.67711 24.0912 1.77361 23.5205 2.34431C22.833 3.03185 22.833 4.1466 23.5205 4.83414C24.0912 5.40478 24.956 5.50135 25.6267 5.12471C25.4893 5.04754 25.3599 4.95103 25.243 4.83414Z" fill="#E8F0FF"/>
<path d="M26.2352 7.00473C25.6124 7.00473 23.8044 7.00473 23.2963 7.00473C22.1842 7.00473 21.2827 7.90625 21.2827 9.01836V9.25684C22.208 10.0823 23.4282 10.5843 24.7658 10.5843C26.1033 10.5843 27.3235 10.0823 28.2488 9.25684V9.01836C28.2489 7.90625 27.3473 7.00473 26.2352 7.00473Z" fill="#FF95A0"/>
<path d="M17.8485 5.80249H12.1514C11.9014 5.80249 11.6987 5.59981 11.6987 5.34979C11.6987 5.09977 11.9014 4.89709 12.1514 4.89709H17.8485C18.0985 4.89709 18.3012 5.09977 18.3012 5.34979C18.3012 5.59981 18.0985 5.80249 17.8485 5.80249Z" fill="#4EBBB2"/>
<path d="M17.8485 25.3335H12.1514C11.9014 25.3335 11.6987 25.1308 11.6987 24.8808C11.6987 24.6307 11.9014 24.4281 12.1514 24.4281H17.8485C18.0985 24.4281 18.3012 24.6307 18.3012 24.8808C18.3012 25.1308 18.0985 25.3335 17.8485 25.3335Z" fill="#4EBBB2"/>
<path d="M5.23443 18.4165C4.98441 18.4165 4.78174 18.2138 4.78174 17.9638V12.2668C4.78174 12.0167 4.98441 11.8141 5.23443 11.8141C5.48445 11.8141 5.68713 12.0167 5.68713 12.2668V17.9638C5.68713 18.2138 5.48445 18.4165 5.23443 18.4165Z" fill="#4EBBB2"/>
<path d="M24.7652 18.4165C24.5152 18.4165 24.3125 18.2138 24.3125 17.9638V12.2668C24.3125 12.0167 24.5152 11.8141 24.7652 11.8141C25.0152 11.8141 25.2179 12.0167 25.2179 12.2668V17.9638C25.218 18.2138 25.0152 18.4165 24.7652 18.4165Z" fill="#4EBBB2"/>
<path d="M1.75143 9.2568L2.08119 9.0359H8.41922L8.71752 9.25686C9.79213 8.29821 10.4689 6.90315 10.4689 5.34977C10.469 2.45881 8.12543 0.115234 5.23453 0.115234C2.34357 0.115234 0 2.45881 0 5.34977C0 6.90309 0.676875 8.29815 1.75143 9.2568Z" fill="#4EBBB2"/>
<path d="M2.00707 5.34977C2.00707 2.80211 3.82729 0.679903 6.23807 0.211738C5.91322 0.148691 5.57778 0.115234 5.23453 0.115234C2.34358 0.115234 0 2.45881 0 5.34977C0 6.90315 0.676875 8.29821 1.75143 9.25686L2.08119 9.03596H3.52606C2.58738 8.08985 2.00707 6.78778 2.00707 5.34977Z" fill="#4EBBB2"/>
<path d="M5.23469 5.34978C6.20702 5.34978 6.99526 4.56155 6.99526 3.58921C6.99526 2.61688 6.20702 1.82864 5.23469 1.82864C4.26235 1.82864 3.47412 2.61688 3.47412 3.58921C3.47412 4.56155 4.26235 5.34978 5.23469 5.34978Z" fill="#E8F0FF"/>
<path d="M5.71226 4.83414C5.02472 4.1466 5.02472 3.03185 5.71226 2.34431C5.82915 2.22742 5.95858 2.13092 6.09593 2.05375C5.42521 1.67711 4.56042 1.77361 3.98978 2.34431C3.30224 3.03185 3.30224 4.1466 3.98978 4.83414C4.56042 5.40478 5.42521 5.50135 6.09593 5.12471C5.95853 5.04754 5.82915 4.95103 5.71226 4.83414Z" fill="#E8F0FF"/>
<path d="M6.70399 7.00473C6.08113 7.00473 4.27317 7.00473 3.7651 7.00473C2.65299 7.00473 1.75146 7.90625 1.75146 9.01836V9.25684C2.67678 10.0823 3.89693 10.5843 5.23451 10.5843C6.57209 10.5843 7.79225 10.0823 8.71756 9.25684V9.01836C8.71762 7.90625 7.8161 7.00473 6.70399 7.00473Z" fill="#5A82CA"/>
<path d="M21.2823 28.7878L21.6121 28.5668H27.9501L28.2484 28.7878C29.323 27.8291 29.9998 26.4341 29.9998 24.8807C29.9998 21.9897 27.6563 19.6461 24.7653 19.6461C21.8743 19.6461 19.5308 21.9897 19.5308 24.8807C19.5309 26.4341 20.2077 27.8291 21.2823 28.7878Z" fill="#4EBBB2"/>
<path d="M21.5378 24.8807C21.5378 22.333 23.358 20.2108 25.7688 19.7427C25.444 19.6795 25.1086 19.6461 24.7653 19.6461C21.8743 19.6461 19.5308 21.9897 19.5308 24.8807C19.5308 26.4341 20.2076 27.8291 21.2822 28.7878L21.612 28.5668H23.0568C22.1182 27.6208 21.5378 26.3187 21.5378 24.8807Z" fill="#4EBBB2"/>
<path d="M24.7654 24.8807C25.7378 24.8807 26.526 24.0925 26.526 23.1202C26.526 22.1478 25.7378 21.3596 24.7654 21.3596C23.7931 21.3596 23.0049 22.1478 23.0049 23.1202C23.0049 24.0925 23.7931 24.8807 24.7654 24.8807Z" fill="#E8F0FF"/>
<path d="M25.243 24.365C24.5555 23.6775 24.5555 22.5627 25.243 21.8752C25.3599 21.7583 25.4893 21.6618 25.6267 21.5846C24.956 21.208 24.0912 21.3045 23.5205 21.8752C22.833 22.5627 22.833 23.6775 23.5205 24.365C24.0912 24.9356 24.956 25.0322 25.6267 24.6556C25.4893 24.5784 25.3599 24.4819 25.243 24.365Z" fill="#E8F0FF"/>
<path d="M26.2352 26.5357C25.6124 26.5357 23.8044 26.5357 23.2963 26.5357C22.1842 26.5357 21.2827 27.4372 21.2827 28.5493V28.7878C22.208 29.6133 23.4282 30.1153 24.7658 30.1153C26.1033 30.1153 27.3235 29.6133 28.2488 28.7878V28.5493C28.2489 27.4372 27.3473 26.5357 26.2352 26.5357Z" fill="#9A87E9"/>
<path d="M1.75143 28.7878L2.08119 28.5668H8.41922L8.71752 28.7878C9.79213 27.8291 10.4689 26.4341 10.4689 24.8807C10.4689 21.9897 8.12537 19.6461 5.23442 19.6461C2.34357 19.6462 0 21.9897 0 24.8807C0 26.4341 0.676875 27.8291 1.75143 28.7878Z" fill="#4EBBB2"/>
<path d="M2.00707 24.8807C2.00707 22.333 3.82729 20.2108 6.23807 19.7427C5.91322 19.6795 5.57783 19.6461 5.23453 19.6461C2.34358 19.6462 0 21.9897 0 24.8807C0 26.4341 0.676875 27.8291 1.75143 28.7878L2.08119 28.5668H3.52606C2.58738 27.6208 2.00707 26.3187 2.00707 24.8807Z" fill="#4EBBB2"/>
<path d="M5.23469 24.8807C6.20702 24.8807 6.99526 24.0925 6.99526 23.1202C6.99526 22.1478 6.20702 21.3596 5.23469 21.3596C4.26235 21.3596 3.47412 22.1478 3.47412 23.1202C3.47412 24.0925 4.26235 24.8807 5.23469 24.8807Z" fill="#E8F0FF"/>
<path d="M5.71226 24.365C5.02472 23.6775 5.02472 22.5627 5.71226 21.8752C5.82915 21.7583 5.95858 21.6618 6.09593 21.5846C5.42521 21.208 4.56042 21.3045 3.98978 21.8752C3.30224 22.5627 3.30224 23.6775 3.98978 24.365C4.56042 24.9356 5.42521 25.0322 6.09593 24.6556C5.95853 24.5784 5.82915 24.4819 5.71226 24.365Z" fill="#E8F0FF"/>
<path d="M6.70399 26.5357C6.08113 26.5357 4.27317 26.5357 3.7651 26.5357C2.65299 26.5357 1.75146 27.4372 1.75146 28.5493V28.7878C2.67678 29.6133 3.89693 30.1153 5.23451 30.1153C6.57209 30.1153 7.79225 29.6133 8.71756 28.7878V28.5493C8.71762 27.4372 7.8161 26.5357 6.70399 26.5357Z" fill="#FFC862"/>
</svg>
