<svg fill="none" height="109" viewBox="0 0 109 109" width="109" xmlns="http://www.w3.org/2000/svg"><path d="m23.625 0c-13.0477 0-23.625 10.5773-23.625 23.625v60.75c0 13.0478 10.5773 23.625 23.625 23.625h12.3751v-108z" fill="#73af00"/><path d="m72.0014 0h-36.0007v108h36.0007z" fill="#f5f5f5"/><path d="m84.375 0h-12.3751v108h12.3751c13.0477 0 23.625-10.5772 23.625-23.625v-60.75c0-13.0477-10.5773-23.625-23.625-23.625z" fill="#ff4b55"/><path d="m57.2115 55.6655-3.2115 1.6059v1.6059h1.6059z" fill="#ffd250"/><path d="m54 62.8918c-.4438 0-.8028-.359-.8028-.8028v-3.2118c0-.4438.359-.8028.8028-.8028s.8028.359.8028.8028v3.2118c0 .4436-.359.8028-.8028.8028z" fill="#00c3a0"/><path d="m54 59.6801c-3.1535 0-6.199-1.2169-8.5757-3.4265-.3246-.3019-.3434-.81-.0415-1.1346.3042-.3238.8115-.3411 1.1346-.0416 2.0786 1.9328 4.736 2.9968 7.4826 2.9968s5.404-1.064 7.4826-2.9968c.3238-.3004.8311-.2839 1.1346.0416.3019.3246.2831.8327-.0415 1.1346-2.3767 2.2096-5.4222 3.4265-8.5757 3.4265z" fill="#00c3a0"/><path d="m54 62.8919c-2.0583 0-4.0521-.6014-5.7662-1.7398l.8891-1.3376c2.8981 1.9257 6.8561 1.9257 9.7542 0l.8891 1.3376c-1.7141 1.1384-3.7079 1.7398-5.7662 1.7398z" fill="#00aadc"/><path d="m52.7287 52.0527-1.773 2.7432-.3012.9032 4.6168-1.0705z" fill="#732d37"/><path d="m49.086 56.5814c-2.1224 0-4.6699-1.7862-5.346-5.7662l1.5839-.2681c.5613 3.3096 2.5977 4.431 3.8201 4.4278.3748-.0101.7661-.1396.7967-.4045.0361-.3169.0447-.3922-.795-.6759-.4563-.1544-.9739-.3293-1.3369-.7448-1.4686-1.6772.5197-3.4524 1.4749-4.3055.1685-.1506.2383-.2784.2204-.3269-.0525-.1371-.3677-.3449-.7229-.3449-1.0201 0-1.794-.5763-2.0191-1.5031-.2337-.9598.2078-1.9712 1.0484-2.4056l.737 1.427c-.1968.1019-.2753.3922-.2251.5991.0196.0831.0675.2767.4586.2767.9832 0 1.9187.5803 2.2228 1.3785.1302.3403.3262 1.2247-.6507 2.0974-1.0547.9416-1.6858 1.6506-1.3361 2.0496.0791.0901.4187.2055.643.2808.7228.2447 2.0684.6995 1.8754 2.3813-.1206 1.0576-1.0648 1.7917-2.3475 1.8261-.0336.0004-.0681.0012-.1019.0012z" fill="#aad264"/><path d="m55.6059 47.6366s1.6058-3.2115-1.6059-4.8174c0 0 11.2406-1.6059 9.6348 12.8465l-.0009-.0006c-1.0538-.8431-2.6185-2.3838-3.1773-3.6123l-4.8509-2.8103v-1.6059z" fill="#874150"/><path d="m54 50.8482 8.0291 4.8174s0 0-3.2115 1.6059l-4.8176-4.8174z" fill="#732d37"/><path d="m50.7885 46.0307c.8867 0 1.6058.7189 1.6058 1.6059l-.0017.0017c-.9578.9578-1.1953 2.4213-.5895 3.6331l.3628.7259c.1512.3025.3504.5788.5896.818l4.4562 4.4563v-2.2193c0-2.7648-.6438-5.4913-1.8801-7.9642-.8161-1.632-2.4842-2.6631-4.3088-2.6631h-.2343z" fill="#783c46"/><path d="m50.7885 44.4249-1.6059 1.6058v1.6059s1.9103-.9686 2.554-1.277c.45-.2156.3681-.7256.1099-.9712-.201-.1911-1.058-.9635-1.058-.9635z" fill="#ffd250"/><path d="m54 66.1034c-7.5265 0-13.6494-6.1229-13.6494-13.6494h1.6059c0 6.6412 5.4023 12.0437 12.0437 12.0437s12.0437-5.4023 12.0437-12.0437h1.6059c-.0005 7.5265-6.1234 13.6494-13.6498 13.6494z" fill="#aad264"/><g fill="#ffe15a"><path d="m42.042 58.3093c.6019 0 1.0899-.488 1.0899-1.0899 0-.602-.488-1.0899-1.0899-1.0899-.602 0-1.09.4879-1.09 1.0899 0 .6019.488 1.0899 1.09 1.0899z"/><path d="m44.4509 62.1564c.6019 0 1.0899-.4879 1.0899-1.0899 0-.6019-.488-1.0899-1.0899-1.0899-.602 0-1.09.488-1.09 1.0899 0 .602.488 1.0899 1.09 1.0899z"/><path d="m48.3659 65.0673c.6019 0 1.0899-.488 1.0899-1.0899 0-.602-.488-1.0899-1.0899-1.0899-.602 0-1.09.4879-1.09 1.0899 0 .6019.488 1.0899 1.09 1.0899z"/><path d="m66.072 58.3089c.6019 0 1.0899-.488 1.0899-1.09 0-.6019-.488-1.0899-1.0899-1.0899-.602 0-1.09.488-1.09 1.0899 0 .602.488 1.09 1.09 1.09z"/><path d="m63.6631 62.1564c.6019 0 1.0899-.4879 1.0899-1.0899 0-.6019-.488-1.0899-1.0899-1.0899-.602 0-1.0899.488-1.0899 1.0899 0 .602.4879 1.0899 1.0899 1.0899z"/><path d="m59.7481 65.0673c.6019 0 1.0899-.488 1.0899-1.0899 0-.602-.488-1.0899-1.0899-1.0899-.602 0-1.09.4879-1.09 1.0899 0 .6019.488 1.0899 1.09 1.0899z"/></g><path d="m54.8028 63.6946h-1.6058c-.8868 0-1.6059-.7189-1.6059-1.6059 0-.8868.7189-1.6059 1.6059-1.6059h1.6058c.8868 0 1.6059.7189 1.6059 1.6059s-.7189 1.6059-1.6059 1.6059z" fill="#ffb478"/><path d="m60.4568 52.0526c.5354 1.5723 1.6727 3.0109 3.1773 3.6123l.0009.0006c1.6056-14.4522-9.635-12.8465-9.635-12.8465 8.0291 0 6.4568 9.2336 6.4568 9.2336z" fill="#9b4b5a"/></svg>