<?xml version="1.0" encoding="UTF-8"?> <svg xmlns="http://www.w3.org/2000/svg" width="117" height="26" viewBox="0 0 117 26" fill="none"><g clip-path="url(#clip0)"><path d="M41.5182 14.8516L40.8298 16.779H40.7724C40.6577 16.3444 40.4473 15.683 40.1031 14.8894L36.4122 5.72518H32.7979V20.3313H35.1883V11.3182C35.1883 10.7513 35.1883 10.1089 35.1692 9.31529C35.1501 8.91849 35.1118 8.61617 35.0927 8.38942H35.1501C35.2648 8.95628 35.3987 9.37198 35.4943 9.63651L39.931 20.2935H41.6139L46.0123 9.54204C46.1079 9.2964 46.2035 8.80512 46.2992 8.38942H46.3565C46.2992 9.46646 46.2609 10.4301 46.2418 11.0159V20.2746H48.7852V5.68739H45.3047L41.5182 14.8516ZM51.1948 9.80657H53.6809V20.2746H51.1948V9.80657ZM52.457 5.38506C52.0363 5.38506 51.692 5.53622 51.4052 5.80076C51.1183 6.06529 50.9653 6.40541 50.9653 6.82111C50.9653 7.21791 51.1183 7.55803 51.4052 7.82256C51.692 8.0871 52.0363 8.21936 52.457 8.21936C52.8777 8.21936 53.2411 8.0682 53.5088 7.82256C53.7956 7.55803 53.9486 7.21791 53.9486 6.82111C53.9486 6.4243 53.7956 6.08419 53.5088 5.80076C53.2602 5.53622 52.8968 5.38506 52.457 5.38506ZM62.4969 9.7121C62.0379 9.61762 61.5599 9.56093 61.1009 9.56093C59.9726 9.56093 58.9399 9.80657 58.0793 10.2979C57.2188 10.7891 56.5303 11.4694 56.0905 12.3197C55.6315 13.1888 55.402 14.1903 55.402 15.3429C55.402 16.3444 55.6315 17.2324 56.0714 18.0449C56.5112 18.8385 57.1232 19.481 57.9455 19.9156C58.7296 20.3502 59.6475 20.5769 60.6802 20.5769C61.8658 20.5769 62.8794 20.3313 63.6826 19.8778L63.7017 19.8589V17.5915L63.6061 17.667C63.2427 17.9316 62.822 18.1583 62.4013 18.2906C61.9614 18.4417 61.5599 18.5173 61.2156 18.5173C60.2212 18.5173 59.4371 18.2339 58.8825 17.6104C58.3088 17.0057 58.022 16.1743 58.022 15.1351C58.022 14.058 58.3088 13.2077 58.9017 12.5842C59.4945 11.9606 60.2786 11.6394 61.2347 11.6394C62.0379 11.6394 62.8603 11.904 63.6061 12.433L63.7017 12.5086V10.1089L63.6826 10.09C63.3575 9.95774 62.9941 9.80657 62.4969 9.7121ZM70.701 9.63651C70.089 9.63651 69.5153 9.82547 69.0181 10.2223C68.5974 10.5624 68.3105 11.0537 68.0619 11.6394H68.0428V9.80657H65.5567V20.2746H68.0428V14.9272C68.0428 14.0202 68.234 13.2644 68.6547 12.7165C69.0755 12.1496 69.6109 11.8662 70.2611 11.8662C70.4906 11.8662 70.7201 11.9229 71.0069 11.9606C71.2747 12.0362 71.4659 12.1118 71.5998 12.2063L71.6954 12.2819V9.82547L71.638 9.80657C71.4659 9.6932 71.1217 9.63651 70.701 9.63651ZM77.4707 9.57983C75.7305 9.57983 74.3345 10.09 73.3592 11.0915C72.3647 12.0929 71.8866 13.4723 71.8866 15.2106C71.8866 16.8356 72.3839 18.1583 73.34 19.122C74.2962 20.0667 75.5966 20.558 77.2221 20.558C78.9241 20.558 80.2819 20.0479 81.2572 19.0275C82.2517 18.0072 82.7298 16.6467 82.7298 14.965C82.7298 13.3022 82.2708 11.9795 81.3337 11.0159C80.4349 10.0522 79.1154 9.57983 77.4707 9.57983ZM79.4596 17.6292C79.0006 18.215 78.2739 18.4984 77.3751 18.4984C76.4763 18.4984 75.7496 18.215 75.2333 17.5915C74.7169 17.0057 74.4683 16.1554 74.4683 15.0784C74.4683 13.9635 74.7361 13.1133 75.2333 12.5086C75.7496 11.904 76.4572 11.6016 77.356 11.6016C78.2357 11.6016 78.9241 11.8851 79.4214 12.4708C79.9186 13.0566 80.1863 13.9069 80.1863 15.0217C80.1481 16.1554 79.9377 17.0435 79.4596 17.6292ZM88.2756 14.1525C87.4916 13.8313 86.9943 13.5856 86.7649 13.3778C86.5736 13.1888 86.478 12.9243 86.478 12.5842C86.478 12.3008 86.5927 12.0173 86.8796 11.8284C87.1664 11.6394 87.4916 11.5449 87.9696 11.5449C88.3904 11.5449 88.8302 11.6205 89.2509 11.7339C89.6716 11.8473 90.0541 12.0173 90.3601 12.2441L90.4557 12.3197V10.0144L90.3983 9.99553C90.1115 9.88215 89.729 9.76878 89.2701 9.67431C88.8111 9.59872 88.3904 9.56093 88.0461 9.56093C86.8605 9.56093 85.8852 9.84436 85.1202 10.4679C84.3553 11.0537 83.9919 11.8473 83.9919 12.7731C83.9919 13.2644 84.0684 13.699 84.2405 14.058C84.4126 14.417 84.6613 14.7572 85.0055 15.0406C85.3497 15.3051 85.8469 15.6074 86.5354 15.8909C87.1091 16.1365 87.5489 16.3255 87.8167 16.4766C88.0844 16.6278 88.2565 16.7979 88.3904 16.9301C88.486 17.0813 88.5434 17.2702 88.5434 17.5159C88.5434 18.215 88.0079 18.5551 86.9178 18.5551C86.4971 18.5551 86.0573 18.4795 85.5409 18.3095C85.0246 18.1394 84.5465 17.8938 84.1449 17.6104L84.0493 17.5348V19.9345L84.1067 19.9534C84.47 20.1234 84.9099 20.2368 85.4453 20.3691C85.9808 20.4635 86.4589 20.5391 86.8796 20.5391C88.1609 20.5391 89.2127 20.2557 89.9585 19.6322C90.7235 19.0275 91.125 18.2528 91.125 17.2513C91.125 16.5522 90.9338 15.9287 90.5131 15.4563C89.9585 15.0028 89.2701 14.5304 88.2756 14.1525ZM97.6845 9.57983C95.9442 9.57983 94.5482 10.09 93.5729 11.0915C92.5976 12.0929 92.1004 13.4723 92.1004 15.2106C92.1004 16.8356 92.5976 18.1583 93.5538 19.122C94.5099 20.0667 95.8104 20.558 97.4359 20.558C99.1379 20.558 100.496 20.0479 101.471 19.0275C102.465 18.0072 102.943 16.6467 102.943 14.965C102.943 13.3022 102.485 11.9795 101.547 11.0159C100.649 10.0522 99.3291 9.57983 97.6845 9.57983ZM99.6542 17.6292C99.1952 18.215 98.4685 18.4984 97.5697 18.4984C96.6518 18.4984 95.9442 18.215 95.4279 17.5915C94.9115 17.0057 94.6629 16.1554 94.6629 15.0784C94.6629 13.9635 94.9307 13.1133 95.4279 12.5086C95.9442 11.904 96.6518 11.6016 97.5506 11.6016C98.4112 11.6016 99.1187 11.8851 99.616 12.4708C100.113 13.0566 100.381 13.9069 100.381 15.0217C100.381 16.1554 100.132 17.0435 99.6542 17.6292ZM116.234 11.8284V9.80657H113.729V6.70774L113.653 6.72663L111.281 7.42576L111.224 7.44465V9.80657H107.476V8.4839C107.476 7.87925 107.629 7.40686 107.897 7.10454C108.164 6.80221 108.566 6.65105 109.063 6.65105C109.407 6.65105 109.771 6.72663 110.172 6.89669L110.268 6.95337V4.8182L110.21 4.79931C109.866 4.68593 109.407 4.61035 108.814 4.61035C108.069 4.61035 107.418 4.78041 106.826 5.06384C106.233 5.38506 105.793 5.81965 105.468 6.40541C105.143 6.97227 104.971 7.61471 104.971 8.35163V9.80657H103.23V11.8095H104.971V20.2746H107.476V11.8284H111.224V17.2136C111.224 19.4243 112.276 20.5391 114.379 20.5391C114.724 20.5391 115.087 20.4824 115.431 20.4258C115.795 20.3502 116.062 20.2557 116.215 20.1801L116.234 20.1612V18.1394L116.139 18.215C115.986 18.3095 115.852 18.3851 115.622 18.4417C115.431 18.4984 115.259 18.5173 115.125 18.5173C114.628 18.5173 114.284 18.404 114.035 18.1205C113.806 17.856 113.691 17.4214 113.691 16.779V11.8284H116.234Z" fill="#737373"></path><path d="M0.746582 0.8125H12.4694V12.3953H0.746582V0.8125Z" fill="#F25022"></path><path d="M13.6934 0.8125H25.4162V12.3953H13.6934V0.8125Z" fill="#7FBA00"></path><path d="M0.746582 13.6047H12.4694V25.1876H0.746582V13.6047Z" fill="#00A4EF"></path><path d="M13.6934 13.6047H25.4162V25.1876H13.6934V13.6047Z" fill="#FFB900"></path></g><defs><clipPath id="clip0"><rect width="115.507" height="24.375" fill="white" transform="translate(0.746582 0.8125)"></rect></clipPath></defs></svg> 