<svg width="512" height="512" viewBox="0 0 512 512" fill="none" xmlns="http://www.w3.org/2000/svg">
<path d="M69.977 222.958C55.255 222.958 43.209 235.004 43.209 249.726C43.209 264.448 55.255 276.494 69.977 276.494H118.499L130.475 222.96H69.977V222.958Z" fill="#47C2B4"/>
<path d="M429.352 222.958C444.074 222.958 456.12 235.004 456.12 249.726C456.12 264.448 444.074 276.494 429.352 276.494H380.829L368.854 222.96H429.352V222.958Z" fill="#47C2B4"/>
<path d="M54.5742 346.562V400.954H444.752V346.562C444.752 319.4 422.732 297.38 395.57 297.38H103.758C76.5942 297.38 54.5742 319.4 54.5742 346.562Z" fill="#47C2B4"/>
<path d="M356.273 442.4V457.928C356.273 478.306 372.933 494.966 393.289 494.966C413.665 494.966 430.327 478.306 430.327 457.928V442.4H356.273Z" fill="#464442"/>
<path d="M469.064 415.652V427.704C469.064 435.846 462.836 442.4 455.162 442.4H44.1676C36.4936 442.4 30.2656 435.846 30.2656 427.704V415.652C30.2656 407.51 36.4936 400.956 44.1676 400.956H455.164C462.836 400.956 469.064 407.51 469.064 415.652Z" fill="#47C2B4"/>
<path d="M154.765 375.096H135.133C124.783 375.096 116.393 366.706 116.393 356.356C116.393 346.006 124.783 337.616 135.133 337.616H154.765C165.115 337.616 173.505 346.006 173.505 356.356C173.505 366.706 165.115 375.096 154.765 375.096Z" fill="#FFC862"/>
<path d="M364.198 375.096H344.566C334.216 375.096 325.826 366.706 325.826 356.356C325.826 346.006 334.216 337.616 344.566 337.616H364.198C374.548 337.616 382.938 346.006 382.938 356.356C382.938 366.706 374.548 375.096 364.198 375.096Z" fill="#FFC862"/>
<path d="M364.438 164.08C359.46 152.92 348.386 145.734 336.166 145.734C330.214 145.734 160.594 145.734 163.162 145.734C150.944 145.734 139.868 152.922 134.89 164.08L69.0195 311.764H430.31L364.438 164.08Z" fill="#47C2B4"/>
<path d="M123.373 276.494L165.963 181.004H333.367L375.955 276.494H123.373Z" fill="#FFF2D9"/>
<path d="M210.067 180.996L167.477 276.496H123.385L165.977 180.996H210.067Z" fill="#FFF2D9"/>
<path d="M375.944 276.496H331.854L289.262 180.996H333.352L375.944 276.496Z" fill="#FFF2D9"/>
<path d="M354.52 115.1C354.498 115.496 354.47 116.012 354.43 116.766C354.458 116.208 354.484 115.65 354.52 115.1Z" fill="#FFC862"/>
<path d="M354.429 116.766C354.409 117.15 354.381 117.52 354.367 117.914C354.391 117.47 354.411 117.102 354.429 116.766Z" fill="#FFC862"/>
<path d="M354.323 17.0339H354.317C354.317 17.0339 342.983 49.8499 318.371 58.0539C318.371 58.0539 352.559 66.3359 354.267 117.914C357.431 79.4039 374.531 61.8839 390.263 58.0539C365.651 49.8499 354.323 17.0339 354.323 17.0339Z" fill="#FFC862"/>
<path d="M73.8517 157.1C73.8297 157.496 73.8017 158.012 73.7617 158.766C73.7897 158.208 73.8177 157.65 73.8517 157.1Z" fill="#FFC862"/>
<path d="M73.7612 158.766C73.7412 159.15 73.7132 159.52 73.6992 159.914C73.7252 159.47 73.7432 159.102 73.7612 158.766Z" fill="#FFC862"/>
<path d="M73.6551 59.0339H73.6491C73.6491 59.0339 62.3151 91.8499 37.7031 100.054C37.7031 100.054 71.8911 108.336 73.5991 159.914C76.7631 121.404 93.8631 103.884 109.595 100.054C84.9831 91.8499 73.6551 59.0339 73.6551 59.0339Z" fill="#FFC862"/>
<path d="M445.823 102.868H445.817C445.817 102.868 434.483 135.684 409.871 143.888C409.871 143.888 444.059 152.17 445.767 203.748C448.931 165.238 466.031 147.718 481.763 143.888C457.151 135.684 445.823 102.868 445.823 102.868Z" fill="#FFC862"/>
<path d="M455.162 392.956H452.754V346.57C452.754 331.816 447.18 317.916 437.05 307.236L426.906 284.496H429.35C448.526 284.496 464.128 268.896 464.128 249.718C464.128 230.558 448.526 214.97 429.35 214.97H395.896L371.746 160.82C365.488 146.796 351.524 137.734 336.168 137.734H163.134C163.126 137.734 163.116 137.734 163.108 137.734C147.77 137.756 133.832 146.814 127.584 160.82L103.432 214.97H69.9777C50.8017 214.97 35.1997 230.558 35.1997 249.718C35.1997 268.894 50.8017 284.496 69.9777 284.496H72.4217L62.2757 307.24C52.1477 317.922 46.5737 331.818 46.5737 346.57V392.956H44.1657C32.0897 392.956 22.2637 403.138 22.2637 415.654V427.704C22.2637 440.22 32.0897 450.402 44.1657 450.402H60.9997V457.93C60.9997 482.764 81.2057 502.968 106.04 502.968C130.862 502.968 151.056 482.764 151.056 457.93V450.4H348.272V457.928C348.272 482.762 368.468 502.966 393.29 502.966C418.124 502.966 438.328 482.762 438.328 457.928V450.4H455.162C467.238 450.4 477.064 440.218 477.064 427.702V415.652C477.064 403.136 467.238 392.956 455.162 392.956ZM429.352 230.97C439.706 230.97 448.13 239.38 448.13 249.718C448.13 260.072 439.706 268.496 429.352 268.496H419.772L403.034 230.97H429.352ZM142.2 167.338C145.886 159.074 154.114 153.734 163.164 153.734H336.168C345.216 153.734 353.448 159.074 357.132 167.34L417.982 303.766H81.3477L142.2 167.338ZM69.9777 268.496C59.6237 268.496 51.1997 260.072 51.1997 249.718C51.1997 239.38 59.6237 230.97 69.9777 230.97H96.2957L79.5577 268.496H69.9777ZM62.5757 346.57C62.5757 336.63 66.1117 327.24 72.5417 319.766H426.788C433.216 327.24 436.752 336.63 436.752 346.57V392.948H62.5757V346.57ZM135.056 457.928C135.056 473.94 122.04 486.966 106.04 486.966C90.0277 486.966 76.9997 473.94 76.9997 457.928V450.4H135.054L135.056 457.928ZM422.328 457.928C422.328 473.94 409.302 486.966 393.29 486.966C377.29 486.966 364.272 473.94 364.272 457.928V450.4H422.326V457.928H422.328ZM461.064 427.704C461.064 431.398 458.416 434.402 455.162 434.402H44.1677C40.9137 434.402 38.2657 431.398 38.2657 427.704V415.654C38.2657 411.96 40.9137 408.956 44.1677 408.956H455.162C458.416 408.956 461.064 411.96 461.064 415.654V427.704Z" fill="#47C2B4"/>
<path d="M123.374 284.494H375.956C381.744 284.494 385.62 278.52 383.262 273.236L340.672 177.748C339.384 174.864 336.524 173.006 333.366 173.006H165.962C162.804 173.006 159.942 174.864 158.656 177.748L116.068 273.236C113.712 278.52 117.586 284.494 123.374 284.494ZM171.154 189.004H328.176L363.63 268.492H135.704L171.154 189.004Z" fill="#47C2B4"/>
<path d="M291.85 348.358H207.48C196.91 348.358 196.896 364.358 207.48 364.358H291.85C302.42 364.358 302.434 348.358 291.85 348.358Z" fill="#464442"/>
<path d="M154.766 329.618H135.134C99.7999 329.618 99.7879 383.098 135.134 383.098H154.766C190.1 383.096 190.102 329.618 154.766 329.618ZM154.766 367.096H135.134C120.942 367.096 120.938 345.616 135.134 345.616H154.766C168.954 345.618 168.962 367.096 154.766 367.096Z" fill="#FFC862"/>
<path d="M364.198 329.618H344.568C309.234 329.618 309.222 383.098 344.568 383.098H364.198C399.532 383.096 399.542 329.618 364.198 329.618ZM364.198 367.096H344.568C330.376 367.096 330.372 345.616 344.568 345.616H364.198C378.39 345.618 378.394 367.096 364.198 367.096Z" fill="#FFC862"/>
<path d="M264.165 235.132H263.165C252.595 235.132 252.581 251.132 263.165 251.132H264.165C274.735 251.132 274.749 235.132 264.165 235.132Z" fill="#FFC862"/>
<path d="M324.165 235.132H294.165C283.595 235.132 283.581 251.132 294.165 251.132H324.165C334.735 251.132 334.749 235.132 324.165 235.132Z" fill="#FFC862"/>
<path d="M347 450V465.656C347 486.202 367.922 503 393.486 503C419.075 503 440 486.202 440 465.656V450H347Z" fill="#464442"/>
<path d="M61 450V465.656C61 486.202 81.9223 503 107.486 503C133.075 503 154 486.202 154 465.656V450H61Z" fill="#464442"/>
</svg>
