<svg width="30" height="29" viewBox="0 0 30 29" fill="none" xmlns="http://www.w3.org/2000/svg">
<path d="M30 10.8125V12.8L16.1625 20.025C15.4375 20.4012 14.5638 20.4012 13.8387 20.025L0 12.8V10.8125C0 9.77498 0.575 8.82498 1.4875 8.33748L13.675 1.82498C14.4987 1.38748 15.5 1.38748 16.3237 1.82498L28.5112 8.33748C29.425 8.82498 30 9.77498 30 10.8125Z" fill="#5AC2BA"/>
<path d="M26.25 3.4375C26.25 1.53875 24.7113 0 22.8125 0H7.1875C5.28875 0 3.75 1.53875 3.75 3.4375V25.0875C3.75 25.605 4.17 26.025 4.6875 26.025H25.3125C25.83 26.025 26.25 25.605 26.25 25.0875V3.4375Z" fill="#E8F0FF"/>
<path d="M30 12.8V25.9375C30 27.4875 28.7375 28.75 27.1875 28.75H2.8125C1.2625 28.75 0 27.4875 0 25.9375V12.8L13.8375 20.0237C14.5625 20.4 15.4362 20.4 16.1612 20.0237L30 12.8Z" fill="#4EBBB2"/>
<path d="M12.8125 15.3438C11.2625 15.3438 10 14.0825 10 12.5313C10 11.5463 10.5188 10.6313 11.3538 10.1463C11.8013 9.88625 12.375 10.0388 12.635 10.485C12.895 10.9325 12.7437 11.5063 12.2962 11.7663C12.0325 11.92 11.875 12.2063 11.875 12.5313C11.875 13.0488 12.2963 13.4688 12.8125 13.4688C13.3287 13.4688 13.75 13.0475 13.75 12.5313C13.75 12.3975 13.7238 12.2825 13.6713 12.1825C13.43 11.725 13.6037 11.1575 14.0612 10.915C14.5175 10.6713 15.085 10.8475 15.3287 11.305C15.525 11.6775 15.625 12.09 15.625 12.5313C15.625 14.0825 14.3625 15.3438 12.8125 15.3438Z" fill="#9A87E9"/>
<path d="M21.5625 14.7487C21.475 14.7487 21.385 14.7362 21.2987 14.7112L8.17375 10.8687C7.775 10.7512 7.5 10.385 7.5 9.96872V8.09372C7.5 7.67497 7.7775 7.30747 8.18 7.19247L21.305 3.44247C21.5863 3.36372 21.8938 3.41747 22.1263 3.59622C22.3625 3.77247 22.5 4.04997 22.5 4.34372V13.8112C22.5 14.1062 22.3612 14.3837 22.1237 14.5612C21.96 14.685 21.7625 14.7487 21.5625 14.7487Z" fill="#FFC862"/>
<path d="M21.5625 15.2812C21.045 15.2812 20.625 14.8612 20.625 14.3438V3.71875C20.625 3.20125 21.045 2.78125 21.5625 2.78125C22.08 2.78125 22.5 3.20125 22.5 3.71875V14.3438C22.5 14.8612 22.08 15.2812 21.5625 15.2812Z" fill="#9A87E9"/>
<path d="M8.4375 11.5313C7.92 11.5313 7.5 11.1113 7.5 10.5938V7.4688C7.5 6.9513 7.92 6.5313 8.4375 6.5313C8.955 6.5313 9.375 6.9513 9.375 7.4688V10.5938C9.375 11.1113 8.955 11.5313 8.4375 11.5313Z" fill="#9A87E9"/>
</svg>
