<svg width="24" height="30" viewBox="0 0 24 30" fill="none" xmlns="http://www.w3.org/2000/svg">
<path d="M15.1828 1.40348C12.9194 -0.623215 9.44086 -0.432363 7.41307 1.82981C6.68708 2.63971 6.21757 3.64659 6.06401 4.72315C5.81834 6.41395 6.37283 8.12281 7.56464 9.3476C8.5086 10.3284 9.028 11.6414 9.01024 13.0022V13.5021H14.0123V13.0022C14.0177 11.6101 14.5544 10.2726 15.513 9.26261C17.5953 7.0505 17.489 3.57016 15.2758 1.48897C15.2451 1.4601 15.2141 1.4316 15.1828 1.40348Z" fill="#FFC862"/>
<path d="M0.476919 9.03265L0.0767508 9.07264L0.0367341 9.47259C0.00672151 9.60758 -0.293404 12.7172 1.50735 14.502C2.8129 15.8118 4.82874 16.0018 5.86918 16.0018C6.09465 16.0039 6.32005 15.9939 6.54446 15.9718L6.94463 15.9318L6.98465 15.5319C6.98465 15.3969 7.31478 12.2873 5.51903 10.4975C3.72328 8.70768 0.611975 9.00265 0.476919 9.03265Z" fill="#4EBBB2"/>
<path d="M22.9865 11.4723L22.9465 11.0724L22.5463 11.0324C22.4113 11.0024 19.3 10.7074 17.5142 12.5022C15.7285 14.297 16.0136 17.4016 16.0486 17.5366L16.0886 17.9366L16.4888 17.9766C16.7132 17.9986 16.9386 18.0086 17.1641 18.0066C18.2045 18.0066 20.2204 17.8216 21.5259 16.5067C23.3167 14.717 23.0165 11.6073 22.9865 11.4723Z" fill="#4EBBB2"/>
<path d="M20.3703 14.357L19.66 13.6471L14.3077 19.0014H12.0118V15.0019H11.0113V17.0017H8.71537L3.36313 11.6473L2.65283 12.3572L8.3052 18.0015H11.0113V21.5011H12.0118V20.0013H14.7179L20.3703 14.357Z" fill="#4B4B4B"/>
<path d="M13.8677 4.85806L13.1574 4.14815L11.5117 5.79795L9.86606 4.14815L9.15576 4.85806L11.0115 6.70784V13.0021H12.012V6.70784L13.8677 4.85806Z" fill="white"/>
<path d="M13.5126 12.5021H9.51088C8.6821 12.5021 8.01025 13.1736 8.01025 14.0019C8.01025 14.8303 8.6821 15.5017 9.51088 15.5017H13.5126C14.3413 15.5017 15.0132 14.8303 15.0132 14.0019C15.0132 13.1736 14.3413 12.5021 13.5126 12.5021Z" fill="#FF95A0"/>
<path d="M17.5143 21.0011H5.50928V24.5007H6.62975L8.13038 30H14.8932L16.3938 24.5007H17.5143V21.0011Z" fill="#4EBBB2"/>
<path d="M6.89951 25.5006H16.1234L16.3935 24.5007H6.62939L6.89951 25.5006Z" fill="#4B4B4B"/>
</svg>
