<svg width="29" height="30" viewBox="0 0 29 30" fill="none" xmlns="http://www.w3.org/2000/svg">
<path d="M4.42627 25.5738L14.2623 30L24.0984 25.5738V15.2459L14.2623 19.6721L4.42627 15.2459V25.5738Z" fill="#4EBBB2"/>
<path d="M17.7048 24.5902L27.5409 19.6721L24.0983 15.2459L14.2622 19.6721L17.7048 24.5902Z" fill="#67DAD0"/>
<path d="M13.4408 11.1887L14.2621 11.8034L12.2949 10.328L13.4408 11.1887Z" fill="#F9F6ED"/>
<path d="M15.0835 11.1886L16.2294 10.3279L14.2622 11.8033L15.0835 11.1886Z" fill="#F9F6ED"/>
<path d="M0.983398 19.6721L10.8195 24.5902L14.2621 19.6721L4.42602 15.2459L0.983398 19.6721Z" fill="#67DAD0"/>
<path d="M14.2623 10.8197L4.42627 15.2459L14.2623 19.6721L24.0984 15.2459L14.2623 10.8197Z" fill="#4B4B4B"/>
<path d="M18.6884 7.377L14.2622 10.8196L24.0983 15.2459L28.5245 11.8032L18.6884 7.377Z" fill="#67DAD0"/>
<path d="M9.83607 7.37701L14.2623 10.8196L4.42623 15.2459L0 11.8032L9.83607 7.37701Z" fill="#67DAD0"/>
<path d="M8.85254 11.3115L12.2952 10.3279L14.2624 0.491804L16.2296 10.3279L19.6722 11.3115L18.0345 7.88853L14.2624 0L10.4902 7.88853L8.85254 11.3115Z" fill="#FFC862"/>
<path d="M10.4902 7.88852L8.85254 11.3115L10.4902 7.88852Z" fill="#F9F6ED"/>
<path d="M19.6719 11.3115L18.0342 7.8885L19.6719 11.3115Z" fill="#F9F6ED"/>
<path d="M12.2949 10.3279L14.2621 11.8033L16.2294 10.3279L14.2621 0L12.2949 10.3279Z" fill="#FFE4B2"/>
<path d="M13.7705 13.2787H14.7541V15.2459H13.7705V13.2787Z" fill="#FFE4B2"/>
<path d="M13.7705 16.2295H14.7541V17.2131H13.7705V16.2295Z" fill="#FFE4B2"/>
<path d="M16.2295 13.2787H17.2131V15.7377H16.2295V13.2787Z" fill="#FFE4B2"/>
<path d="M11.3115 13.2789H12.2951V15.7379H11.3115V13.2789Z" fill="#FFE4B2"/>
</svg>
