<svg width="30" height="30" viewBox="0 0 30 30" fill="none" xmlns="http://www.w3.org/2000/svg">
<path d="M13.7372 17.5001H10.7372V14.7551L16.4778 10.6558C17.281 10.0822 17.4549 8.95998 16.8629 8.17021C16.2959 7.4137 15.2321 7.241 14.4549 7.77928L9.08218 11.5001C5.86871 11.5001 2.78531 12.8651 0.637193 15.2551C-0.249618 16.2459 -0.205681 17.7574 0.737193 18.6951L2.67534 20.6332C3.2689 21.2268 4.25424 21.1416 4.73719 20.455V28C4.73719 29.1046 5.63262 30 6.73719 30C7.84175 30 8.73718 29.1046 8.73718 28V21.5H12.2372V25H16.2372V20C16.2372 18.6194 15.1179 17.5001 13.7372 17.5001ZM4.73719 17.0057C4.73719 17.307 4.36956 17.454 4.1618 17.2359C4.03688 17.1047 4.0394 16.8978 4.16748 16.7698C4.37772 16.5595 4.73719 16.7084 4.73719 17.0057Z" fill="#4EBBB2"/>
<path d="M7.2373 11.5001C9.1703 11.5001 10.7373 9.93305 10.7373 8.00006C10.7373 6.06706 9.1703 4.50006 7.2373 4.50006C5.30431 4.50006 3.7373 6.06706 3.7373 8.00006C3.7373 9.93305 5.30431 11.5001 7.2373 11.5001Z" fill="#4EBBB2"/>
<path d="M10.2373 27C10.2373 25.3431 11.5804 24 13.2373 24H18.2373C19.8942 24 21.2373 25.3431 21.2373 27C21.2373 28.6568 19.8941 30 18.2373 30H13.2373C11.5804 30 10.2373 28.6568 10.2373 27Z" fill="#FF95A0"/>
<path d="M26.2373 0H25.2373C25.2373 1.933 23.6703 3.5 21.7373 3.5V4.49999C23.6703 4.49999 25.2373 6.06699 25.2373 7.99999H26.2373C26.2373 6.06699 27.8043 4.49999 29.7373 4.49999V3.5C27.8044 3.5 26.2373 1.933 26.2373 0Z" fill="#FFC862"/>
<path d="M15.4424 13.5979L16.8049 12.5981L17.3965 13.4043L16.0339 14.4041L15.4424 13.5979Z" fill="#5A82CA"/>
<path d="M17.9443 11.7657L22.9423 8.09697L23.5341 8.90309L18.5361 12.5718L17.9443 11.7657Z" fill="#5A82CA"/>
<path d="M17.9585 7.58289L20.9581 5.58321L21.5127 6.41527L18.5132 8.41495L17.9585 7.58289Z" fill="#5A82CA"/>
</svg>
