<svg fill="none" height="112" viewBox="0 0 112 112" width="112" xmlns="http://www.w3.org/2000/svg"><path d="m7.17588 7.17596c-4.43363 4.43364-7.17588 10.55864-7.17588 17.32414v63c0 6.7655 2.74225 12.8909 7.17588 17.3239l48.82412-48.8239z" fill="#f5f5f5"/><path d="m7.1759 104.824c4.4336 4.434 10.5586 7.176 17.3241 7.176h63c13.531 0 24.5-10.969 24.5-24.5v-31.5h-56z" fill="#ff4b55"/><path d="m87.5 0h-63c-6.7655 0-12.8905 2.74225-17.3241 7.17588l48.8241 48.82412h56v-31.5c0-13.531-10.969-24.5-24.5-24.5z" fill="#41479b"/><g fill="#ffe15a"><path d="m20.0418 62.276c3.4661 0 6.2759-2.8098 6.2759-6.2759s-2.8098-6.276-6.2759-6.276-6.2759 2.8099-6.2759 6.276 2.8098 6.2759 6.2759 6.2759z"/><path d="m20.0421 56.0001-2.3536-9.4139 2.3536-3.1377 2.3533 3.1377z"/><path d="m20.0421 56 2.3533 9.4137-2.3533 3.138-2.3536-3.138z"/><path d="m20.0421 56-9.4139 2.3535-3.13797-2.3535 3.13797-2.3536z"/><path d="m20.0421 56 9.4136-2.3536 3.138 2.3536-3.138 2.3535z"/><path d="m20.0421 56 4.9923-8.3206 3.883-.5547-.5548 3.883z"/><path d="m20.0421 56-4.9926 8.3208-3.883.5545.5548-3.8828z"/><path d="m20.0421 56-8.3208-4.9923-.5548-3.883 3.883.5547z"/><path d="m20.0421 56 8.3205 4.9925.5548 3.8828-3.883-.5545z"/><path d="m6.20475 16.3459.32725 2.4413-2.20391 1.0999c-.28525.1424-.22509.5661.0886.6234l2.42287.4432.3651 2.436c.04725.3154.46878.3892.62015.1085l1.17032-2.1674 2.42947.4056c.3145.0525.5149-.3255.2948-.5565l-1.6996-1.7828 1.1364-2.1853c.1472-.2829-.1505-.5904-.438-.4524l-2.22073 1.0655-1.72725-1.7561c-.22334-.2271-.60769-.0389-.56547.2771z"/><path d="m7.02623 89.0626-.41344 2.4281-2.43119.3951c-.31478.0512-.38325.4736-.10084.6215l2.18159 1.1434-.37559 2.4342c-.04856.3152.33184.5108.56.2881l1.76159-1.7215 2.19905 1.1095c.2849.1437.5885-.1578.447-.4437l-1.09292-2.2074 1.73492-1.7487c.2246-.2264.0317-.6083-.2837-.5621l-2.43713.3572-1.127-2.1902c-.1459-.2832-.56875-.2178-.62234.0965z"/><path d="m44.348 52.4024-1.4175 2.0144-2.3649-.689c-.3063-.0893-.5498.2627-.3583.5178l1.4776 1.9707-1.3862 2.0361c-.1794.2636.0798.604.3817.5009l2.3308-.7964 1.5081 1.9475c.1953.2522.5991.1107.5943-.2082l-.0372-2.4629 2.3183-.8326c.3002-.1079.2903-.5355-.0144-.6296l-2.3538-.7258-.0752-2.462c-.0099-.3187-.4196-.4417-.6033-.1809z"/></g></svg>