<svg width="512" height="512" viewBox="0 0 512 512" fill="none" xmlns="http://www.w3.org/2000/svg">
<g clip-path="url(#clip0_604_40)">
<path d="M400 0H112C53.3791 0 5.28406 45.039 0.414062 102.4H511.586C506.716 45.039 458.621 0 400 0Z" fill="#FF4B55"/>
<path d="M0.414 102.398C0.145 105.563 0 108.763 0 111.998V204.798H512V111.998C512 108.763 511.855 105.563 511.586 102.398H0.414Z" fill="#F5F5F5"/>
<path d="M512 204.801H0V307.201H512V204.801Z" fill="#FF4B55"/>
<path d="M112 512.002H400C458.621 512.002 506.716 466.963 511.586 409.602H0.414062C5.28406 466.963 53.3791 512.002 112 512.002Z" fill="#FF4B55"/>
<path d="M0 399.999C0 403.233 0.145 406.434 0.414 409.599H511.586C511.855 406.434 512 403.234 512 399.999V307.199H0V399.999Z" fill="#F5F5F5"/>
<path d="M266.758 247.6L34.041 31.5977C13.05 51.9537 0 80.4517 0 112.002V400.002C0 431.552 13.05 460.049 34.041 480.406L266.757 264.404C271.03 260.438 271.03 251.566 266.758 247.6Z" fill="#41479B"/>
<path d="M109.034 199.094L121.836 237.48L162.299 237.794C167.538 237.835 169.71 244.52 165.496 247.632L132.945 271.669L145.151 310.248C146.731 315.243 141.044 319.375 136.782 316.328L103.862 292.798L70.9423 316.328C66.6803 319.374 60.9933 315.243 62.5733 310.248L74.7793 271.669L42.2283 247.632C38.0143 244.52 40.1863 237.834 45.4253 237.794L85.8883 237.48L98.6903 199.094C100.347 194.125 107.376 194.125 109.034 199.094Z" fill="#F5F5F5"/>
</g>
<defs>
<clipPath id="clip0_604_40">
<rect width="512" height="512" fill="white"/>
</clipPath>
</defs>
</svg>
