<svg enable-background="new 0 0 176.74 110.47" viewBox="6.11 4.35 165.22 99.99" xmlns="http://www.w3.org/2000/svg"><g fill="#0f4466"><path d="m56.23 97.03h-4.85v7.13h-2.96v-19.2h9.13c4.06 0 6.31 3.13 6.31 6.06 0 2.52-1.56 4.99-4.47 5.76l4.96 7.38h-2.79c-.4 0-.77-.2-.99-.53zm-4.85-2.63h6.01c2.25 0 3.59-1.59 3.59-3.37s-1.37-3.4-3.51-3.4h-6.09z"/><path d="m142.33 97.03h-4.85v7.13h-2.96v-19.2h9.13c4.06 0 6.31 3.13 6.31 6.06 0 2.52-1.56 4.99-4.47 5.76l4.96 7.38h-2.79c-.4 0-.77-.2-.99-.53zm-4.85-2.63h6.01c2.25 0 3.59-1.59 3.59-3.37s-1.37-3.4-3.51-3.4h-6.09z"/><path d="m88.44 94.35c0-5.65 4.28-9.93 9.98-9.93 4.85 0 8.12 2.85 9.13 6.01l-1.91.47c-.52.13-1.07-.08-1.34-.54-1.01-1.78-3.1-3.17-5.89-3.17-4.22 0-6.97 3.26-6.97 7.13 0 3.89 2.74 7.21 6.97 7.21 2.76 0 4.87-1.32 5.87-3.1.26-.46.82-.67 1.33-.54l1.9.49c-1.01 3.13-4.28 5.95-9.08 5.95-5.71 0-9.99-4.3-9.99-9.98z"/><path d="m42.42 84.78v11.44c0 4.83-2.93 8.12-8.12 8.12s-8.09-3.29-8.09-8.12v-11.44h2.99v11.38c0 3.18 1.73 5.43 5.1 5.43s5.1-2.25 5.1-5.43v-9.96c0-.79.64-1.42 1.42-1.42z"/><path d="m124.84 99.32h-9.13l-1.84 4.66h-3.1l7.6-19.2h3.81l7.6 19.2h-2.29c-.44 0-.94-.34-1.1-.75zm-1.01-2.63-3.54-9.08-3.57 9.08z"/><path d="m155.18 98.55 1.84-.55c.52-.16 1.1.05 1.36.53 1 1.82 2.97 3.18 5.6 3.18 2.66 0 4.36-1.48 4.36-2.99 0-1.26-.79-2.08-3.04-2.8l-4.83-1.54c-2.55-.8-4.31-2.28-4.31-4.69 0-2.85 2.77-5.27 6.64-5.27 4.09 0 6.97 2.17 8.06 4.77l-1.92.57c-.49.14-.99-.06-1.29-.46-1-1.36-2.72-2.25-4.85-2.25-2.17 0-3.65 1.18-3.65 2.55 0 1.1.71 1.76 2.44 2.28l4.72 1.51c2.96.93 5.02 2.17 5.02 5.13 0 3.21-3.02 5.81-7.51 5.81-4.53.01-7.63-2.76-8.64-5.78z"/><path d="m21.33 91.23c0-3.1-2.33-6.44-6.5-6.44h-8.72v19.2h2.96v-5.19-1.15-2.69-.58-6.91h5.7c2.19 0 3.67 1.81 3.67 3.76 0 1.82-1.29 3.55-3.47 3.71-.06 0-.13 0-.19 0l-2.1-.02c-.53 0-1.01.29-1.25.76l-.67 1.33-.26.59 4.52.03c.02 0 .04-.01.06-.01 4.06-.2 6.25-3.39 6.25-6.39z"/><path d="m79.38 87.47c2 .01 3.59.01 3.59.01.52 0 .99-.3 1.22-.76l.97-1.94h-14.82v19.2h13.79v-2.72h-10.85v-5.76h9.49v-2.58h-9.49v-5.46h6.1z"/></g><path d="m121.49 4.6c-4.21.03-8.48.88-12.59 2.66-12.62 5.44-20 17.95-19.55 30.91.14 3.92 1 7.88 2.65 11.69 7.1 16.43 26.17 24 42.6 16.9 1.88-.81 3.62-1.78 5.25-2.87 3.76-2.51 6.85-5.74 9.2-9.4 1.02-1.63 2.06-3.44 3.07-5.44 1.1-2.18 2.01-4.26 2.76-6.18-3.3 0-6.59 0-9.89 0-2.97 0-5.68 1.67-7 4.33l-.17.33c-1.38 2.15-3.21 4.04-5.42 5.51-.96.64-2 1.2-3.11 1.67-9.72 4.13-21.04-.38-25.3-10.07-.99-2.25-1.51-4.59-1.6-6.89-.3-7.63 4.04-14.97 11.5-18.14 2.43-1.04 4.96-1.53 7.46-1.53 1.9.03 37.61.21 37.61.21 2.56-.02 4.89-1.48 6.03-3.76l4.81-9.61c-.01 0-47.96-.31-48.31-.32z" fill="#079ac4"/><path d="m94.02 16.08c-2.65-3.2-5.79-5.76-9.22-7.66-11.34-6.29-25.83-5.39-36.41 3.38-3.45 2.86-6.15 6.27-8.09 10.01-.16.31-26.04 51.79-26.04 51.79l10.74.08c2.56.02 4.91-1.4 6.09-3.67l2.44-4.69s17.85-35.52 18.83-37.53c1.14-2.22 2.72-4.25 4.75-5.95 6.21-5.21 14.73-5.75 21.39-2.01 2.01 1.13 3.86 2.65 5.41 4.55 6.7 8.19 5.58 20.33-2.51 27.11-.92.78-1.9 1.44-2.9 2.01-2.32 1.31-4.83 2.08-7.37 2.33l-10.29-.07c-2.59-.02-4.96 1.43-6.13 3.74l-3.29 6.51h-.01l-1.36 2.85 22.19.16c4.32-.43 8.6-1.72 12.55-3.93 1.71-.96 3.37-2.07 4.94-3.38 13.79-11.41 15.7-31.84 4.29-45.63z" fill="#079ac4"/><path d="m127.8 4.64-6.76 13.44c.29-.01 37.9.21 37.9.21 2.56-.02 4.89-1.48 6.03-3.76l4.81-9.61c.01 0-38.74-.28-41.98-.28z" fill="#5ec0d6"/><path d="m139.46 18.2c8.42.04 19.49.08 19.49.08 2.56-.02 4.89-1.48 6.03-3.76l4.81-9.61s-10.65-.09-23.58-.18z" fill="#f1563c"/><path d="m31.1 70.01 2.44-4.69s9.49-18.88 15.01-29.89h-15.1c-7.71 15.34-19.19 38.17-19.19 38.17l10.74.08c2.56.02 4.92-1.4 6.1-3.67z" fill="#5ec0d6"/><path d="m50.15 68.67-.09.19h.09z" fill="#5ec0d6"/><path d="m25.01 73.68c2.56.02 4.91-1.4 6.09-3.67l2.44-4.69s3.02-6.02 6.65-13.24h-15.11c-5.69 11.34-10.82 21.52-10.82 21.52z" fill="#f1563c"/></svg>