<svg enable-background="new -153 -46 652 652" viewBox="-131.1 203 599.9 144" xmlns="http://www.w3.org/2000/svg"><path d="m-53.8 249.3c-1.2 2.8-3.1 4.9-5.5 6.5-2.2 1.4-4.6 2.1-7.1 2.2-1.1 0-2-.8-2.1-2 0-1.1.8-2.1 1.9-2.1 1.9-.1 3.6-.6 5.2-1.6 1.8-1.1 3.1-2.7 4-4.7.5-1.2.4-2.5-.2-3.6-.7-1.1-1.8-1.8-3-1.8-2.7-.2-4.9.7-6.7 2.4-2.8 2.9-4 8-4.5 10.2-.4 1.9-5.1 22.1-7 30.3-.3 1.3-1.4 2.2-2.7 2.2-1.3 0-2.4-.9-2.7-2.2l-.7-3c-2.2-9.3-6-25.7-6.3-27.4-.5-2.2-1.7-7.3-4.5-10.2-1.7-1.8-4-2.6-6.7-2.4-1.3.1-2.3.7-3 1.8s-.8 2.4-.2 3.6c.9 2 2.2 3.6 4 4.7 1.6 1 3.3 1.5 5.2 1.6 1.1 0 2 1 1.9 2.1 0 1.1-1 2-2.1 2-2.6-.1-5-.8-7.1-2.2-2.4-1.6-4.3-3.7-5.5-6.5-1-2.4-.9-5.1.5-7.4 1.3-2.2 3.6-3.6 6.2-3.8 3.8-.2 7.2 1 9.7 3.6 3.6 3.7 5 9.6 5.5 12.1.4 1.6 3.7 15.9 5.9 25.4 2.2-9.5 5.5-23.8 5.9-25.4.6-2.5 1.9-8.5 5.5-12.1 2.5-2.6 5.9-3.8 9.7-3.6 2.5.1 4.8 1.6 6.2 3.8 1.1 2.4 1.3 5.1.3 7.5m-17.8-32c-2.7 0-5.4.5-8.1 1.4-1.2.4-2.6.4-3.8 0-2.7-.9-5.4-1.4-8.1-1.4-15.3 0-28.3 15.5-28.3 34 0 20.5 15.4 38.6 37.5 44 .4.1.9.1 1.4 0 22.1-5.4 37.5-23.5 37.5-44 .1-18.4-12.8-34-28.1-34m-8.4 81.9c-.5.1-1.1.2-1.6.2s-1.1-.1-1.6-.2c-23.9-5.8-40.6-25.6-40.6-47.9 0-20.6 14.8-38 32.2-38 3.1 0 6.2.5 9.3 1.6.4.1.9.1 1.3 0 3.1-1 6.2-1.6 9.3-1.6 17.5 0 32.2 17.4 32.2 38 .1 22.4-16.6 42.1-40.5 47.9zm38.3-5.5c0 1.1-.9 2-2 2s-2-.9-2-2v-2.8c0-1.1.9-2 2-2s2 .9 2 2zm0 12.8c0 1.1-.9 2-2 2s-2-.9-2-2v-2.8c0-1.1.9-2 2-2s2 .9 2 2zm-12.7 6.4c0 1.1-.9 2-2 2s-2-.9-2-2v-2.8c0-1.1.9-2 2-2s2 .9 2 2zm0 12.8c0 1.1-.9 2-2 2s-2-.9-2-2v-2.8c0-1.1.9-2 2-2s2 .9 2 2zm-12.6-6.4c0 1.1-.9 2-2 2s-2-.9-2-2v-2.8c0-1.1.9-2 2-2s2 .9 2 2zm0 12.8c0 1.1-.9 2-2 2s-2-.9-2-2v-2.8c0-1.1.9-2 2-2s2 .9 2 2zm-12.6-19.2c0 1.1-.9 2-2 2s-2-.9-2-2v-2.8c0-1.1.9-2 2-2s2 .9 2 2zm0 12.8c0 1.1-.9 2-2 2s-2-.9-2-2v-2.8c0-1.1.9-2 2-2s2 .9 2 2zm-12.6-6.4c0 1.1-.9 2-2 2s-2-.9-2-2v-2.8c0-1.1.9-2 2-2s2 .9 2 2zm0 12.8c0 1.1-.9 2-2 2s-2-.9-2-2v-2.8c0-1.1.9-2 2-2s2 .9 2 2zm-12.7-19.2c0 1.1-.9 2-2 2s-2-.9-2-2v-2.8c0-1.1.9-2 2-2s2 .9 2 2zm0 12.8c0 1.1-.9 2-2 2s-2-.9-2-2v-2.8c0-1.1.9-2 2-2s2 .9 2 2zm-12.6-32c0 1.1-.9 2-2 2s-2-.9-2-2v-2.8c0-1.1.9-2 2-2s2 .9 2 2zm0 12.8c0 1.1-.9 2-2 2s-2-.9-2-2v-2.8c0-1.1.9-2 2-2s2 .9 2 2zm35.9-103.5c-27.3 0-49.5 22.5-49.5 50.3v43.4c0 27.8 22.2 50.3 49.5 50.3s49.5-22.5 49.5-50.3v-43.4c0-27.8-22.2-50.3-49.5-50.3zm106.7 69.8c-9.1-2.3-12.8-3.7-12.8-8.9 0-3.7 3.4-6.6 9.2-6.6 6 0 9.8 2.5 12.6 6.2l7.3-6c-4.6-6-10.9-9.4-20.1-9.4-11.6 0-19.2 6.6-19.2 16.2 0 10.3 6.9 14.8 18.5 18 10.1 2.8 14.2 5 14.2 10.1 0 4.8-4.3 7.8-11.7 7.8-7.8 0-13.7-3.6-17.2-9.4l-7.8 5.5c5.3 8.2 13.9 13.2 25.1 13.2 13.9 0 22.2-6.6 22.2-17.6-.1-10.8-7.9-15.9-20.3-19.1m61.5 27c-11.6 0-19.2-8.7-19.2-21 0-12.4 7.6-21.2 19.2-21.2 11.4 0 18.8 8.7 18.8 21.2 0 12.3-7.4 21-18.8 21zm18.5-40.4c-4.1-7.3-11.1-11.4-20.7-11.4-16.1 0-28.4 13.2-28.4 30.8 0 17.4 12.3 30.6 28.5 30.6 9.6 0 16.5-4.1 20.6-11.4v10h10.8v-58.5h-10.8zm95.5-11.4c-9.4 0-16 3.6-20.6 10.8-3.6-7.3-9.8-10.8-17.6-10.8-8 0-14.2 3.4-17.4 9.4v-8h-10.8v58.6h10.8v-33.6c0-10.7 5.5-16.5 15.1-16.5 8.4 0 12.4 5 12.4 14.2v35.9h10.8v-34c0-10.3 5.3-16.2 15.1-16.2 8.2 0 12.4 4.8 12.4 14v36.2h10.8v-37.3c.1-14.3-8.8-22.7-21-22.7m60.2 24.8c-9.1-2.3-12.8-3.7-12.8-8.9 0-3.7 3.4-6.6 9.2-6.6 6 0 9.8 2.5 12.6 6.2l7.3-6c-4.6-6-10.9-9.4-20.1-9.4-11.6 0-19.2 6.6-19.2 16.2 0 10.3 6.9 14.8 18.5 18 10.1 2.8 14.2 5 14.2 10.1 0 4.8-4.3 7.8-11.7 7.8-7.8 0-13.7-3.6-17.2-9.4l-7.8 5.5c5.3 8.2 13.9 13.2 25.1 13.2 13.9 0 22.2-6.6 22.2-17.6 0-10.8-7.8-15.9-20.3-19.1m61.6 27c-11.6 0-19.2-8.7-19.2-21 0-12.4 7.6-21.2 19.2-21.2 11.4 0 18.8 8.7 18.8 21.2 0 12.3-7.5 21-18.8 21zm18.4-40.4c-4.1-7.3-11-11.4-20.6-11.4-16.2 0-28.5 13.2-28.5 30.8 0 17.4 12.3 30.6 28.5 30.6 9.6 0 16.5-4.1 20.6-11.4v10h10.8v-58.5h-10.8zm98.8 40.4c-11.6 0-19.2-8.7-19.2-21 0-12.4 7.6-21.2 19.2-21.2 11.4 0 18.8 8.7 18.8 21.2 0 12.3-7.5 21-18.8 21zm18.4-50.3v10c-4.1-7.3-11-11.4-20.6-11.4-16.2 0-28.5 13.2-28.5 30.8 0 17.4 12.3 30.6 28.5 30.6 9.6 0 16.5-4.1 20.6-11.4v10h10.8v-58.5h-10.8zm-77.3 13.5v-13.5h-10.8v58.5h10.8v-30.5l24-21.3-7.2-8.1z" fill="#00263e"/></svg>