<svg width="35" height="35" viewBox="0 0 35 35" fill="none" xmlns="http://www.w3.org/2000/svg">
<g clip-path="url(#clip0_256_106)">
<path d="M34.5197 21.5225L33.1298 20.4922C33.2961 19.4998 33.3642 18.4954 33.3321 17.4991C33.3642 16.5028 33.2961 15.4984 33.1298 14.5061L34.5197 13.4757C34.8982 13.1953 35.0365 12.6936 34.8562 12.259L33.2881 8.46986C33.1078 8.0353 32.6432 7.78093 32.1906 7.84799L30.4763 8.10236C29.4869 6.71145 28.2873 5.51181 26.9014 4.5245L27.216 2.74545C27.2861 2.28081 27.0297 1.8282 26.5952 1.64794L22.806 0.0788146C22.3714 -0.102406 21.8707 0.0367736 21.5903 0.415279L20.4967 1.87291C18.8184 1.58853 17.1201 1.58949 15.4378 1.87188L14.3442 0.415279C14.0638 0.0367736 13.5652 -0.102406 13.1286 0.0788146L9.33942 1.64794C8.90486 1.8282 8.64851 2.28081 8.71858 2.74545L9.03317 4.5245C7.64329 5.51585 6.44365 6.71548 5.45633 8.10339L3.744 7.84806C3.27738 7.78298 2.82477 8.03434 2.64649 8.46993L1.07839 12.259C0.89813 12.6936 1.03635 13.1953 1.41486 13.4757L2.80474 14.5051C2.63849 15.5025 2.57041 16.5078 2.60247 17.4651C2.57041 18.4785 2.63849 19.4939 2.80474 20.4932L1.41486 21.5227C1.03635 21.8031 0.89813 22.3047 1.07839 22.7393L2.64649 26.5285C2.8247 26.9631 3.27533 27.2094 3.744 27.1504L5.45633 26.895C6.44365 28.2829 7.64329 29.4826 9.03317 30.4739L8.7125 32.2546C8.64243 32.7193 8.89877 33.1719 9.33334 33.3521L13.1225 34.9212C13.5591 35.1025 14.0578 34.9643 14.3381 34.5848L15.4379 33.1265C17.1242 33.4089 18.8185 33.41 20.4968 33.1255L21.5965 34.5848C21.875 34.9602 22.3747 35.1023 22.8122 34.9212L26.6013 33.3521C27.0359 33.1719 27.2922 32.7193 27.2222 32.2546L26.9015 30.4739C28.2873 29.4866 29.487 28.287 30.4763 26.8961L32.1907 27.1504C32.6473 27.2125 33.1079 26.9622 33.2882 26.5286L34.8563 22.7394C35.0364 22.3046 34.8982 21.8029 34.5197 21.5225Z" fill="#9A87E9"/>
<path d="M17.9673 6.21973C11.7533 6.21973 6.68799 11.2851 6.68799 17.499C6.68799 23.7128 11.7533 28.7783 17.9673 28.7783C24.1812 28.7783 29.2466 23.7128 29.2466 17.499C29.2466 11.2851 24.1812 6.21973 17.9673 6.21973ZM14.5834 18.832C14.9936 19.2216 14.9936 19.8779 14.5834 20.2675C14.2146 20.6777 13.517 20.6778 13.1479 20.2675L11.0972 18.2167C10.687 17.8271 10.687 17.1708 11.0972 16.7811L13.1479 14.7303C13.5376 14.3202 14.1937 14.3202 14.5834 14.7303C14.9936 15.12 14.9936 15.7762 14.5834 16.1659L13.271 17.499L14.5834 18.832ZM19.4849 15.6943L18.4595 19.7959C18.2847 20.4658 17.528 20.6941 17.2085 20.5342C16.6547 20.4111 16.3267 19.8574 16.4497 19.3038L17.4751 15.2022C17.6187 14.6484 18.1723 14.3204 18.7261 14.4638C19.2799 14.5868 19.6079 15.1406 19.4849 15.6943ZM24.8373 18.2167L22.7866 20.2675C22.4177 20.6777 21.7201 20.6778 21.3511 20.2675C20.9409 19.8779 20.9409 19.2216 21.3511 18.832L22.6635 17.499L21.3511 16.1659C20.9409 15.7763 20.9409 15.12 21.3511 14.7304C21.7407 14.3203 22.3968 14.3203 22.7866 14.7304L24.8373 16.7812C25.2476 17.1708 25.2476 17.8271 24.8373 18.2167Z" fill="#DFD8FF"/>
</g>
<defs>
<clipPath id="clip0_256_106">
<rect width="35" height="35" fill="white"/>
</clipPath>
</defs>
</svg>
