<svg width="35" height="35" viewBox="0 0 35 35" fill="none" xmlns="http://www.w3.org/2000/svg">
<g clip-path="url(#clip0)">
<path d="M0.300509 34.6992C0.0612511 34.46 -0.041288 34.1182 0.0133995 33.79C0.245821 32.5527 2.48801 25.2588 4.23117 23.5156C6.2341 21.5127 9.48801 21.5127 11.4841 23.5156C13.487 25.5186 13.487 28.7725 11.4841 30.7686C9.74094 32.5117 2.44699 34.7539 1.20969 34.9795C0.881564 35.041 0.539767 34.9385 0.300509 34.6992Z" fill="#F6BFC5"/>
<path d="M13.6582 27.1455L13.6719 27.1592L13.6582 27.1455Z" fill="#F6BFC5"/>
<path d="M2.78208 14.8066C2.68638 14.7109 2.60435 14.5878 2.54966 14.4511C2.4061 14.0751 2.48814 13.6445 2.77524 13.3574C10.3905 5.74213 15.2303 7.2392 15.4354 7.30756L15.5995 7.35541C15.9276 7.45111 16.1874 7.70404 16.2967 8.03216C16.3993 8.36029 16.3309 8.71576 16.119 8.98236C14.2596 11.2997 12.4071 14.2802 10.6229 17.8417C10.4725 18.1425 10.1854 18.3476 9.85728 18.3954C9.52915 18.4433 9.2147 18.3408 8.96177 18.0947C6.24107 15.1962 3.57505 15.121 3.46567 15.1142C3.19907 15.1005 2.95982 14.9843 2.78208 14.8066Z" fill="#F6BFC5"/>
<path d="M20.3777 32.4091C20.2 32.2313 20.0906 31.9921 20.077 31.7255C20.0701 31.6093 19.9061 28.8202 16.9119 26.0653C16.659 25.8671 16.5428 25.5048 16.5906 25.1698C16.6385 24.8349 16.8436 24.5478 17.1443 24.3974C20.7742 22.5653 23.7889 20.6786 26.0994 18.7987C26.3592 18.5868 26.7078 18.5185 27.0359 18.6073C27.3572 18.703 27.617 18.9491 27.7195 19.2704L27.8768 19.7489C27.9451 19.954 29.4422 24.7938 21.827 32.4091C21.5399 32.6962 21.1024 32.7851 20.7264 32.6415C20.5965 32.5868 20.4734 32.5116 20.3777 32.4091Z" fill="#F6BFC5"/>
<path d="M34.0498 9.63195L26.4209 7.92297L25.3682 0.950314C25.5254 0.909298 25.6895 0.861447 25.8604 0.834103C30.1123 -0.10242 33.8447 -0.00671715 34.002 0.00695472C34.542 0.0206266 34.9727 0.458127 34.9863 0.99133C35 1.14856 35.1025 4.88098 34.1592 9.13293C34.1318 9.31067 34.0908 9.46789 34.0498 9.63195Z" fill="#F6BFC5"/>
<path d="M29.6198 18.4365C28.9362 19.1201 28.1842 19.7832 27.3844 20.4121C24.9645 22.374 21.8268 24.3428 18.0671 26.2432C15.7292 27.3916 14.1227 28.0684 14.0475 28.0889C13.6579 28.2461 13.2204 28.1641 12.9333 27.8701L7.12955 22.0664C6.84244 21.7793 6.75358 21.3418 6.89713 20.9658C6.93815 20.8906 7.60807 19.2363 8.78385 16.9053C10.6296 13.2344 12.5573 10.1445 14.5124 7.69043C15.1481 6.87695 15.8454 6.09766 16.5563 5.37988C18.6003 3.33594 21.5602 1.85254 25.361 0.957031L34.0358 9.63184C33.1471 13.4326 31.6637 16.3926 29.6198 18.4365Z" fill="#EB5F6C"/>
<path d="M18.7371 16.2627C16.7341 14.2598 16.7341 11.0059 18.7371 9.00977C20.74 7.00684 23.9939 7.00684 25.99 9.00977C27.9929 11.0127 27.9929 14.2666 25.99 16.2627C23.9939 18.2588 20.74 18.2588 18.7371 16.2627Z" fill="#F6BFC5"/>
</g>
<defs>
<clipPath id="clip0">
<rect width="35" height="35" fill="white"/>
</clipPath>
</defs>
</svg>
