<svg width="40" height="44" viewBox="0 0 40 44" fill="none" xmlns="http://www.w3.org/2000/svg">
<path d="M35.5116 7.57174L24.4681 1.19642C23.1065 0.412566 21.563 0 19.9919 0C18.4209 0 16.8774 0.412566 15.5158 1.19642L4.47324 7.57174C3.11431 8.35822 1.98583 9.48788 1.20077 10.8476C0.415719 12.2074 0.00164282 13.7495 2.48269e-07 15.3196V28.0846C-0.00011026 28.2254 0.036673 28.3638 0.106686 28.4859C0.176698 28.6081 0.277497 28.7097 0.399038 28.7808C0.520579 28.8519 0.65862 28.8899 0.799409 28.891C0.940199 28.8921 1.07882 28.8563 1.20147 28.7871L6.46422 25.8155C6.59055 25.7441 6.69568 25.6405 6.76889 25.5153C6.84211 25.39 6.88078 25.2475 6.88095 25.1024V15.3196C6.88176 14.9569 6.97735 14.6007 7.15826 14.2864C7.33916 13.972 7.59909 13.7104 7.91228 13.5275L18.9558 7.15214C19.2712 6.97119 19.6284 6.87598 19.9919 6.87598C20.3555 6.87598 20.7127 6.97119 21.0281 7.15214L32.0697 13.5284C32.383 13.7111 32.6431 13.9725 32.8242 14.2867C33.0052 14.6009 33.101 14.957 33.102 15.3196V25.1024C33.1018 25.2473 33.14 25.3896 33.2127 25.5148C33.2854 25.6401 33.39 25.7438 33.5159 25.8155L38.7623 28.7785C38.8853 28.8498 39.0247 28.8877 39.1668 28.8884C39.3089 28.889 39.4487 28.8524 39.5723 28.7822C39.6959 28.712 39.7989 28.6107 39.8711 28.4883C39.9433 28.3659 39.9822 28.2267 39.9839 28.0846V15.3196C39.9824 13.7496 39.5685 12.2075 38.7837 10.8477C37.9988 9.48796 36.8704 8.35826 35.5116 7.57174" fill="#47C2B4"/>
<path d="M35.8471 34.1521L30.5959 31.1891C30.469 31.1168 30.3256 31.0789 30.1796 31.0789C30.0336 31.0789 29.8902 31.1168 29.7634 31.1891L21.0233 36.232C20.7086 36.4126 20.352 36.5077 19.9891 36.5077C19.6262 36.5077 19.2697 36.4126 18.9549 36.232L10.2398 31.1977C10.1068 31.1221 9.9564 31.0824 9.80343 31.0824C9.65045 31.0824 9.5001 31.1221 9.3671 31.1977L4.19898 34.112C4.06549 34.1878 3.95402 34.297 3.8755 34.4289C3.79699 34.5608 3.75413 34.7109 3.75114 34.8644C3.74816 35.0179 3.78514 35.1695 3.85846 35.3044C3.93178 35.4392 4.03891 35.5527 4.16934 35.6337C4.26493 35.6958 4.36911 35.757 4.47234 35.8162L15.5149 42.1963C16.8765 42.9808 18.4202 43.3936 19.9915 43.3936C21.5628 43.3936 23.1066 42.9808 24.4681 42.1963L35.5117 35.82C35.6464 35.7407 35.7793 35.6604 35.9093 35.5754C36.0278 35.4954 36.1238 35.3864 36.1881 35.2588C36.2525 35.1312 36.283 34.9891 36.2767 34.8463C36.2705 34.7035 36.2277 34.5647 36.1525 34.4432C36.0773 34.3216 35.9722 34.2214 35.8471 34.1521" fill="#47C2B4"/>
<path d="M16.2459 27.3228L19.2959 29.0815C19.5076 29.2035 19.7475 29.2677 19.9918 29.2677C20.236 29.2677 20.476 29.2035 20.6876 29.0815L23.7348 27.3228L26.0354 25.9923C26.2475 25.87 26.4236 25.6939 26.546 25.4818C26.6683 25.2697 26.7325 25.029 26.7322 24.7842V18.6086C26.7336 18.3634 26.6702 18.1221 26.5486 17.9091C26.4269 17.6962 26.2512 17.5191 26.0393 17.3957L20.6867 14.3084C20.4752 14.1859 20.2352 14.1213 19.9908 14.1213C19.7465 14.1213 19.5064 14.1859 19.295 14.3084L13.9424 17.3957C13.7303 17.5183 13.5542 17.6945 13.4319 17.9068C13.3096 18.1191 13.2453 18.3598 13.2456 18.6048V24.7842C13.2453 25.029 13.3095 25.2697 13.4319 25.4818C13.5542 25.6939 13.7303 25.87 13.9424 25.9923L16.2459 27.3228Z" fill="#47C2B4"/>
</svg>
