<svg fill="none" height="109" viewBox="0 0 114 109" width="114" xmlns="http://www.w3.org/2000/svg"><path d="m113.18 25.1306h-112.18v8.3058h112.18z" fill="#f5f5f5"/><path d="m107.322 8.51794h-100.4641c-2.12703 2.40186-3.76393 5.21826-4.75953 8.30686h109.98263c-.995-3.0886-2.632-5.905-4.759-8.30686z" fill="#f5f5f5"/><path d="m113.18 41.7443h-112.18v8.3058h112.18z" fill="#f5f5f5"/><path d="m113.18 58.358h-112.18v8.3059h112.18z" fill="#f5f5f5"/><path d="m113.18 74.9719h-112.18v8.3058h112.18z" fill="#f5f5f5"/><path d="m112.081 91.5858h-109.98263c.99538 3.0886 2.6325 5.9047 4.75953 8.3066h100.4641c2.127-2.4019 3.764-5.218 4.759-8.3066z" fill="#f5f5f5"/><path d="m88.6404.210938h-63.1011c-7.4818 0-14.1804 3.224252-18.68141 8.306872h100.46411c-4.501-5.08262-11.1998-8.306872-18.6816-8.306872z" fill="#ff4b55"/><path d="m113.18 33.4384h-112.18v8.3058h112.18z" fill="#ff4b55"/><path d="m113.18 23.8334c0-2.4405-.385-4.7943-1.099-7.0087h-109.98265c-.71383 2.2144-1.09835 4.5682-1.09835 7.0087v1.298h112.18z" fill="#ff4b55"/><path d="m113.18 50.0522h-112.18v8.3058h112.18z" fill="#ff4b55"/><path d="m113.18 84.5768v-1.2979h-112.18v1.2979c0 2.4405.38452 4.7943 1.09835 7.0089h109.98265c.714-2.2146 1.099-4.5684 1.099-7.0089z" fill="#ff4b55"/><path d="m107.322 99.8924h-100.46411c4.50101 5.0826 11.19961 8.3066 18.68141 8.3066h63.1011c7.4819 0 14.1806-3.224 18.6816-8.3066z" fill="#ff4b55"/><path d="m113.18 66.6659h-112.18v8.3058h112.18z" fill="#ff4b55"/><path d="m58.8857.210938h-34.525c-13.0463 0-23.622419 10.576062-23.622419 23.622462v34.525h58.147419z" fill="#41479b"/><g fill="#f5f5f5"><path d="m7.01192 9.29356c-.05526.17485.14363.31953.29296.21281l1.15222-.82341 1.15223.82341c.14912.10672.34822-.03796.29296-.21281l-.4271-1.35028 1.13931-.84134c.1475-.10904.0715-.34294-.1119-.34442l-1.41613-.01097-.24171-.7247c-.60701.52919-1.18597 1.08937-1.73582 1.67719l.3305.24424z"/><path d="m8.63807 16.6106.44799 1.3435 1.41604.011c.1833.0015.2595.2354.112.3444l-1.13933.8414.4271 1.3502c.05526.1749-.14363.3194-.29296.2129l-1.15222-.8237-1.15223.8237c-.14912.1067-.34822-.038-.29296-.2129l.4271-1.3502-1.13936-.8414c-.14743-.1088-.0715-.3429.11179-.3444l1.41608-.011.44798-1.3435c.05884-.174.30498-.174.36298 0z"/><path d="m8.63807 29.0404.44799 1.3435 1.41604.011c.1833.0015.2595.2354.112.3444l-1.13933.8414.4271 1.3502c.05526.1749-.14363.3194-.29296.2129l-1.15222-.8235-1.15223.8235c-.14912.1065-.34822-.038-.29296-.2129l.4271-1.3502-1.13936-.8414c-.14743-.1088-.0715-.3429.11179-.3444l1.41608-.011.44798-1.3435c.05884-.174.30498-.174.36298 0z"/><path d="m8.63807 40.4606.44799 1.3436 1.41604.0109c.1833.0015.2595.2354.112.3445l-1.13933.8413.4271 1.3503c.05526.1748-.14363.3193-.29296.2128l-1.15222-.8236-1.15223.8236c-.14912.1065-.34822-.038-.29296-.2128l.4271-1.3503-1.13936-.8413c-.14743-.1089-.0715-.343.11179-.3445l1.41608-.0109.44798-1.3436c.05884-.174.30498-.174.36298 0z"/><path d="m8.63807 50.8528.44799 1.3435 1.41604.011c.1833.0015.2595.2354.112.3444l-1.13933.8413.4271 1.3503c.05526.1749-.14363.3193-.29296.2128l-1.15222-.8234-1.15223.8234c-.14912.1065-.34822-.0379-.29296-.2128l.4271-1.3503-1.13936-.8413c-.14743-.1088-.0715-.3429.11179-.3444l1.41608-.011.44798-1.3435c.05884-.174.30498-.174.36298 0z"/><path d="m14.093 10.7105.4479 1.3435 1.4161.011c.1833.0014.2594.2353.112.3442l-1.1393.8413.4271 1.3503c.0552.1748-.1437.3195-.293.2128l-1.1518-.8236-1.1522.8236c-.1491.1067-.3483-.038-.293-.2128l.4271-1.3503-1.1391-.8413c-.1475-.1089-.0715-.343.1117-.3442l1.4161-.011.448-1.3435c.0582-.174.3044-.174.3624 0z"/><path d="m14.093 23.1404.4479 1.3435 1.4161.011c.1833.0015.2594.2354.112.3444l-1.1393.8413.4271 1.3503c.0552.1749-.1437.3196-.293.2128l-1.1522-.8236-1.1523.8236c-.1491.1068-.3482-.0379-.2929-.2128l.4271-1.3503-1.1392-.8413c-.1474-.1088-.0715-.3429.1118-.3444l1.4161-.011.448-1.3435c.0586-.174.3048-.174.3628 0z"/><path d="m14.093 34.9496.4479 1.3435 1.4161.011c.1833.0015.2594.2354.112.3444l-1.1393.8414.4271 1.3503c.0552.1748-.1437.3193-.293.2128l-1.1522-.8237-1.1523.8237c-.1491.1067-.3482-.038-.2929-.2128l.4271-1.3503-1.1392-.8414c-.1474-.1088-.0715-.3429.1118-.3444l1.4161-.011.448-1.3435c.0586-.1738.3048-.1738.3628 0z"/><path d="m14.093 45.5548.4479 1.3435 1.4161.011c.1833.0015.2594.2354.112.3444l-1.1393.8414.4271 1.3502c.0552.1749-.1437.3196-.293.2129l-1.1522-.8234-1.1523.8234c-.1491.1067-.3482-.038-.2929-.2129l.4271-1.3502-1.1392-.8414c-.1474-.1088-.0715-.3429.1118-.3444l1.4161-.011.448-1.3435c.0586-.174.3048-.174.3628 0z"/><path d="m19.5478 5.40317.448 1.34353 1.4161.01097c.1833.00147.2594.23538.112.34421l-1.1394.84134.4271 1.35027c.0553.17485-.1436.31933-.2929.21281l-1.1523-.82362-1.1522.82362c-.1491.10673-.3482-.03796-.2929-.21281l.4271-1.35027-1.1392-.84134c-.1474-.10883-.0715-.34295.1118-.34421l1.4161-.01097.448-1.34353c.0586-.17379.3047-.17379.3627 0z"/><path d="m19.5478 16.6106.448 1.3435 1.4161.011c.1833.0015.2594.2354.112.3444l-1.1394.8414.4271 1.3502c.0553.1749-.1436.3194-.2929.2129l-1.1523-.8237-1.1522.8237c-.1491.1067-.3482-.038-.2929-.2129l.4271-1.3502-1.1392-.8414c-.1474-.1088-.0715-.3429.1118-.3444l1.4161-.011.448-1.3435c.0586-.174.3047-.174.3627 0z"/><path d="m19.5478 29.0404.448 1.3435 1.4161.011c.1833.0015.2594.2354.112.3444l-1.1394.8414.4271 1.3502c.0553.1749-.1436.3194-.2929.2129l-1.1523-.8235-1.1522.8235c-.1491.1065-.3482-.038-.2929-.2129l.4271-1.3502-1.1392-.8414c-.1474-.1088-.0715-.3429.1118-.3444l1.4161-.011.448-1.3435c.0586-.174.3047-.174.3627 0z"/><path d="m19.5478 40.4606.448 1.3436 1.4161.0109c.1833.0015.2594.2354.112.3445l-1.1394.8413.4271 1.3503c.0553.1748-.1436.3193-.2929.2128l-1.1523-.8236-1.1522.8236c-.1491.1065-.3482-.038-.2929-.2128l.4271-1.3503-1.1392-.8413c-.1474-.1089-.0715-.343.1118-.3445l1.4161-.0109.448-1.3436c.0586-.174.3047-.174.3627 0z"/><path d="m19.5478 50.8528.448 1.3435 1.4161.011c.1833.0015.2594.2354.112.3444l-1.1394.8413.4271 1.3503c.0553.1749-.1436.3193-.2929.2128l-1.1523-.8234-1.1522.8234c-.1491.1065-.3482-.0379-.2929-.2128l.4271-1.3503-1.1392-.8413c-.1474-.1088-.0715-.3429.1118-.3444l1.4161-.011.448-1.3435c.0586-.174.3047-.174.3627 0z"/><path d="m25.0027 10.7105.448 1.3435 1.4161.011c.1833.0014.2594.2353.1118.3442l-1.1392.8413.4271 1.3503c.0553.1748-.1436.3195-.293.2128l-1.1522-.8236-1.1522.8236c-.1491.1067-.3482-.038-.293-.2128l.4271-1.3503-1.1393-.8413c-.1475-.1089-.0715-.343.112-.3442l1.416-.011.448-1.3435c.0589-.174.3048-.174.3628 0z"/><path d="m25.0027 23.1404.448 1.3435 1.4161.011c.1833.0015.2594.2354.1118.3444l-1.1392.8413.4271 1.3503c.0553.1749-.1436.3196-.293.2128l-1.1522-.8236-1.1522.8236c-.1491.1068-.3482-.0379-.293-.2128l.4271-1.3503-1.1393-.8413c-.1475-.1088-.0715-.3429.112-.3444l1.416-.011.448-1.3435c.0589-.174.3048-.174.3628 0z"/><path d="m25.0027 34.9496.448 1.3435 1.4161.011c.1833.0015.2594.2354.1118.3444l-1.1392.8414.4271 1.3503c.0553.1748-.1436.3193-.293.2128l-1.1522-.8237-1.1522.8237c-.1491.1067-.3482-.038-.293-.2128l.4271-1.3503-1.1393-.8414c-.1475-.1088-.0715-.3429.112-.3444l1.416-.011.448-1.3435c.0589-.1738.3048-.1738.3628 0z"/><path d="m25.0027 45.5548.448 1.3435 1.4161.011c.1833.0015.2594.2354.1118.3444l-1.1392.8414.4271 1.3502c.0553.1749-.1436.3196-.293.2129l-1.1522-.8234-1.1522.8234c-.1491.1067-.3482-.038-.293-.2129l.4271-1.3502-1.1393-.8414c-.1475-.1088-.0715-.3429.112-.3444l1.416-.011.448-1.3435c.0589-.174.3048-.174.3628 0z"/><path d="m30.4576 5.40317.448 1.34353 1.4161.01097c.1832.00147.2594.23538.1117.34421l-1.1391.84134.4271 1.35027c.0553.17485-.1436.31933-.293.21281l-1.1522-.82362-1.1522.82362c-.1491.10673-.3482-.03796-.293-.21281l.4271-1.35027-1.1391-.84134c-.1475-.10883-.0715-.34295.112-.34421l1.416-.01097.448-1.34353c.0587-.17379.3046-.17379.3626 0z"/><path d="m30.4576 16.6106.448 1.3436 1.4161.0109c.1832.0015.2594.2354.1117.3445l-1.1391.8413.4273 1.3501c.0553.1748-.1436.3193-.293.2128l-1.1522-.8237-1.1522.8237c-.1491.1067-.3482-.038-.293-.2128l.4271-1.3503-1.1391-.8414c-.1474-.1088-.0715-.3429.112-.3444l1.4161-.011.4479-1.3435c.0585-.1738.3044-.1738.3624.0002z"/><path d="m30.4576 29.0404.448 1.3435 1.4161.011c.1832.0015.2594.2354.1117.3444l-1.1391.8414.4271 1.3502c.0553.1749-.1436.3194-.293.2129l-1.1522-.8235-1.1522.8235c-.1491.1065-.3482-.038-.293-.2129l.4271-1.3502-1.1391-.8414c-.1475-.1088-.0715-.3429.112-.3444l1.416-.011.448-1.3435c.0587-.174.3046-.174.3626 0z"/><path d="m30.4576 40.4606.448 1.3436 1.4161.0109c.1832.0015.2594.2354.1117.3445l-1.1391.8413.4271 1.3503c.0553.1748-.1436.3193-.293.2128l-1.1522-.8236-1.1522.8236c-.1491.1065-.3482-.038-.293-.2128l.4271-1.3503-1.1391-.8413c-.1475-.1089-.0715-.343.112-.3445l1.416-.0109.448-1.3436c.0587-.174.3046-.174.3626 0z"/><path d="m30.4576 50.8528.448 1.3435 1.4161.011c.1832.0015.2594.2354.1117.3444l-1.1391.8413.4271 1.3503c.0553.1749-.1436.3193-.293.2128l-1.1522-.8234-1.1522.8234c-.1491.1065-.3482-.0379-.293-.2128l.4271-1.3503-1.1391-.8413c-.1475-.1088-.0715-.3429.112-.3444l1.416-.011.448-1.3435c.0587-.174.3046-.174.3626 0z"/><path d="m35.9125 10.7105.448 1.3435 1.4161.011c.1832.0014.2594.2353.1117.3442l-1.1393.8413.4271 1.3503c.0552.1748-.1439.3195-.293.2128l-1.1522-.8236-1.1522.8236c-.1491.1067-.3482-.038-.293-.2128l.4271-1.3503-1.1391-.8413c-.1475-.1089-.0715-.343.1117-.3442l1.4161-.011.448-1.3435c.0591-.174.305-.174.363 0z"/><path d="m35.9125 23.1404.448 1.3435 1.4161.011c.1832.0015.2594.2354.1117.3444l-1.1393.8413.4271 1.3503c.0552.1749-.1439.3196-.293.2128l-1.1522-.8236-1.1522.8236c-.1491.1068-.3482-.0379-.293-.2128l.4271-1.3503-1.1391-.8413c-.1475-.1088-.0715-.3429.1117-.3444l1.4161-.011.448-1.3435c.0591-.174.305-.174.363 0z"/><path d="m35.9125 34.9496.448 1.3435 1.4161.011c.1832.0015.2594.2354.1117.3444l-1.1393.8414.4271 1.3503c.0552.1748-.1439.3193-.293.2128l-1.1522-.8237-1.1522.8237c-.1491.1067-.3482-.038-.293-.2128l.4271-1.3503-1.1391-.8414c-.1475-.1088-.0715-.3429.1117-.3444l1.4161-.011.448-1.3435c.0591-.1738.305-.1738.363 0z"/><path d="m35.9125 45.5548.448 1.3435 1.4161.011c.1832.0015.2594.2354.1117.3444l-1.1393.8414.4271 1.3502c.0552.1749-.1439.3196-.293.2129l-1.1522-.8234-1.1522.8234c-.1491.1067-.3482-.038-.293-.2129l.4271-1.3502-1.1391-.8414c-.1475-.1088-.0715-.3429.1117-.3444l1.4161-.011.448-1.3435c.0591-.174.305-.174.363 0z"/><path d="m41.3674 5.40317.448 1.34353 1.416.01097c.1833.00147.2595.23538.1118.34421l-1.1393.84134.4271 1.35027c.0552.17485-.1439.31933-.293.21281l-1.1522-.82362-1.1522.82362c-.1492.10673-.3483-.03796-.293-.21281l.4271-1.35027-1.1394-.84134c-.1474-.10883-.0715-.34295.112-.34421l1.4161-.01097.448-1.34353c.059-.17379.305-.17379.363 0z"/><path d="m41.3674 16.6106.448 1.3435 1.416.011c.1833.0015.2595.2354.1118.3444l-1.1393.8414.4271 1.3502c.0552.1749-.1439.3194-.293.2129l-1.1522-.8237-1.1522.8237c-.1492.1067-.3483-.038-.293-.2129l.4271-1.3502-1.1394-.8414c-.1474-.1088-.0715-.3429.112-.3444l1.4161-.011.448-1.3435c.059-.174.305-.174.363 0z"/><path d="m41.3674 29.0404.448 1.3435 1.416.011c.1833.0015.2595.2354.1118.3444l-1.1393.8414.4271 1.3502c.0552.1749-.1439.3194-.293.2129l-1.1522-.8235-1.1522.8235c-.1492.1065-.3483-.038-.293-.2129l.4271-1.3502-1.1394-.8414c-.1474-.1088-.0715-.3429.112-.3444l1.4161-.011.448-1.3435c.059-.174.305-.174.363 0z"/><path d="m41.3674 40.4606.448 1.3436 1.416.0109c.1833.0015.2595.2354.1118.3445l-1.1393.8413.4271 1.3503c.0552.1748-.1439.3193-.293.2128l-1.1522-.8236-1.1522.8236c-.1492.1065-.3483-.038-.293-.2128l.4271-1.3503-1.1394-.8413c-.1474-.1089-.0715-.343.112-.3445l1.4161-.0109.448-1.3436c.059-.174.305-.174.363 0z"/><path d="m41.3674 50.8528.448 1.3435 1.416.011c.1833.0015.2595.2354.1118.3444l-1.1393.8413.4271 1.3503c.0552.1749-.1439.3193-.293.2128l-1.1522-.8234-1.1522.8234c-.1492.1065-.3483-.0379-.293-.2128l.4271-1.3503-1.1394-.8413c-.1474-.1088-.0715-.3429.112-.3444l1.4161-.011.448-1.3435c.059-.174.305-.174.363 0z"/><path d="m46.8223 10.7105.4479 1.3435 1.4163.011c.1833.0014.2595.2353.1118.3442l-1.1393.8413.4271 1.3503c.0552.1748-.1439.3195-.293.2128l-1.1522-.8236-1.1523.8236c-.1491.1067-.3482-.038-.2929-.2128l.4271-1.3503-1.1394-.8413c-.1474-.1089-.0715-.343.1118-.3442l1.4163-.011.448-1.3435c.0588-.174.3048-.174.3628 0z"/><path d="m46.8223 23.1404.4479 1.3435 1.4163.011c.1833.0015.2595.2354.1118.3444l-1.1393.8413.4271 1.3503c.0552.1749-.1439.3196-.293.2128l-1.1522-.8236-1.1523.8236c-.1491.1068-.3482-.0379-.2929-.2128l.4271-1.3503-1.1394-.8413c-.1474-.1088-.0715-.3429.1118-.3444l1.4163-.011.448-1.3435c.0588-.174.3048-.174.3628 0z"/><path d="m46.8223 34.9496.4479 1.3435 1.4163.011c.1833.0015.2595.2354.1118.3444l-1.1393.8414.4271 1.3503c.0552.1748-.1439.3193-.293.2128l-1.1522-.8237-1.1523.8237c-.1491.1067-.3482-.038-.2929-.2128l.4271-1.3503-1.1394-.8414c-.1474-.1088-.0715-.3429.1118-.3444l1.4163-.011.448-1.3435c.0588-.1738.3048-.1738.3628 0z"/><path d="m46.8223 45.5548.4479 1.3435 1.4163.011c.1833.0015.2595.2354.1118.3444l-1.1393.8414.4271 1.3502c.0552.1749-.1439.3196-.293.2129l-1.1522-.8234-1.1523.8234c-.1491.1067-.3482-.038-.2929-.2129l.4271-1.3502-1.1394-.8414c-.1474-.1088-.0715-.3429.1118-.3444l1.4163-.011.448-1.3435c.0588-.174.3048-.174.3628 0z"/><path d="m52.2771 5.40317.448 1.34353 1.4161.01097c.1833.00147.2594.23538.112.34421l-1.1394.84134.4271 1.35027c.0553.17485-.1438.31933-.2929.21281l-1.1523-.82362-1.1522.82362c-.1491.10673-.3482-.03796-.2929-.21281l.4271-1.35027-1.1394-.84134c-.1474-.10883-.0715-.34295.1118-.34421l1.4161-.01097.448-1.34353c.059-.17379.3049-.17379.3629 0z"/><path d="m52.2771 16.6106.448 1.3435 1.4161.011c.1833.0015.2594.2354.112.3444l-1.1394.8414.4271 1.3502c.0553.1749-.1438.3194-.2929.2129l-1.1523-.8237-1.1522.8237c-.1491.1067-.3482-.038-.2929-.2129l.4271-1.3502-1.1394-.8414c-.1474-.1088-.0715-.3429.1118-.3444l1.4161-.011.448-1.3435c.059-.174.3049-.174.3629 0z"/><path d="m52.2771 29.0404.448 1.3435 1.4161.011c.1833.0015.2594.2354.112.3444l-1.1394.8414.4271 1.3502c.0553.1749-.1438.3194-.2929.2129l-1.1523-.8235-1.1522.8235c-.1491.1065-.3482-.038-.2929-.2129l.4271-1.3502-1.1394-.8414c-.1474-.1088-.0715-.3429.1118-.3444l1.4161-.011.448-1.3435c.059-.174.3049-.174.3629 0z"/><path d="m52.2771 40.4606.448 1.3436 1.4161.0109c.1833.0015.2594.2354.112.3445l-1.1394.8413.4271 1.3503c.0553.1748-.1438.3193-.2929.2128l-1.1523-.8236-1.1522.8236c-.1491.1065-.3482-.038-.2929-.2128l.4271-1.3503-1.1394-.8413c-.1474-.1089-.0715-.343.1118-.3445l1.4161-.0109.448-1.3436c.059-.174.3049-.174.3629 0z"/><path d="m52.2771 50.8528.448 1.3435 1.4161.011c.1833.0015.2594.2354.112.3444l-1.1394.8413.4271 1.3503c.0553.1749-.1438.3193-.2929.2128l-1.1523-.8234-1.1522.8234c-.1491.1065-.3482-.0379-.2929-.2128l.4271-1.3503-1.1394-.8413c-.1474-.1088-.0715-.3429.1118-.3444l1.4161-.011.448-1.3435c.059-.174.3049-.174.3629 0z"/></g></svg>