<svg width="12" height="14" viewBox="0 0 12 14" fill="none" xmlns="http://www.w3.org/2000/svg">
<path d="M11.3172 7.44217L5.69219 13.0672C5.57491 13.1844 5.41585 13.2503 5.25 13.2503C5.08415 13.2503 4.92509 13.1844 4.80781 13.0672C4.69054 12.9499 4.62465 12.7908 4.62465 12.625C4.62465 12.4591 4.69054 12.3001 4.80781 12.1828L9.36641 7.62498H0.875C0.70924 7.62498 0.550269 7.55913 0.433058 7.44192C0.315848 7.32471 0.25 7.16574 0.25 6.99998C0.25 6.83422 0.315848 6.67525 0.433058 6.55804C0.550269 6.44083 0.70924 6.37498 0.875 6.37498H9.36641L4.80781 1.81717C4.69054 1.69989 4.62465 1.54083 4.62465 1.37498C4.62465 1.20913 4.69054 1.05007 4.80781 0.932794C4.92509 0.815518 5.08415 0.749634 5.25 0.749634C5.41585 0.749634 5.57491 0.815518 5.69219 0.932794L11.3172 6.55779C11.3753 6.61584 11.4214 6.68477 11.4528 6.76064C11.4843 6.83652 11.5005 6.91785 11.5005 6.99998C11.5005 7.08212 11.4843 7.16344 11.4528 7.23932C11.4214 7.31519 11.3753 7.38412 11.3172 7.44217Z" fill="#4BC3B5"/>
</svg>
