<svg fill="none" height="109" viewBox="0 0 109 109" width="109" xmlns="http://www.w3.org/2000/svg" xmlns:xlink="http://www.w3.org/1999/xlink"><mask id="a" height="106" maskUnits="userSpaceOnUse" width="107" x="0" y="0"><path clip-rule="evenodd" d="m23.4062 0h60.1876c12.9269 0 23.4062 10.3814 23.4062 23.1875v29.8125 29.8125c0 12.8061-10.4793 23.1875-23.4062 23.1875h-60.1876c-12.9269 0-23.4062-10.3814-23.4062-23.1875v-29.8125-29.8125c0-12.8061 10.4793-23.1875 23.4062-23.1875z" fill="#4173cd" fill-rule="evenodd"/></mask><path d="m.191406 22.8477c0-12.502 10.134794-22.636762 22.636694-22.636762h62.7149c12.5019 0 22.637 10.134762 22.637 22.636762v62.7148c0 12.5019-10.1351 22.6365-22.637 22.6365h-62.7149c-12.5019 0-22.636694-10.1346-22.636694-22.6365z" fill="#86daf1"/><g mask="url(#a)"><g fill="#03aa6f"><path d="m95.5205 12.462-6.0706 4.0091-10.1175-2.0045-6.0706-2.0046-8.0941 2.0046-6.0707-2.0046 4.047-8.0184h8.0941l7.9322-3.928952c6.1174 2.996842 11.6517 7.042042 16.3502 11.947352z"/><path d="m48.9798 4.4437-2.0235 6.0139-6.0706 2.0045-6.0706 10.023-10.1175 6.0139-14.1645 2.0046v6.0138l4.0469 4.0092v8.0184l-6.07015-4.0093-6.07062-4.0091-3.5209-10.484c6.06031-14.3071 17.64507-25.61707 32.17367-31.41229l5.7468 3.80883z"/><path d="m53.027 60.5724-2.0235 10.023-8.0941 8.0185v6.0139l-8.094 6.0136v10.0226l-6.0704-2.0042-4.0472-10.0229v-20.046l-10.1175-2.0046-4.047-8.0184v-6.0139l4.047-4.0091 6.0706-6.0139 4.0469 8.0184h14.1645l6.0706 10.023z"/><path d="m104.222 24.149c11.046 19.5228 9.787 43.5961-3.238 61.8818l-5.4634-5.4123v-8.0185l-4.0469-8.0184-4.047-8.0185v-8.0184l-6.0706-4.0091-8.0941 2.0046-14.1644-6.0139-2.0235-14.0321 6.0706-6.0139h12.141l4.047 6.0139 12.141 2.0045 12.1413-4.0091z"/></g><path d="m65.1681 14.4667 8.0941-2.0045 6.0706 2.0045 10.1175 2.0046 6.0707-4.0091c3.3893 3.5141 6.313 7.441 8.701 11.6867l-.607.3408-12.141 4.0091-12.141-2.0046-4.0469-6.0138h-12.141l-6.0706 6.0138 2.0234 14.0321 14.1645 6.0139 8.0941-2.0045 6.0706 4.0091v8.0184l4.0469 8.0185 4.047 8.0184v8.0184l5.463 5.4124c-18.6866 26.2321-55.3022 32.4891-81.7798 13.9761-22.48731-15.7243-30.9234-44.8171-20.28575-69.9646l3.52089 10.4839 6.07062 4.0091 6.07064 4.0092-4.0472 4.0093v6.0139l4.047 8.0184 10.1175 2.0046v20.0459l4.0469 10.023 6.0706 2.0043v-10.0227l8.0941-6.0139v-6.0139l8.0941-8.0184 2.0235-10.023h-8.0941l-6.0706-10.023h-14.1645l-4.0469-8.0184-6.0706 6.0139v-8.0185l-4.047-4.0089v-6.0138l14.1645-2.0046 10.1175-6.0139 6.0707-10.023 6.0706-2.0045 2.0234-6.01391-12.141-2.00455-5.7467-3.80883c15.5608-6.20826 33.0601-5.52274 48.0786 1.884431l-7.9323 3.928949h-8.0941l-4.0469 8.01841z" fill="#86daf1"/></g></svg>