<svg width="90" height="35" viewBox="0 0 90 35" fill="none" xmlns="http://www.w3.org/2000/svg">
<path d="M88.6055 14.456L74.5636 2.44314C72.724 0.869243 70.3939 0.00391478 67.9848 6.09564e-05H3.37652C3.37652 6.09564e-05 0 -0.0587292 0 3.47524V33.0861C0 33.5937 0.199296 34.0805 0.554045 34.4395C0.908794 34.7984 1.38994 35.0001 1.89163 35.0001H67.9848C70.3944 34.999 72.7255 34.1334 74.5636 32.557L88.5926 20.5441C89.0292 20.1694 89.3801 19.7031 89.6207 19.1774C89.8613 18.6517 89.9859 18.0794 89.9859 17.5001C89.9859 16.9208 89.8613 16.3484 89.6207 15.8227C89.3801 15.2971 89.0292 14.8307 88.5926 14.456H88.6055Z" fill="#F3812F"/>
</svg>
