<?xml version="1.0" encoding="UTF-8"?>
<svg xmlns="http://www.w3.org/2000/svg" version="1.1" viewBox="0 0 78 78">
  <defs>
    <style>
      .cls-1 {
        fill: #34b7a3;
      }

      .cls-1, .cls-2, .cls-3 {
        stroke-width: 0px;
      }

      .cls-1, .cls-3 {
        fill-rule: evenodd;
      }

      .cls-2, .cls-3 {
        fill: #7f8387;
      }
    </style>
  </defs>
  <!-- Generator: Adobe Illustrator 28.6.0, SVG Export Plug-In . SVG Version: 1.0.2 Build 54)  -->
  <g>
    <g id="Layer_1">
      <g>
        <path class="cls-1" d="M28.06,34.9h2.62c2.76,0,3.93,1.99,3.98,3.97.05,2.08-1.09,4.19-3.98,4.19h-2.62v-8.17h0ZM30.68,32.63h-5v5.4h-6.26v-5.37h-2.4v12.71h2.4v-5.13h6.26v5.13h5c4.46,0,6.42-3.26,6.37-6.48-.05-3.16-2-6.27-6.37-6.27h0Z"/>
        <path class="cls-3" d="M7.71,34.81h3.67c1.53,0,2,.99,2,1.57,0,.73-.49,1.37-2,1.37h-3.67v-2.95h0ZM7.71,39.87h3.67c.98,0,2.38.6,2.38,1.75s-1.4,1.53-2.38,1.53h-3.67v-3.27h0ZM11.38,32.63h-6.04v12.75h6.04c2.64,0,4.77-.91,4.77-3.75,0-.8-.55-2.38-2.04-2.84,1.18-.53,1.66-1.48,1.66-2.46,0-2.57-1.87-3.7-4.38-3.7h0Z"/>
        <path class="cls-3" d="M31.53,40.79c-.22.9.38.77.68.35.33-.47.45-1.39.34-1.85-.13-.24,1.71-3.46-1.46-2.61-3.16-.85-1.33,2.36-1.46,2.61-.11.46,0,1.38.34,1.85.3.42.9.56.68-.35-.41-1.68,1.28-1.68.87,0"/>
        <path class="cls-3" d="M59.11,33.75h-.78c0,.1,1.31,1.94,1.34,2.05v1.44h.66v-1.44c.04-.11,1.39-1.96,1.39-2.05h-.79l-.93,1.44-.89-1.44ZM56.82,34.36c.8,0,.81,1.12,0,1.12h-1v-1.12h1ZM58.25,37.2l-1.06-1.19c1.33-.27,1.15-2.26-.37-2.26h-1.66v3.5h.66v-1.17h.63l1.02,1.17h.78v-.05ZM54.65,36.6h-1.96v-.79h1.89v-.61h-1.89v-.81h1.96v-.64h-2.61v3.5h2.61s0-.65,0-.65ZM51.58,33.75h-.82l-1.33,1.48v-1.48h-.66v3.5h.66v-1.55l1.46,1.55h.81v-.04l-1.68-1.76,1.55-1.69h.01ZM47.26,35.98h-1.3l.65-1.49s.65,1.49.65,1.49ZM47.81,37.25h.72l-1.57-3.5h-.72l-1.57,3.5h.71l.3-.66h1.83l.29.66h0ZM43.27,33.75h-1.66v3.5h1.66c1.72,0,1.5-1.58.75-1.81.76-.34.64-1.69-.75-1.69ZM42.26,34.35h1.01c.66,0,.82.81,0,.81h-1.01v-.81ZM42.26,35.74h1.01c.77,0,.97.9,0,.9h-1.01v-.9Z"/>
        <path class="cls-3" d="M70.86,33.75v3.5h2.45v-.61h-1.8v-2.89h-.66.01ZM67.94,33.75v3.5h2.45v-.61h-1.8v-2.89h-.66.01ZM67.32,37.25v-3.5h-.65v3.5h.65ZM66.05,37.25v-3.49h-.65v1.47h-1.72v-1.47h-.66v3.49h.66v-1.41h1.72v1.41h.65Z"/>
        <path class="cls-1" d="M69.36,38.63v5.63h3.95v-.98h-2.89v-4.65h-1.06ZM66.74,42.21h-2.09l1.04-2.4,1.04,2.4h0ZM67.64,44.26h1.16l-2.52-5.63h-1.16l-2.52,5.63h1.15l.48-1.06h2.94s.47,1.06.47,1.06ZM59.69,44.26h1.06v-4.67h1.78v-.96h-4.63v.96h1.78v4.67h.01ZM56.21,42.12l-2.75-3.49h-.86v5.63h1.06v-3.8l2.96,3.8h.66v-5.63h-1.06v3.49h0ZM51.52,43.22h-3.16v-1.27h3.04v-.99h-3.04v-1.3h3.16v-1.03h-4.21v5.63h4.21v-1.04ZM42.67,39.63h1.16c1.22,0,1.73.88,1.76,1.75.02.92-.48,1.85-1.76,1.85h-1.16v-3.61h0ZM43.82,38.63h-2.21v5.63h2.21c1.97,0,2.84-1.44,2.81-2.86-.02-1.39-.88-2.77-2.81-2.77Z"/>
        <rect class="cls-2" x="39" y="32.63" width=".65" height="12.75"/>
      </g>
    </g>
  </g>
</svg>