<?xml version="1.0" standalone="no"?>
<!DOCTYPE svg PUBLIC "-//W3C//DTD SVG 20010904//EN"
 "http://www.w3.org/TR/2001/REC-SVG-20010904/DTD/svg10.dtd">
<svg version="1.0" xmlns="http://www.w3.org/2000/svg"
 width="501.000000pt" height="143.000000pt" viewBox="0 0 501.000000 143.000000"
 preserveAspectRatio="xMidYMid meet">

<g transform="translate(0.000000,143.000000) scale(0.100000,-0.100000)"
fill="#000000" stroke="none">
<path d="M212 1280 c-23 -50 -57 -95 -117 -157 l-84 -87 -3 -133 c-2 -123 -1
-134 20 -162 l22 -30 -20 -33 c-11 -18 -20 -41 -20 -50 0 -17 76 -88 94 -88 6
1 27 14 46 30 l34 30 -58 58 -57 59 61 54 62 55 -46 34 c-25 19 -46 37 -46 40
0 3 34 32 75 65 l75 60 0 163 c0 89 -1 162 -2 161 -2 0 -18 -31 -36 -69z"/>
<path d="M258 655 l-68 -53 108 -88 c150 -123 382 -357 421 -424 l31 -55 0
119 c0 114 -1 120 -32 178 -17 33 -64 92 -102 132 -67 67 -275 246 -286 245
-3 0 -35 -24 -72 -54z"/>
<path d="M205 267 l-39 -34 22 -31 c12 -17 31 -50 42 -74 l20 -43 0 108 c0 59
-2 107 -3 107 -2 0 -21 -15 -42 -33z"/>
</g>
</svg>
