<?xml version="1.0" encoding="UTF-8"?>
<svg xmlns="http://www.w3.org/2000/svg" version="1.1" viewBox="0 0 78 78">
  <defs>
    <style>
      .cls-1 {
        fill: #bf8e2d;
      }

      .cls-1, .cls-2 {
        stroke-width: 0px;
      }

      .cls-2 {
        fill: #040205;
      }
    </style>
  </defs>
  <!-- Generator: Adobe Illustrator 28.6.0, SVG Export Plug-In . SVG Version: 1.0.2 Build 54)  -->
  <g>
    <g id="Layer_1">
      <g>
        <path class="cls-1" d="M20.57,32.44h0v10.25h-9.52c0,1.57,1.17,2.85,2.62,2.85h6.8s.06,0,.09,0h0c1.45,0,2.62-1.27,2.62-2.84v-7.4c0-1.57-1.17-2.85-2.62-2.85"/>
        <path class="cls-1" d="M16.11,40.05c.67,1.33,2.21,1.82,3.44,1.09l.08-.05-3.62-7.15c-.47-.94-1.36-1.47-2.28-1.48,0,0-.02,0-.03,0,0,0-.02,0-.03,0-.92,0-1.81.54-2.28,1.48l-5.7,11.28c1.27.76,2.86.25,3.56-1.12l4.45-8.8,2.41,4.76Z"/>
        <path class="cls-1" d="M11.67,41.48h3.91l-1.34-2.71c-2.48,0-2.58,2.71-2.58,2.71"/>
        <path class="cls-2" d="M28.69,40.82h.32c.61,0,.91.2.91.65v.11h-.29v-.03c0-.38-.19-.46-.64-.46h-.22c-.25,0-.43,0-.57.12-.13.11-.13.27-.13.55v.72c0,.27,0,.44.13.55.14.12.32.12.57.12h.22c.23,0,.39,0,.51-.11.11-.1.12-.25.12-.5v-.16h-.7v-.26h.99v.42c0,.65-.24.86-.91.86h-.32c-.67,0-.91-.22-.91-.86v-.86c0-.65.24-.86.91-.86"/>
        <path class="cls-2" d="M30.7,41.12v1.01h.81c.35,0,.51-.04.51-.36v-.29c0-.32-.15-.36-.51-.36h-.81ZM30.43,40.85h1.14c.54,0,.75.12.75.58v.38c0,.26-.11.41-.33.45.25.06.33.2.33.51v.61h-.29v-.52c0-.37-.09-.46-.42-.46h-.9v.98h-.28v-2.52Z"/>
        <path class="cls-2" d="M33.76,41.09c-.25,0-.42,0-.57.12-.12.11-.14.28-.14.55v.72c0,.27.01.44.14.55.14.12.32.12.57.12h.16c.25,0,.43,0,.57-.12.12-.11.13-.28.13-.55v-.72c0-.27-.01-.44-.14-.55-.14-.12-.32-.12-.57-.12h-.16ZM33.68,40.82h.32c.68,0,.91.21.91.86v.86c0,.65-.24.86-.91.86h-.32c-.67,0-.91-.22-.91-.86v-.86c0-.65.24-.86.91-.86"/>
        <path class="cls-2" d="M35.7,40.85v1.66c0,.24,0,.4.12.5.12.11.27.11.49.11h.26c.22,0,.37,0,.49-.11.11-.1.11-.25.11-.5v-1.66h.28v1.69c0,.65-.22.86-.86.86h-.31c-.64,0-.86-.22-.86-.86v-1.69h.28Z"/>
        <path class="cls-2" d="M39.56,41.44c0-.28-.14-.32-.46-.32h-.78v1.01h.78c.31,0,.46-.03.46-.32v-.37ZM38.04,40.85h1.06c.54,0,.75.12.75.58v.38c0,.46-.2.59-.75.59h-.78v.98h-.28v-2.52Z"/>
        <path class="cls-2" d="M42.4,41.09c-.25,0-.42,0-.57.12-.12.11-.14.28-.14.55v.72c0,.27.01.44.14.55.14.12.32.12.57.12h.16c.25,0,.43,0,.57-.12.12-.11.13-.28.13-.55v-.72c0-.27-.01-.44-.14-.55-.14-.12-.32-.12-.57-.12h-.16ZM42.32,40.82h.32c.68,0,.91.21.91.86v.86c0,.65-.24.86-.91.86h-.32c-.67,0-.91-.22-.91-.86v-.86c0-.65.24-.86.91-.86"/>
        <polygon class="cls-2" points="44.08 40.85 45.65 40.85 45.65 41.12 44.35 41.12 44.35 41.95 45.61 41.95 45.61 42.2 44.35 42.2 44.35 43.38 44.08 43.38 44.08 40.85"/>
        <path class="cls-2" d="M48.07,40.82h.3c.59,0,.84.17.84.72v.11h-.29v-.07c0-.41-.15-.5-.58-.5h-.19c-.23,0-.39.01-.51.12-.12.11-.12.29-.12.55v.72c0,.26,0,.43.12.55.12.12.28.12.51.12h.19c.44,0,.58-.09.58-.53,0-.04,0-.08,0-.12h.29v.17c0,.58-.23.75-.84.75h-.3c-.63,0-.84-.22-.84-.86v-.86c0-.64.21-.86.84-.86"/>
        <path class="cls-2" d="M50.59,41.09c-.25,0-.42,0-.57.12-.12.11-.14.28-.14.55v.72c0,.27.01.44.14.55.14.12.32.12.57.12h.16c.25,0,.43,0,.57-.12.12-.11.13-.28.13-.55v-.72c0-.27-.01-.44-.14-.55-.14-.12-.32-.12-.57-.12h-.16ZM50.51,40.82h.32c.68,0,.91.21.91.86v.86c0,.65-.24.86-.91.86h-.32c-.67,0-.91-.22-.91-.86v-.86c0-.65.24-.86.91-.86"/>
        <polygon class="cls-2" points="52.27 40.85 52.73 40.85 53.59 43.1 54.45 40.85 54.91 40.85 54.91 43.38 54.63 43.38 54.63 41.09 53.76 43.38 53.42 43.38 52.55 41.09 52.55 43.38 52.27 43.38 52.27 40.85"/>
        <path class="cls-2" d="M57.04,41.44c0-.28-.14-.32-.46-.32h-.78v1.01h.78c.31,0,.46-.03.46-.32v-.37ZM55.53,40.85h1.06c.54,0,.75.12.75.58v.38c0,.46-.2.59-.75.59h-.78v.98h-.28v-2.52Z"/>
        <path class="cls-2" d="M58.89,42.48l-.5-1.36h-.09l-.5,1.36h1.09ZM58.11,40.85h.46l.94,2.52h-.29l-.24-.65h-1.28l-.24.65h-.29l.93-2.52Z"/>
        <polygon class="cls-2" points="59.85 40.85 60.28 40.85 61.65 43.11 61.65 40.85 61.93 40.85 61.93 43.38 61.5 43.38 60.13 41.12 60.13 43.38 59.85 43.38 59.85 40.85"/>
        <rect class="cls-2" x="62.54" y="40.85" width=".28" height="2.52"/>
        <polygon class="cls-2" points="63.43 40.85 65.2 40.85 65.2 41.12 63.71 41.12 63.71 41.95 65.16 41.95 65.16 42.2 63.71 42.2 63.71 43.11 65.2 43.11 65.2 43.38 63.43 43.38 63.43 40.85"/>
        <path class="cls-2" d="M65.87,42.55v.05c0,.26.03.42.15.48.11.06.34.06.71.06.26,0,.43-.03.51-.12.05-.05.06-.16.06-.34,0-.31-.01-.42-.28-.44l-.78-.06c-.45-.03-.62-.19-.62-.67,0-.27.04-.45.19-.58.13-.12.36-.12.7-.12h.09c.37,0,.62,0,.81.17.1.08.14.23.14.45,0,.04,0,.08,0,.12h-.28v-.06c0-.16-.01-.27-.07-.32-.09-.09-.31-.09-.7-.09-.45,0-.59.03-.59.44,0,.29.07.37.32.4l.8.07c.43.04.56.22.56.66,0,.26-.02.44-.14.58-.16.18-.42.19-.81.19h-.12c-.33,0-.57,0-.74-.16-.13-.11-.18-.3-.18-.57,0-.04,0-.08,0-.12h.28Z"/>
        <path class="cls-2" d="M29.68,37.72l-.33-1.39h-.06l-.34,1.39h.74ZM28.63,35.63h1.39l.95,3.37h-.97l-.15-.59h-1.06l-.15.59h-.97l.97-3.37Z"/>
        <polygon class="cls-2" points="31.4 35.63 32.31 35.63 32.31 38.22 33.82 38.22 33.82 39 31.4 39 31.4 35.63"/>
        <path class="cls-2" d="M37.09,39.04h-.42c-.72,0-1.02-.27-1.02-1.01v-.48h.88v.38c0,.22.04.31.22.31h.16c.18,0,.22-.09.22-.31v-2.31h.91v2.33c0,.72-.31,1.08-.95,1.08"/>
        <path class="cls-2" d="M40.4,37.72l-.33-1.39h-.06l-.34,1.39h.74ZM39.35,35.63h1.39l.95,3.37h-.97l-.15-.59h-1.06l-.15.59h-.97l.97-3.37Z"/>
        <path class="cls-2" d="M42.74,37.96v.03c0,.25.11.33.44.33h.23c.27,0,.37-.06.37-.25v-.15c0-.19-.12-.22-.36-.25l-.73-.08c-.55-.06-.79-.33-.79-.88v-.21c0-.32.1-.57.29-.72.19-.16.45-.19.82-.19h.54c.68,0,1.04.29,1.04.79v.23h-.87v-.04c0-.2-.08-.27-.33-.27h-.21c-.26,0-.38.05-.38.23v.14c0,.18.13.2.37.23l.67.07c.57.06.86.33.86.82v.32c0,.55-.37.92-.96.92h-.74c-.77,0-1.13-.25-1.13-.85v-.23h.87Z"/>
        <polygon class="cls-2" points="45.23 35.63 46.13 35.63 46.13 36.89 47.31 36.89 47.31 35.63 48.21 35.63 48.21 39 47.31 39 47.31 37.68 46.13 37.68 46.13 39 45.23 39 45.23 35.63"/>
        <polygon class="cls-2" points="51.18 36.38 50.31 36.38 50.31 35.63 52.96 35.63 52.96 36.38 52.09 36.38 52.09 39 51.18 39 51.18 36.38"/>
        <path class="cls-2" d="M54.85,37.26c.29,0,.39-.08.39-.37v-.13c0-.29-.1-.38-.39-.38h-.51v.88h.51ZM53.44,35.63h1.36c.95,0,1.36.18,1.36.92v.27c0,.45-.22.71-.65.77.45.08.65.29.65.71v.7h-.92v-.61c0-.29-.1-.38-.39-.38h-.5v.98h-.9v-3.37Z"/>
        <path class="cls-2" d="M58.53,37.72l-.33-1.39h-.06l-.34,1.39h.74ZM57.48,35.63h1.39l.95,3.37h-.97l-.15-.59h-1.06l-.15.59h-.97l.97-3.37Z"/>
        <path class="cls-2" d="M61.81,38.25c.46,0,.51-.14.51-.65v-.56c0-.51-.05-.66-.51-.66h-.67v1.87h.67ZM60.24,35.63h1.71c.96,0,1.29.36,1.29,1.34v.68c0,.98-.32,1.34-1.29,1.34h-1.71v-3.37Z"/>
        <rect class="cls-2" x="63.84" y="35.63" width=".91" height="3.37"/>
        <polygon class="cls-2" points="65.46 35.63 66.81 35.63 67.86 38.13 67.86 35.63 68.72 35.63 68.72 39 67.37 39 66.33 36.47 66.33 39 65.46 39 65.46 35.63"/>
        <path class="cls-2" d="M71.41,36.68c0-.22-.15-.3-.48-.3h-.23c-.46,0-.51.15-.51.66v.56c0,.51.05.65.51.65h.25c.34,0,.48-.08.48-.33v-.13h-.51v-.63h1.39v.57c0,.9-.38,1.31-1.25,1.31h-.61c-.76,0-1.16-.48-1.16-1.43v-.51c0-1.03.38-1.52,1.29-1.52h.49c.75,0,1.24.43,1.24.95v.14h-.9Z"/>
      </g>
    </g>
  </g>
</svg>