<?xml version="1.0" encoding="UTF-8"?>
<svg xmlns="http://www.w3.org/2000/svg" version="1.1" xmlns:xlink="http://www.w3.org/1999/xlink" viewBox="0 0 78 78">
  <defs>
    <style>
      .cls-1 {
        fill: #231f20;
      }

      .cls-1, .cls-2, .cls-3, .cls-4, .cls-5, .cls-6 {
        stroke-width: 0px;
      }

      .cls-7 {
        clip-path: url(#clippath-2);
      }

      .cls-2 {
        fill: none;
      }

      .cls-8 {
        clip-path: url(#clippath-1);
      }

      .cls-9 {
        clip-path: url(#clippath-4);
      }

      .cls-3 {
        fill: #cb3b2c;
      }

      .cls-10 {
        clip-path: url(#clippath);
      }

      .cls-11 {
        clip-path: url(#clippath-3);
      }

      .cls-4 {
        fill: #f1b81b;
      }

      .cls-12 {
        clip-path: url(#clippath-5);
      }

      .cls-5 {
        fill: #2d90cd;
      }

      .cls-6 {
        fill: #000001;
      }
    </style>
    <clipPath id="clippath">
      <rect class="cls-2" x="7.53" y="29.75" width="62.94" height="18.49"/>
    </clipPath>
    <clipPath id="clippath-1">
      <rect class="cls-2" x="7.53" y="29.75" width="62.94" height="18.49"/>
    </clipPath>
    <clipPath id="clippath-2">
      <rect class="cls-2" x="7.53" y="29.75" width="62.94" height="18.49"/>
    </clipPath>
    <clipPath id="clippath-3">
      <rect class="cls-2" x="7.53" y="29.75" width="62.94" height="18.49"/>
    </clipPath>
    <clipPath id="clippath-4">
      <rect class="cls-2" x="7.53" y="29.75" width="62.94" height="18.49"/>
    </clipPath>
    <clipPath id="clippath-5">
      <rect class="cls-2" x="7.53" y="29.75" width="62.94" height="18.49"/>
    </clipPath>
  </defs>
  <!-- Generator: Adobe Illustrator 28.6.0, SVG Export Plug-In . SVG Version: 1.0.2 Build 54)  -->
  <g>
    <g id="Layer_1">
      <g>
        <g class="cls-10">
          <path class="cls-6" d="M8.85,47.93c.53,0,.69-.13.69-.67v-.92c0-.55-.14-.69-.69-.69h-1.01v2.27h1.01ZM7.53,45.37h1.37c.71,0,.96.25.96.95v.94c0,.7-.25.95-.96.95h-1.37v-2.84Z"/>
        </g>
        <rect class="cls-6" x="10.84" y="45.37" width=".32" height="2.84"/>
        <g class="cls-8">
          <path class="cls-6" d="M13.15,45.34h.36c.69,0,1.02.22,1.02.73v.12h-.32v-.04c0-.43-.21-.52-.72-.52h-.25c-.28,0-.48,0-.64.14-.14.12-.15.31-.15.61v.81c0,.3,0,.49.15.61.16.14.36.14.64.14h.25c.25,0,.43,0,.58-.12.13-.11.14-.28.14-.56v-.17h-.79v-.29h1.11v.48c0,.73-.27.97-1.02.97h-.36c-.76,0-1.02-.24-1.02-.97v-.96c0-.73.27-.97,1.02-.97"/>
        </g>
        <rect class="cls-6" x="15.49" y="45.37" width=".32" height="2.84"/>
        <polygon class="cls-6" points="16.49 45.37 16.49 45.67 17.39 45.67 17.39 48.21 17.71 48.21 17.71 45.67 18.61 45.67 18.61 45.37 16.49 45.37"/>
        <path class="cls-6" d="M19.93,45.67h.1l.57,1.53h-1.23l.56-1.53ZM19.73,45.37l-1.05,2.84h.32l.27-.73h1.44l.27.73h.32l-1.05-2.84h-.51Z"/>
        <polygon class="cls-6" points="22.07 45.37 22.07 48.21 23.98 48.21 23.98 47.91 22.37 47.91 22.37 45.37 22.07 45.37"/>
        <g class="cls-7">
          <path class="cls-6" d="M26.73,47.28v.05c0,.3.03.47.16.54.12.07.39.07.8.07.29,0,.48-.03.57-.13.05-.05.07-.18.07-.38,0-.35-.02-.47-.32-.49l-.87-.07c-.5-.04-.69-.21-.69-.75,0-.3.05-.51.21-.65.15-.13.41-.14.78-.14h.1c.41,0,.7,0,.91.19.11.09.16.26.16.51,0,.04,0,.09,0,.14h-.32v-.07c0-.18-.02-.3-.08-.36-.1-.1-.35-.11-.78-.11-.51,0-.66.04-.66.5,0,.33.08.42.35.45l.89.07c.48.04.63.24.63.74,0,.29-.02.5-.16.65-.18.2-.47.21-.91.21h-.14c-.37,0-.64,0-.83-.18-.15-.13-.21-.34-.21-.64,0-.05,0-.09,0-.14h.31Z"/>
          <path class="cls-6" d="M30.68,45.63c-.28,0-.48,0-.64.14-.14.12-.15.31-.15.62v.8c0,.3.01.49.15.61.16.14.36.14.64.14h.18c.28,0,.48,0,.64-.14.14-.12.15-.31.15-.61v-.81c0-.3-.01-.5-.15-.62-.16-.13-.36-.14-.64-.14h-.18ZM30.59,45.34h.36c.77,0,1.02.23,1.02.97v.96c0,.73-.27.97-1.02.97h-.36c-.76,0-1.02-.24-1.02-.97v-.96c0-.73.27-.97,1.02-.97"/>
        </g>
        <polygon class="cls-6" points="32.95 45.37 32.95 48.21 33.27 48.21 33.27 46.89 34.68 46.89 34.68 46.6 33.27 46.6 33.27 45.67 34.73 45.67 34.73 45.37 32.95 45.37"/>
        <polygon class="cls-6" points="34.84 45.37 34.84 45.67 35.74 45.67 35.74 48.21 36.05 48.21 36.05 45.67 36.96 45.67 36.96 45.37 34.84 45.37"/>
        <polygon class="cls-6" points="40.79 45.37 40.15 47.83 39.49 45.37 39.05 45.37 38.39 47.83 37.75 45.37 37.42 45.37 38.18 48.21 38.6 48.21 39.27 45.71 39.95 48.21 40.35 48.21 41.12 45.37 40.79 45.37"/>
        <path class="cls-6" d="M42.78,45.67h.1l.57,1.53h-1.23l.56-1.53ZM42.57,45.37l-1.05,2.84h.32l.27-.73h1.44l.27.73h.32l-1.05-2.84h-.51Z"/>
        <g class="cls-11">
          <path class="cls-6" d="M45.22,45.67v1.14h.9c.39,0,.57-.04.57-.4v-.33c0-.36-.17-.4-.57-.4h-.9ZM44.91,45.37h1.28c.61,0,.84.14.84.65v.43c0,.3-.12.46-.37.51.28.07.37.23.37.57v.68h-.33v-.59c0-.41-.1-.52-.47-.52h-1.01v1.1h-.31v-2.84Z"/>
        </g>
        <polygon class="cls-6" points="48.02 45.37 48.02 48.21 50.01 48.21 50.01 47.91 48.33 47.91 48.33 46.89 49.97 46.89 49.97 46.6 48.33 46.6 48.33 45.67 50.01 45.67 50.01 45.37 48.02 45.37"/>
        <polygon class="cls-6" points="55.06 45.37 54.1 47.9 53.13 45.37 52.61 45.37 52.61 48.21 52.92 48.21 52.92 45.64 53.9 48.21 54.29 48.21 55.27 45.64 55.27 48.21 55.58 48.21 55.58 45.37 55.06 45.37"/>
        <path class="cls-6" d="M57.61,45.67h.1l.57,1.53h-1.23l.56-1.53ZM57.4,45.37l-1.05,2.84h.32l.27-.73h1.44l.27.73h.32l-1.05-2.84h-.51Z"/>
        <g class="cls-9">
          <path class="cls-6" d="M60.05,45.67v1.14h.9c.39,0,.57-.04.57-.4v-.33c0-.36-.17-.4-.57-.4h-.9ZM59.74,45.37h1.28c.61,0,.84.14.84.65v.43c0,.3-.12.46-.37.51.28.07.37.23.37.57v.68h-.33v-.59c0-.41-.1-.52-.47-.52h-1.01v1.1h-.31v-2.84Z"/>
        </g>
        <polygon class="cls-6" points="64.56 45.37 63.41 46.57 63.17 46.57 63.17 45.37 62.86 45.37 62.86 48.21 63.17 48.21 63.17 46.88 63.41 46.88 64.71 48.21 65.14 48.21 63.67 46.72 64.98 45.37 64.56 45.37"/>
        <polygon class="cls-6" points="65.86 45.37 65.86 48.21 67.84 48.21 67.84 47.91 66.17 47.91 66.17 46.89 67.8 46.89 67.8 46.6 66.17 46.6 66.17 45.67 67.84 45.67 67.84 45.37 65.86 45.37"/>
        <polygon class="cls-6" points="68.35 45.37 68.35 45.67 69.25 45.67 69.25 48.21 69.57 48.21 69.57 45.67 70.47 45.67 70.47 45.37 68.35 45.37"/>
        <g class="cls-12">
          <path class="cls-1" d="M21.42,38.08c0,.78-.21,1.35-.62,1.71-.41.36-1.07.55-1.96.55h-7.12v-7.02h6.59c1.07,0,1.85.19,2.35.57.5.38.75.97.75,1.78v2.42ZM24.18,31.02c-.95-.74-2.48-1.1-4.58-1.1H7.53v13.76h13.3c1.66,0,2.88-.35,3.64-1.06.76-.71,1.15-1.82,1.15-3.35v-4.73c0-1.61-.48-2.78-1.43-3.52"/>
          <path class="cls-1" d="M40.74,35.16l-6.91-.11c-.63-.05-1.06-.16-1.29-.34-.23-.18-.35-.46-.35-.85s.13-.68.39-.84c.26-.16.79-.24,1.6-.24h4.84c.46,0,.81.11,1.04.34.23.23.35.57.35,1.03v.06h4.05c.02-.22.03-.38.03-.48,0-.1,0-.19,0-.28,0-1.3-.35-2.24-1.05-2.82-.7-.58-1.84-.87-3.43-.87h-6.41c-1.46,0-2.51.08-3.16.24-.65.16-1.17.43-1.57.81-.34.34-.59.76-.74,1.28-.15.51-.23,1.16-.23,1.95,0,1.53.29,2.58.87,3.16.58.58,1.7.89,3.35.94l6.6.15c.84.06,1.39.18,1.65.36.26.18.38.47.38.89s-.11.7-.33.87c-.22.18-.59.26-1.11.26h-5.28c-.81,0-1.34-.09-1.59-.27-.25-.18-.38-.53-.38-1.05v-.25h-4.15c-.02.28-.03.51-.04.7,0,.19-.01.32-.01.4,0,1.4.39,2.36,1.16,2.88.78.51,2.31.77,4.61.77h5.6c1.2,0,2.12-.05,2.75-.15.63-.1,1.14-.27,1.51-.5.56-.37.96-.82,1.2-1.34.24-.52.36-1.26.36-2.22,0-1.61-.32-2.74-.97-3.41-.64-.67-1.75-1.02-3.33-1.06"/>
        </g>
        <polygon class="cls-1" points="63.57 29.92 58.58 38.51 53.67 29.92 47.47 29.92 47.47 43.68 51.56 43.68 51.56 33.88 57.19 43.68 59.94 43.68 65.62 33.88 65.62 29.92 63.57 29.92"/>
        <rect class="cls-3" x="66.41" y="29.92" width="4.07" height="3.84"/>
        <rect class="cls-4" x="66.41" y="34.88" width="4.07" height="3.84"/>
        <rect class="cls-5" x="66.41" y="39.84" width="4.07" height="3.84"/>
      </g>
    </g>
  </g>
</svg>