<?xml version="1.0" encoding="UTF-8"?>
<svg xmlns="http://www.w3.org/2000/svg" version="1.1" viewBox="0 0 78 78">
  <defs>
    <style>
      .cls-1 {
        fill: #010101;
      }

      .cls-1, .cls-2 {
        stroke-width: 0px;
      }

      .cls-2 {
        fill: #ca9836;
      }
    </style>
  </defs>
  <!-- Generator: Adobe Illustrator 28.6.0, SVG Export Plug-In . SVG Version: 1.0.2 Build 54)  -->
  <g>
    <g id="Layer_1">
      <g>
        <g>
          <path class="cls-1" d="M30.4,56.64l1.92-3.05-.9-.05c-.33-.02-.52.05-.8.23h-.02l.27-.61h2.34l-1.91,3.04,1.11.06c.39.02.72-.1,1.05-.29h.02l-.3.67h-2.79Z"/>
          <path class="cls-1" d="M37.23,56.29c-.23.31-.67.43-1.04.43-.35,0-.72-.11-.96-.37-.28-.31-.27-.66-.27-1.04v-1.42c0-.24.04-.63-.23-.73v-.02h1.01v.02c-.26.1-.23.49-.23.73v1.42c0,.71.3,1.03.84,1.03.3,0,.6-.12.77-.37.12-.16.11-.29.11-.48v-1.6c0-.24.03-.63-.23-.73v-.02h1.01v.02c-.26.1-.23.49-.23.73v2c0,.24-.03.63.24.73v.02h-.78v-.35Z"/>
          <path class="cls-1" d="M40.22,54.94v.96c0,.24-.03.63.23.73v.02h-1.01v-.02c.27-.1.23-.49.23-.73v-2c0-.24.04-.63-.23-.73v-.02h1.01v.02c-.27.1-.23.49-.23.73v.66h1.91v-.66c0-.24.04-.63-.23-.73v-.02h1.01v.02c-.27.1-.24.49-.24.73v2c0,.24-.03.63.24.73v.02h-1.01v-.02c.27-.1.23-.49.23-.73v-.96h-1.91Z"/>
          <path class="cls-1" d="M44.57,53.87c0-.24.04-.63-.23-.71v-.02h1.3c1.21,0,1.96.66,1.96,1.71s-.8,1.78-1.99,1.78h-1.27v-.02c.26-.18.23-.43.23-.75v-2ZM45.11,56.22c.13.03.25.04.39.04.79,0,1.5-.41,1.5-1.33s-.52-1.39-1.41-1.39c-.16,0-.32.02-.48.06v2.63Z"/>
        </g>
        <g>
          <path class="cls-2" d="M44.64,24.25s-.04-.09,0-.16l.85-1.71c.05-.11.11-.16.16-.16.09,0,.46.23,1.12.68.66.45.99.72.99.81,0,.28-.29.89-.88,1.81-.07.12-.14.16-.21.11-.64-.5-1.32-.96-2.03-1.39Z"/>
          <path class="cls-2" d="M36.73,27.6c-.22.14-.32.23-.32.28,0,.02.02.02.05.02.06,0,.19-.04.39-.12,1.21-.43,1.87-.68,1.99-.74.57-.26,1.2-.65,1.88-1.16.6-.43,1.1-.92,1.48-1.46.34.2.56.37.65.51.31-.45.46-.77.46-.95-.09-.14-.31-.32-.65-.53.15-.49.23-.94.23-1.35,0-.43-.12-.7-.37-.79-.29-.11-.66.04-1.1.44-.44.4-.66.84-.66,1.32,0,.4.35.78,1.04,1.14-.53.56-1.32,1.15-2.39,1.79-.9.54-1.79,1.07-2.69,1.6ZM41.39,22.56c0-.06.07-.14.22-.22.15-.08.26-.13.34-.13.17,0,.28.12.32.37.05.22.03.43-.05.65-.56-.26-.83-.49-.83-.67Z"/>
          <path class="cls-2" d="M40.33,38.27c-.22.14-.32.23-.32.28,0,.02.02.02.05.02.06,0,.19-.04.39-.12,1.21-.43,1.87-.68,1.99-.74.57-.26,1.2-.65,1.88-1.16.6-.43,1.1-.92,1.48-1.46.34.2.56.37.65.51.31-.45.46-.77.46-.95-.09-.14-.31-.32-.65-.53.15-.49.23-.94.23-1.35,0-.43-.12-.7-.37-.79-.29-.11-.66.04-1.1.44-.44.4-.66.84-.66,1.32,0,.4.35.78,1.04,1.14-.53.56-1.32,1.15-2.39,1.79-.9.54-1.79,1.07-2.69,1.6ZM44.99,33.24c0-.06.07-.14.22-.22.15-.08.26-.13.34-.13.17,0,.28.12.32.37.05.22.03.43-.05.65-.56-.26-.83-.49-.83-.67Z"/>
          <path class="cls-2" d="M32.95,28.29h.16c.45,0,.79-.64,1.03-1.92l-.06-.08h-.04c-.29.61-.56.91-.81.91-.34,0-.52-.34-.52-1.03,0-.45.26-1.49.77-3.13h-.08c-.79,1.36-1.19,2.57-1.19,3.63v.54c0,.11.01.25.04.44.13.44.36.65.69.65Z"/>
          <path class="cls-2" d="M53.16,41.62c-.29-.29-.92-.7-1.88-1.22-.71-.4-1.49-.98-2.34-1.74.22.04.43.05.65.05.42.02.63-.06.63-.24,0-.13-.15-.26-.46-.41l-2.47-1.28c-.25-.14-.42-.22-.49-.22s-.14.14-.19.41c-.16.78-.21,1.41-.14,1.9-.56.54-1.05,1.21-1.47,1.98-.54,1.07-.82,2.24-.82,3.51,0,.67.17,1.33.52,1.98-.58.27-1.32.41-2.23.41v.04c-.61,0-1.07-.1-1.36-.3-.6-.38-1.01-1.2-1.22-2.45-.49-2.88-.9-5.13-1.22-6.74-.07-.35-.15-.69-.23-1.03-.47.51-.93,1.02-1.4,1.53.46,1.75.68,3.03.68,3.85,0,.36-.05.63-.16.82,0,.02-.15.24-.46.65-1,1.34-2.39,2.62-4.19,3.83-2.3,1.58-4.44,2.37-6.42,2.37-1.41,0-2.12-.72-2.12-2.15,0-1,.27-2.45.82-4.35.09-.27.14-.47.14-.6,0-.09-.02-.14-.05-.14-.09,0-.22.21-.38.63-.78,1.92-1.17,3.81-1.17,5.65,0,.94.2,1.73.6,2.37.47.78,1.18,1.17,2.12,1.17,1.76,0,3.71-.68,5.85-2.04,1.85-1.18,3.43-2.57,4.73-4.19.65-.8,1.09-1.83,1.3-3.1.24,1.58.41,2.64.52,3.18.25,1.5.76,2.54,1.52,3.1.53.38,1.26.57,2.2.57v-.02c.64-.01,1.38-.2,2.23-.57.83-.38,1.57-.82,2.2-1.33,1.3.42,2.64.63,4,.63.85,0,1.49-.12,1.9-.35.27-.16.54-.47.82-.92.38-.63.57-1.47.57-2.5,0-1.11-.37-2.02-1.11-2.75ZM47.21,44.99c-.54-.09-1.03-.27-1.47-.54-.58-.34-.87-.76-.87-1.25,0-.56.3-1.19.9-1.89.6-.7,1.11-1.05,1.52-1.05.25,0,.56.3.92.9.38.62.57,1.21.57,1.77,0,.74-.53,1.43-1.58,2.07ZM51.8,45.78c-.83,0-1.79-.14-2.85-.41.51-1.34.76-2.49.76-3.45.34.34.99.79,1.93,1.33.83.49,1.34.86,1.52,1.11.24.34.35.63.35.84,0,.38-.57.57-1.71.57Z"/>
          <path class="cls-2" d="M35.64,33.88c.39-.42.88-.96,1.51-1.64-.55-1.32-1.2-2.47-1.93-3.43-.16-.22-.28-.16-.35.16-.07.27-.15.71-.24,1.31-.11.63-.15.99-.11,1.06.43.93.8,1.77,1.13,2.55Z"/>
          <path class="cls-2" d="M32.32,39.8c1.01,0,2.62-1.09,3.25-1.76,1.25-1.33,2.92-3.34,4-4.35,1.33-1.25,4.5-3.63,6.35-3.63,1.01,0,1.77.45,2.27,1.36.11.18.19.27.24.27.04,0,.09-.09.16-.27.25-.53.37-1.15.37-1.84,0-.57-.25-1.06-.75-1.48-.5-.42-1.09-.63-1.79-.63-2.42,0-5.15,1.65-8.21,4.95,0,0,0,0,0,0-.71.77-2.39,2.58-3.33,3.6-1.16,1.26-2.37,1.73-3.31,1.73-.6,0-1.08-.22-1.41-.67-.32-.41-.48-.95-.48-1.63,0-.89.28-2.1.85-3.64.57-1.54.85-2.44.85-2.71,0-.05-.02-.09-.05-.11-.07,0-.18.13-.32.4-1.32,2.58-1.97,4.68-1.97,6.29,0,1.16.34,2.13,1.01,2.93.64.76,1.4,1.15,2.27,1.15Z"/>
          <path class="cls-2" d="M33.07,43.04c.19-.41.3-.79.34-1.14.04-.34-.02-.56-.17-.69,0,0-.04-.04-.07-.05-.23-.12-.54-.04-.93.22,0,0,0,0,0,0-.02.02-.05.03-.07.04-.43.3-.66.66-.71,1.08-.04.35.22.72.78,1.12-.37.45-1.05,1-2.04,1.67-.91.62-1.64,1.07-2.2,1.32,1.29-1.07,1.98-2.02,2.09-2.87.09-.75-.22-1.17-.93-1.26-.29-.04-.62.09-.99.39-.39.32-.61.67-.66,1.04-.05.39.07.75.36,1.08.29.33.42.57.4.71,0,.03-.01.06-.03.1-.39.4-.83.81-1.31,1.23-.2.17-.3.28-.31.35,0,.05.02.08.09.09.09.01.26-.02.5-.1,2.32-.82,4.11-2,5.36-3.55.27.22.44.4.51.53.32-.36.48-.62.51-.8-.05-.13-.22-.3-.51-.51ZM28.15,44.19c-.14-.18-.2-.34-.19-.47.01-.11.11-.22.29-.33.18-.11.35-.16.53-.14.59.07.86.36.79.85-.05.39-.45.92-1.22,1.61.21-.4.25-.74.13-1.03-.03-.07-.14-.24-.33-.49ZM32.71,42.81c-.45-.3-.67-.52-.65-.67,0-.07.08-.13.22-.18.14-.05.24-.07.3-.06.16.02.24.13.24.34.02.21-.02.4-.11.58Z"/>
        </g>
      </g>
    </g>
  </g>
</svg>