<?xml version="1.0" standalone="no"?>
<!DOCTYPE svg PUBLIC "-//W3C//DTD SVG 20010904//EN"
 "http://www.w3.org/TR/2001/REC-SVG-20010904/DTD/svg10.dtd">
<svg version="1.0" xmlns="http://www.w3.org/2000/svg"
 width="235.000000pt" height="64.000000pt" viewBox="0 0 235.000000 64.000000"
 preserveAspectRatio="xMidYMid meet">

<g transform="translate(0.000000,64.000000) scale(0.100000,-0.100000)"
fill="#000000" stroke="none">
<path d="M897 614 c-4 -4 -7 -29 -7 -56 l0 -48 56 0 55 0 -3 53 -3 52 -45 3
c-25 2 -49 0 -53 -4z"/>
<path d="M1050 565 l0 -55 50 0 50 0 0 55 0 55 -50 0 -50 0 0 -55z"/>
<path d="M40 410 l0 -50 70 0 69 0 3 -157 3 -158 53 -3 52 -3 0 160 0 161 75
0 75 0 0 50 0 50 -200 0 -200 0 0 -50z"/>
<path d="M510 255 l0 -205 50 0 50 0 0 155 0 155 75 0 75 0 0 50 0 50 -125 0
-125 0 0 -205z"/>
<path d="M820 255 l0 -205 205 0 205 0 0 205 0 205 -205 0 -205 0 0 -205z
m300 0 l0 -105 -100 0 -100 0 0 105 0 105 100 0 100 0 0 -105z"/>
<path d="M1290 256 l0 -204 50 -4 50 -3 2 155 3 155 103 3 102 3 0 -154 c0
-85 2 -156 4 -158 3 -2 25 -3 50 -1 l46 4 0 204 0 204 -205 0 -205 0 0 -204z"/>
<path d="M1770 410 l0 -50 55 0 55 0 0 50 0 50 -55 0 -55 0 0 -50z"/>
<path d="M1977 402 l-37 -38 55 -54 55 -54 -55 -56 -55 -56 38 -37 38 -37 54
55 54 55 56 -55 56 -55 32 33 c18 18 32 37 32 43 0 5 -23 32 -50 59 l-50 49
50 51 c27 28 50 55 50 61 0 5 -15 24 -33 42 l-33 32 -54 -55 -54 -55 -56 55
-56 55 -37 -38z"/>
<path d="M1770 182 c0 -71 2 -131 4 -133 2 -2 27 -2 55 -1 l51 4 0 129 0 129
-55 0 -55 0 0 -128z"/>
</g>
</svg>
